<svg width="281" height="50" viewBox="0 0 281 50" fill="none" xmlns="http://www.w3.org/2000/svg">
<path d="M10.533 31.7591V48.8891H0.647009V6.00406C0.644497 5.34518 0.772426 4.69226 1.02341 4.08304C1.2744 3.47383 1.6435 2.92041 2.10941 2.4545C2.57532 1.9886 3.12879 1.61943 3.73801 1.36844C4.34723 1.11746 5.00014 0.98959 5.65903 0.992102H21.95C27.054 0.992102 30.86 2.29213 33.368 4.89213C35.968 7.49213 37.268 11.344 37.268 16.448C37.268 21.276 36.0147 25.0817 33.508 27.865C31.002 30.465 27.382 31.7651 22.648 31.7651L10.533 31.7591ZM10.533 23.1261H20.141C22.741 23.1261 24.5973 22.5694 25.71 21.4561C26.9147 20.4354 27.518 18.6717 27.52 16.1651C27.6684 15.2354 27.5945 14.2839 27.3042 13.3883C27.0139 12.4928 26.5154 11.6788 25.8498 11.0131C25.1841 10.3474 24.3703 9.84884 23.4748 9.55839C22.5793 9.26793 21.6277 9.19378 20.698 9.34208H10.533V23.1261Z" fill="#121212"/>
<path d="M70.182 37.4681H77.144C76.3341 41.0469 74.257 44.212 71.296 46.3791C68.1232 48.6045 64.3085 49.7286 60.436 49.579C55.1446 49.579 51.014 47.8617 48.044 44.4271C45.072 41.0851 43.5867 36.3044 43.588 30.085C43.588 24.1464 45.027 19.5054 47.905 16.162C50.8743 12.7287 55.005 11.0114 60.297 11.0101C65.8663 11.0101 70.1826 12.6807 73.246 16.022C76.2153 19.458 77.7006 24.2391 77.702 30.3651V31.8961C77.7235 32.2272 77.6762 32.5591 77.563 32.871H53.474C53.5653 35.749 54.2613 37.8841 55.562 39.2761C56.2329 40.0423 57.0726 40.6423 58.0148 41.0287C58.9571 41.4152 59.9763 41.5775 60.992 41.503C62.4009 41.5455 63.7954 41.2091 65.03 40.529C65.3204 40.4295 65.583 40.2623 65.796 40.0411L66.562 39.2761C66.8089 38.8214 67.1683 38.4378 67.606 38.162C68.3643 37.6517 69.2697 37.4057 70.182 37.4621M53.474 26.602H67.674C67.6662 24.5795 66.9798 22.6182 65.725 21.032C65.0538 20.3601 64.2472 19.8388 63.3589 19.5027C62.4706 19.1667 61.5209 19.0236 60.573 19.0831C59.6487 19.0494 58.7273 19.2048 57.8653 19.54C57.0033 19.8751 56.2188 20.3829 55.56 21.032C54.1729 22.5507 53.4249 24.5457 53.472 26.602" fill="#121212"/>
<path d="M84.579 48.8861V30.925C84.4861 27.8075 85.0305 24.7038 86.179 21.8041C87.13 19.4998 88.6368 17.467 90.565 15.8871C92.4034 14.4574 94.5125 13.4151 96.765 12.8231C99.147 12.1721 101.606 11.8445 104.075 11.8491H105.467V21.7351H102.267C99.5737 21.7351 97.578 22.3847 96.28 23.6841C94.982 24.9834 94.332 27.0257 94.33 29.811V48.8861H84.579Z" fill="#121212"/>
<path d="M133.145 48.889V6.00403C133.142 5.34507 133.27 4.6921 133.521 4.08276C133.772 3.47343 134.141 2.91982 134.607 2.45386C135.073 1.9879 135.626 1.61881 136.236 1.36792C136.845 1.11703 137.498 0.989287 138.157 0.992065H143.031V18.8151H162.8V0.989014H172.825V48.889H162.8V27.589H143.031V48.889H133.145Z" fill="#121212"/>
<path d="M184.718 45.5441C182.692 43.7521 181.24 41.4029 180.541 38.7901C179.7 35.9188 179.278 32.941 179.288 29.949C179.293 27.4068 179.645 24.8773 180.333 22.4301C180.927 20.1174 182.047 17.973 183.605 16.1641C185.98 13.3991 189.312 11.6336 192.934 11.2211C196.39 10.6778 199.925 10.9867 203.234 12.121C206.674 13.432 209.471 16.0279 211.034 19.3611C212.673 22.6927 213.485 26.3701 213.402 30.0821C213.452 32.6686 213.124 35.2486 212.427 37.74C211.874 39.6676 211.029 41.4989 209.921 43.1701C207.918 46.0829 204.881 48.124 201.428 48.8791C198.407 49.7138 195.225 49.7855 192.169 49.0881C189.421 48.5679 186.855 47.3449 184.72 45.5381M191.403 21.032C189.454 23.1694 188.573 26.3488 188.758 30.5701C188.943 34.7914 189.732 37.7387 191.125 39.412C191.902 40.3035 192.916 40.9555 194.049 41.292C195.411 41.8018 196.903 41.8507 198.295 41.4311C199.905 40.8783 201.264 39.7667 202.124 38.298C203.238 36.6274 203.841 33.9354 203.934 30.2221C203.934 26.8808 203.401 24.3744 202.334 22.703C201.512 21.2414 200.207 20.1104 198.644 19.5031C197.294 19.04 195.833 19.0154 194.468 19.433C193.333 19.7119 192.282 20.2609 191.404 21.0331" fill="#121212"/>
<path d="M252.582 11.8479V33.57C252.582 40.1613 250.865 44.4776 247.431 46.5189C244.023 48.5535 240.122 49.6131 236.153 49.5819C232.282 49.4335 228.516 48.2823 225.223 46.241C221.927 44.1997 220.279 39.9763 220.28 33.5709V11.849H230.026V35.5199C230.026 37.7472 230.676 39.3719 231.976 40.3939C233.24 41.4028 234.814 41.9437 236.431 41.9249C238.069 41.9368 239.663 41.3975 240.957 40.3939C241.66 39.8028 242.21 39.0515 242.561 38.2033C242.912 37.355 243.055 36.4347 242.976 35.5199V16.583C242.965 15.9663 243.077 15.3535 243.304 14.7799C243.531 14.2064 243.869 13.6833 244.299 13.241C244.737 12.7814 245.268 12.4199 245.856 12.18C246.443 11.94 247.075 11.8273 247.71 11.849L252.582 11.8479Z" fill="#121212"/>
<path d="M259.46 48.8861V30.925C259.367 27.8075 259.912 24.7038 261.06 21.8041C262.011 19.4997 263.518 17.4667 265.446 15.8871C267.284 14.4573 269.394 13.415 271.646 12.8231C274.028 12.1721 276.487 11.8445 278.956 11.8491H280.348V21.7351H277.148C274.455 21.7351 272.46 22.3847 271.162 23.6841C269.864 24.9834 269.214 27.0257 269.212 29.811V48.8861H259.46Z" fill="#121212"/>
</svg>
