<svg width="165" height="172" viewBox="0 0 165 172" fill="none" xmlns="http://www.w3.org/2000/svg">
<g filter="url(#filter0_d_8_5961)">
<path d="M79 139C108.271 139 132 115.271 132 86C132 56.7289 108.271 33 79 33C49.7289 33 26 56.7289 26 86C26 115.271 49.7289 139 79 139Z" fill="white"/>
<path d="M79 138C107.719 138 131 114.719 131 86C131 57.2812 107.719 34 79 34C50.2812 34 27 57.2812 27 86C27 114.719 50.2812 138 79 138Z" stroke="#2A60E4" stroke-width="2"/>
</g>
<path d="M79.5 106.5V86.5V106.5ZM79.5 86.5V66.5V86.5ZM79.5 86.5H99.5H79.5ZM79.5 86.5H59.5H79.5Z" fill="black"/>
<path d="M79.5 106.5V86.5M79.5 86.5V66.5M79.5 86.5H99.5M79.5 86.5H59.5" stroke="#2A60E4" stroke-width="3" stroke-linecap="round"/>
<defs>
<filter id="filter0_d_8_5961" x="-7" y="0" width="172" height="172" filterUnits="userSpaceOnUse" color-interpolation-filters="sRGB">
<feFlood flood-opacity="0" result="BackgroundImageFix"/>
<feColorMatrix in="SourceAlpha" type="matrix" values="0 0 0 0 0 0 0 0 0 0 0 0 0 0 0 0 0 0 127 0" result="hardAlpha"/>
<feOffset/>
<feGaussianBlur stdDeviation="16.5"/>
<feColorMatrix type="matrix" values="0 0 0 0 0.0705882 0 0 0 0 0.0705882 0 0 0 0 0.0705882 0 0 0 0.169 0"/>
<feBlend mode="normal" in2="BackgroundImageFix" result="effect1_dropShadow_8_5961"/>
<feBlend mode="normal" in="SourceGraphic" in2="effect1_dropShadow_8_5961" result="shape"/>
</filter>
</defs>
</svg>
