<svg width="37" height="38" viewBox="0 0 37 38" fill="none" xmlns="http://www.w3.org/2000/svg">
<path d="M28.555 28.014C27.7664 26.6424 26.6301 25.5029 25.2607 24.7104C23.8913 23.9179 22.3372 23.5004 20.755 23.5H16.255C14.6728 23.5004 13.1187 23.9179 11.7493 24.7104C10.3799 25.5029 9.24363 26.6424 8.455 28.014C9.72212 29.4256 11.2723 30.5546 13.0046 31.3275C14.7369 32.1004 16.6126 32.4998 18.5095 32.4998C20.4064 32.4998 22.2821 32.1004 24.0144 31.3275C25.7467 30.5546 27.2969 29.4256 28.564 28.014H28.555ZM0.5 19C0.5 15.4399 1.55568 11.9598 3.53355 8.99974C5.51141 6.03966 8.32263 3.73255 11.6117 2.37018C14.9008 1.0078 18.52 0.651339 22.0116 1.34587C25.5033 2.04041 28.7106 3.75474 31.2279 6.27209C33.7453 8.78943 35.4596 11.9967 36.1541 15.4884C36.8487 18.98 36.4922 22.5992 35.1298 25.8883C33.7675 29.1774 31.4603 31.9886 28.5003 33.9665C25.5402 35.9443 22.0601 37 18.5 37C13.7261 37 9.14773 35.1036 5.77208 31.7279C2.39642 28.3523 0.5 23.7739 0.5 19ZM18.5 20.125C19.5012 20.125 20.4799 19.8281 21.3123 19.2719C22.1447 18.7157 22.7935 17.9251 23.1767 17.0002C23.5598 16.0752 23.6601 15.0574 23.4647 14.0755C23.2694 13.0935 22.7873 12.1916 22.0794 11.4836C21.3714 10.7757 20.4695 10.2936 19.4875 10.0983C18.5056 9.90295 17.4878 10.0032 16.5629 10.3863C15.6379 10.7695 14.8473 11.4183 14.2911 12.2507C13.7349 13.0832 13.438 14.0618 13.438 15.063C13.438 16.4055 13.9713 17.6931 14.9206 18.6424C15.8699 19.5917 17.1575 20.125 18.5 20.125Z" stroke="#121212"/>
</svg>
