<svg width="32" height="36" viewBox="0 0 32 36" fill="none" xmlns="http://www.w3.org/2000/svg">
<path d="M16 18C14.22 18 12.4799 17.4722 10.9999 16.4832C9.51983 15.4943 8.36627 14.0887 7.68509 12.4442C7.0039 10.7996 6.82567 8.99002 7.17293 7.24419C7.5202 5.49836 8.37737 3.89472 9.63604 2.63604C10.8947 1.37737 12.4984 0.520203 14.2442 0.172937C15.99 -0.17433 17.7996 0.00389957 19.4442 0.685088C21.0887 1.36628 22.4943 2.51983 23.4832 3.99987C24.4722 5.47991 25 7.21997 25 9C25 11.387 24.0518 13.6761 22.364 15.364C20.6761 17.0518 18.3869 18 16 18ZM14.95 25.256L13.642 23.076C13.54 22.9056 13.4849 22.7112 13.4825 22.5126C13.4801 22.314 13.5304 22.1183 13.6283 21.9455C13.7262 21.7727 13.8682 21.6289 14.0398 21.5289C14.2113 21.4288 14.4064 21.3761 14.605 21.376H17.382C17.5805 21.3764 17.7753 21.4293 17.9467 21.5295C18.1181 21.6296 18.26 21.7733 18.3578 21.946C18.4556 22.1187 18.506 22.3142 18.5037 22.5127C18.5015 22.7112 18.4467 22.9056 18.345 23.076L17.037 25.256L19.385 33.968L21.92 23.639C21.949 23.5034 22.0048 23.3749 22.0842 23.2611C22.1636 23.1473 22.2649 23.0506 22.3822 22.9765C22.4995 22.9025 22.6304 22.8526 22.7672 22.8298C22.904 22.8071 23.0441 22.8119 23.179 22.844C25.6284 23.4615 27.8017 24.8789 29.3543 26.8715C30.9069 28.8641 31.75 31.3179 31.75 33.844C31.7492 34.4161 31.5214 34.9645 31.1166 35.3687C30.7118 35.773 30.1631 36 29.591 36H20.324C20.1844 36.0003 20.0459 35.9742 19.916 35.923L19.937 36H12.063L12.084 35.923C11.9539 35.9735 11.8156 35.9996 11.676 36H2.409C1.8368 35.9987 1.28842 35.7708 0.883816 35.3662C0.479211 34.9616 0.251321 34.4132 0.250001 33.841C0.2491 31.3147 1.09188 28.8605 2.64462 26.8677C4.19737 24.8749 6.37113 23.4577 8.821 22.841C8.95588 22.8103 9.0955 22.8065 9.23185 22.8298C9.3682 22.8532 9.4986 22.9032 9.61557 22.9771C9.73254 23.051 9.83377 23.1472 9.91347 23.2603C9.99317 23.3733 10.0498 23.501 10.08 23.636L12.611 33.965L14.959 25.253L14.95 25.256Z" fill="white"/>
</svg>
