<svg width="312" height="312" viewBox="0 0 312 312" fill="none" xmlns="http://www.w3.org/2000/svg">
<path d="M156 37.1429C156 37.1429 126.286 37.1429 104 66.8571C81.7145 96.5714 78.0002 104 63.1431 111.429C48.2859 118.857 37.1431 122.571 37.1431 159.714C37.1431 196.857 74.2859 185.714 85.4288 219.143C96.5716 252.571 115.143 274.857 156 274.857C196.857 274.857 189.429 248.857 215.429 241.429C241.429 234 274.857 219.143 274.857 193.143C274.857 167.143 256.286 156 263.715 137.429C271.143 118.857 274.857 111.429 274.857 85.4286C274.857 73.0117 267.139 63.4474 255.68 59.3023C249.797 57.174 243.65 56.6317 237.44 56.7506C231.515 56.8657 226.215 59.5437 220.373 60.2234C207.172 61.7611 201.114 51.1754 190.952 45.2029C180.414 39.0111 168.068 37.1429 156 37.1429Z" fill="#E1E9FF"/>
<path d="M156 256.286C127.849 256.286 113.501 244.627 103.049 213.271C95.6244 191.003 79.3855 181.97 68.6401 175.99C57.5529 169.828 55.7144 168.551 55.7144 159.714C55.7144 135.817 58.6004 134.394 69.3421 129.083L71.4444 128.039C87.9246 119.801 94.7106 110.611 109.586 90.4726C112.29 86.8177 115.34 82.6874 118.857 78C135.115 56.3197 155.796 55.7143 156 55.7143C166.887 55.7143 175.24 57.512 181.539 61.2152C183.371 62.2923 185.439 64.0083 187.627 65.8283C193.919 71.0543 203.428 78.9509 217.832 78.9509C219.373 78.9509 220.952 78.858 222.523 78.676C226.531 78.208 230.029 77.2349 232.845 76.4512C234.713 75.9312 236.83 75.3406 237.796 75.322L239.029 75.3109C243.33 75.3109 246.614 75.7752 249.366 76.7706C253.957 78.4309 256.286 81.3429 256.286 85.4286C256.286 106.151 253.998 111.833 247.88 127.025L246.473 130.531C239.553 147.829 245.83 161.802 250.41 172.005C253.563 179.029 256.286 185.094 256.286 193.143C256.286 203.651 238.245 215.596 210.325 223.57C194.005 228.232 186.03 238.045 180.21 245.21C174.029 252.813 171.21 256.286 156 256.286Z" fill="#D7E0F4"/>
<path d="M156 237.714C138.209 237.714 129.369 233.502 120.666 207.398C110.961 178.286 89.3026 166.237 77.6695 159.763C76.7112 159.231 75.6118 158.912 74.7649 158.191C73.8252 157.393 73.7843 156.175 73.9589 155.034C74.2115 153.396 74.4566 151.792 74.5272 150.131C74.5866 148.794 75.0769 147.576 76.0686 146.662C77.5469 145.299 79.5823 144.753 81.3318 143.843C82.5575 143.204 83.772 142.547 84.9718 141.863C87.2189 140.578 89.4178 139.208 91.546 137.733C95.5278 134.977 99.2458 131.861 102.685 128.459C106.258 124.923 109.538 121.101 112.677 117.178C116.354 112.58 119.853 107.841 123.351 103.105C123.745 102.574 124.135 102.043 124.525 101.515C127.27 97.8008 130.264 93.7448 133.714 89.1428C143.375 76.2617 154.722 74.4974 156.594 74.2857C163.581 74.3414 168.944 75.3554 172.127 77.2237C172.77 77.6249 174.568 79.1217 175.76 80.1097C183.088 86.1974 196.723 97.5186 217.832 97.5186C220.09 97.5186 222.393 97.3848 224.673 97.1174L224.959 97.084C231.63 96.2966 236.986 102.681 234.873 109.059C233.84 112.168 232.466 115.581 230.653 120.083L229.238 123.608C219.384 148.245 228.544 168.647 233.465 179.608C233.487 179.66 233.51 179.708 233.532 179.76C236.522 186.424 233.681 194.205 227.151 197.477C221.973 200.077 214.816 202.975 205.225 205.716C183.281 211.985 172.339 225.453 165.765 233.543C163.651 236.143 160.517 237.651 157.166 237.707C156.799 237.711 156.412 237.714 156 237.714Z" fill="#CED9ED"/>
<path d="M256.286 241.8V248.857H55.7144V241.8H70.5715H241.429H256.286Z" fill="#7D8995"/>
<path d="M237.714 196.857V234.371H74.2856V196.857C74.2856 162.834 95.1971 133.603 124.837 121.346C134.457 117.334 144.969 115.143 156 115.143C163.911 115.143 171.6 116.294 178.843 118.411C187.831 121.011 196.151 125.134 203.543 130.483C207.629 133.38 211.38 136.649 214.834 140.214C218.289 143.817 221.409 147.717 224.194 151.877C232.737 164.803 237.714 180.254 237.714 196.857Z" fill="#ED7E7E"/>
<path d="M226.571 200.571V234.371H74.2856V196.857C74.2856 162.834 95.1971 133.603 124.837 121.346C131.263 119.711 137.949 118.857 144.857 118.857C154.849 118.857 164.431 120.677 173.271 123.983C181.814 127.14 189.688 131.709 196.634 137.391C200.497 140.549 204.026 144.077 207.183 147.866C210.488 151.691 213.386 155.851 215.837 160.234C222.671 172.12 226.571 185.9 226.571 200.571Z" fill="#EE4D4D"/>
<path d="M203.543 130.483L99.6542 234.371H74.2856V222.969L173.271 123.983L178.843 118.411C187.831 121.011 196.151 125.134 203.543 130.483ZM224.194 151.877L141.7 234.371H120.677L207.183 147.866L214.834 140.214C218.288 143.817 221.408 147.717 224.194 151.877Z" fill="#ED7E7E"/>
<path d="M260 234.371H245.143V196.857C245.143 147.717 205.14 107.714 156 107.714C106.86 107.714 66.8571 147.717 66.8571 196.857V234.371H51.9999C49.9571 234.371 48.2856 236.043 48.2856 238.086V252.571C48.2856 254.614 49.9571 256.286 51.9999 256.286H260C262.043 256.286 263.714 254.614 263.714 252.571V238.086C263.714 236.043 262.043 234.371 260 234.371ZM74.2856 196.857C74.2856 151.803 110.946 115.143 156 115.143C201.054 115.143 237.714 151.803 237.714 196.857V234.371H74.2856V196.857ZM256.286 248.857H55.7142V241.8H70.5714H241.429H256.286V248.857Z" fill="#3E4354"/>
<path d="M229.357 125.023L255.357 95.3086L249.786 90.4057L223.786 120.12L229.357 125.023Z" fill="#3E4354"/>
<path d="M159.714 59.4286H152.286V96.5714H159.714V59.4286Z" fill="#3E4354"/>
<path d="M56.6431 95.3086L82.6431 125.023L88.2145 120.12L62.2145 90.4057L56.6431 95.3086Z" fill="#3E4354"/>
<path d="M110.4 200C107.567 200 105.233 199.55 103.4 198.65C101.567 197.75 100.2 196.383 99.3 194.55C98.4333 192.717 98 190.4 98 187.6C98 184.8 98.4333 182.467 99.3 180.6C100.2 178.7 101.567 177.283 103.4 176.35C105.233 175.383 107.567 174.9 110.4 174.9H121.7V196.85H115V179.25L116.65 180.7H110.4C109.033 180.7 107.933 180.867 107.1 181.2C106.267 181.5 105.65 182.15 105.25 183.15C104.883 184.117 104.7 185.6 104.7 187.6C104.7 189.5 104.867 190.933 105.2 191.9C105.567 192.833 106.167 193.45 107 193.75C107.833 194.05 108.967 194.2 110.4 194.2H126.95V200H110.4ZM126.95 200V194.2C127.35 194.2 127.617 194.467 127.75 195C127.883 195.5 127.95 196.2 127.95 197.1C127.95 197.967 127.883 198.667 127.75 199.2C127.617 199.733 127.35 200 126.95 200ZM126.957 200V194.2H139.457V200H126.957ZM139.457 200V194.2C139.857 194.2 140.124 194.467 140.257 195C140.39 195.5 140.457 196.2 140.457 197.1C140.457 197.967 140.39 198.667 140.257 199.2C140.124 199.733 139.857 200 139.457 200ZM126.957 200C126.557 200 126.29 199.733 126.157 199.2C126.024 198.667 125.957 197.967 125.957 197.1C125.957 196.2 126.024 195.5 126.157 195C126.29 194.467 126.557 194.2 126.957 194.2V200ZM154.057 200V194.2H160.307V200H154.057ZM160.307 200V194.2C160.707 194.2 160.974 194.467 161.107 195C161.24 195.5 161.307 196.2 161.307 197.1C161.307 197.967 161.24 198.667 161.107 199.2C160.974 199.733 160.707 200 160.307 200ZM139.457 200V194.2H151.307L147.407 197.45V174.9H154.057V200H139.457ZM139.457 200C139.057 200 138.79 199.733 138.657 199.2C138.524 198.667 138.457 197.967 138.457 197.1C138.457 196.2 138.524 195.5 138.657 195C138.79 194.467 139.057 194.2 139.457 194.2V200ZM141.457 210.4V204.7H148.157V210.4H141.457ZM148.307 210.4V204.7H155.007V210.4H148.307ZM172.257 200V194.2H177.507V200H172.257ZM160.307 200V194.2H169.457L165.557 197.45V174.9H172.257V200H160.307ZM160.307 200C159.907 200 159.64 199.733 159.507 199.2C159.373 198.667 159.307 197.967 159.307 197.1C159.307 196.2 159.373 195.5 159.507 195C159.64 194.467 159.907 194.2 160.307 194.2V200ZM177.507 200V194.2C177.907 194.2 178.173 194.467 178.307 195C178.44 195.5 178.507 196.2 178.507 197.1C178.507 197.967 178.44 198.667 178.307 199.2C178.173 199.733 177.907 200 177.507 200ZM165.557 210.65V204.95H172.257V210.65H165.557ZM189.444 200V194.2H194.694V200H189.444ZM177.494 200V194.2H186.644L182.744 197.45V174.9H189.444V200H177.494ZM177.494 200C177.094 200 176.827 199.733 176.694 199.2C176.561 198.667 176.494 197.967 176.494 197.1C176.494 196.2 176.561 195.5 176.694 195C176.827 194.467 177.094 194.2 177.494 194.2V200ZM194.694 200V194.2C195.094 194.2 195.361 194.467 195.494 195C195.627 195.5 195.694 196.2 195.694 197.1C195.694 197.967 195.627 198.667 195.494 199.2C195.361 199.733 195.094 200 194.694 200ZM182.744 170.3V164.6H189.444V170.3H182.744ZM194.682 200V194.2H206.532L202.632 197.45V174.9H209.282V200H194.682ZM194.682 200C194.282 200 194.015 199.733 193.882 199.2C193.748 198.667 193.682 197.967 193.682 197.1C193.682 196.2 193.748 195.5 193.882 195C194.015 194.467 194.282 194.2 194.682 194.2V200ZM196.682 171.9V166.2H203.382V171.9H196.682ZM203.532 171.9V166.2H210.232V171.9H203.532Z" fill="white"/>
</svg>
