<svg width="157" height="157" viewBox="0 0 157 157" fill="none" xmlns="http://www.w3.org/2000/svg">
<path d="M78.5 157C121.854 157 157 121.854 157 78.5C157 35.1456 121.854 0 78.5 0C35.1456 0 0 35.1456 0 78.5C0 121.854 35.1456 157 78.5 157Z" fill="white"/>
<path d="M78.5 155C120.75 155 155 120.75 155 78.5C155 36.2502 120.75 2 78.5 2C36.2502 2 2 36.2502 2 78.5C2 120.75 36.2502 155 78.5 155Z" stroke="#2A60E4" stroke-width="4"/>
<path d="M90.957 99.7749L88.701 108.904L83.016 104.493L87.957 99.7749H90.957Z" fill="#A0BCFF"/>
<path d="M63.5 48.7859L65.018 49.9599C61.704 49.9599 58.745 53.7029 58.745 57.0169L56.491 57.8009C55.999 57.745 55.5009 57.7789 55.021 57.9009L55.5 48.7859C55.5 48.165 55.6446 47.5525 55.9223 46.9971C56.2 46.4417 56.6032 45.9585 57.1 45.5859C57.8447 46.58 58.8109 47.3867 59.9219 47.9422C61.0328 48.4977 62.2579 48.7866 63.5 48.7859Z" fill="#A0BCFF"/>
<path d="M74.17 104.787L68.343 108.806L66.043 99.7749H69.043L74.17 104.787Z" fill="#A0BCFF"/>
<path d="M101.75 58.4562H98.65C98.6506 57.0215 98.316 55.6066 97.673 54.3242C97.0335 53.0306 96.0928 51.9096 94.93 51.0552C93.3183 49.8527 91.3609 49.2037 89.35 49.2052H66.1C62.82 49.2137 59.6709 47.9189 57.3455 45.6056C55.02 43.2924 53.7087 40.1502 53.7 36.8702V33.7862H97.1C98.7399 33.7819 100.314 34.4292 101.477 35.5857C102.64 36.7422 103.296 38.3132 103.3 39.9532V58.8722C102.829 58.6004 102.294 58.4569 101.75 58.4562ZM109.5 110.88V123.215H47.5V110.88C47.5087 107.6 48.82 104.458 51.1455 102.145C53.4709 99.8314 56.62 98.5367 59.9 98.5452H64.55L67.65 110.88L75.4 104.713L78.5 107.796L81.6 104.712L89.35 110.879L92.45 98.5442H97.1C98.7242 98.5399 100.333 98.8557 101.835 99.4734C103.338 100.091 104.703 100.999 105.855 102.144C107.006 103.29 107.921 104.651 108.546 106.15C109.172 107.649 109.496 109.256 109.5 110.88Z" fill="#A0BCFF"/>
<path d="M96.786 96.7861H89.045L88.573 91.1941C91.9746 89.3746 94.8186 86.6659 96.8016 83.357C98.7847 80.048 99.8324 76.2628 99.833 72.4051V70.8861H101.357C102.568 70.8824 103.729 70.3997 104.585 69.5432C105.442 68.6868 105.924 67.5263 105.928 66.3151V61.7381C105.925 61.0987 105.788 60.467 105.524 59.8843C105.261 59.3015 104.878 58.7808 104.4 58.3561V40.4051C104.4 38.3853 103.598 36.4481 102.17 35.0195C100.742 33.5908 98.8058 32.7875 96.786 32.7861H54.119C53.7157 32.7875 53.3293 32.9486 53.0446 33.2343C52.7599 33.5199 52.6 33.9068 52.6 34.3101V37.3571C52.6012 39.8506 53.2864 42.296 54.581 44.4271C53.3016 45.8248 52.5945 47.6523 52.6 49.5471V58.3561C52.1226 58.7813 51.7401 59.3023 51.4775 59.8852C51.2149 60.4681 51.0781 61.0998 51.076 61.7391V66.3101C51.0784 67.5215 51.56 68.6827 52.4157 69.5401C53.2714 70.3975 54.4317 70.8814 55.643 70.8861H57.167V72.4101C57.1684 76.2664 58.2162 80.05 60.1986 83.3576C62.181 86.6652 65.0238 89.373 68.424 91.1921L67.955 96.7861H60.214C56.5786 96.792 53.0938 98.2387 50.5232 100.809C47.9525 103.38 46.5058 106.865 46.5 110.5V122.686C46.5 123.09 46.6606 123.478 46.9464 123.764C47.2322 124.05 47.6198 124.21 48.024 124.21H108.976C109.38 124.21 109.768 124.05 110.054 123.764C110.339 123.478 110.5 123.09 110.5 122.686V110.5C110.494 106.865 109.047 103.38 106.477 100.809C103.906 98.2387 100.421 96.792 96.786 96.7861ZM90.264 99.8341L88.264 107.834L83.833 104.286L88.267 99.8361L90.264 99.8341ZM78.5 105.304L70.942 97.7311L71.369 92.4891C75.9774 94.1552 81.0236 94.1552 85.632 92.4891L86.059 97.7311L78.5 105.304ZM102.881 61.7381V66.3091C102.881 66.7133 102.72 67.101 102.435 67.3868C102.149 67.6726 101.761 67.8331 101.357 67.8331H99.833V60.2151H101.357C101.761 60.2151 102.149 60.3756 102.434 60.6611C102.72 60.9467 102.881 61.3341 102.881 61.7381ZM55.643 35.8341H96.786C97.9972 35.8378 99.1577 36.3206 100.014 37.177C100.871 38.0335 101.353 39.194 101.357 40.4051V57.1671H99.711C99.3494 54.6286 98.0835 52.3059 96.1462 50.6261C94.2088 48.9463 91.7302 48.0224 89.166 48.0241H66.31C63.4819 48.021 60.7706 46.8961 58.7708 44.8963C56.771 42.8966 55.6462 40.1852 55.643 37.3571V35.8341ZM57.167 67.8341H55.643C55.2388 67.8341 54.8512 67.6736 54.5654 67.3878C54.2796 67.102 54.119 66.7143 54.119 66.3101V61.7381C54.119 61.3339 54.2796 60.9463 54.5654 60.6605C54.8512 60.3747 55.2388 60.2141 55.643 60.2141H57.167V67.8341ZM55.643 57.1671V49.5481C55.6514 48.607 55.9507 47.6914 56.5 46.9271C57.8967 48.3433 59.58 49.4445 61.437 50.1571C59.1916 51.8617 57.7035 54.3782 57.292 57.1671H55.643ZM60.214 72.4051V58.6861C60.214 56.6654 61.0167 54.7275 62.4456 53.2987C63.8744 51.8698 65.8123 51.0671 67.833 51.0671H89.167C91.1877 51.0671 93.1256 51.8698 94.5544 53.2987C95.9833 54.7275 96.786 56.6654 96.786 58.6861V72.4051C96.7503 77.2313 94.8081 81.8477 91.3828 85.2478C87.9574 88.6479 83.3268 90.5559 78.5005 90.5559C73.6742 90.5559 69.0436 88.6479 65.6182 85.2478C62.1929 81.8477 60.2497 77.2313 60.214 72.4051ZM68.732 99.8341L73.166 104.284L68.732 107.834L66.732 99.8341H68.732ZM107.452 121.167H49.552V110.5C49.5554 107.673 50.6797 104.963 52.6784 102.963C54.677 100.964 57.387 99.8386 60.214 99.8341H63.6L66.355 110.866C66.417 111.115 66.54 111.344 66.7128 111.533C66.8857 111.722 67.103 111.864 67.345 111.948C67.5032 111.997 67.6675 112.022 67.833 112.024C68.1764 112.02 68.5087 111.902 68.778 111.689L75.346 106.447L77.418 108.535C77.7068 108.819 78.0954 108.977 78.5 108.977C78.9047 108.977 79.2932 108.819 79.582 108.535L81.654 106.447L88.222 111.686C88.4913 111.899 88.8236 112.017 89.167 112.021C89.3325 112.019 89.4968 111.994 89.655 111.945C89.897 111.861 90.1143 111.719 90.2872 111.53C90.46 111.341 90.583 111.112 90.645 110.863L93.4 99.8341H96.783C99.6113 99.8368 102.323 100.961 104.323 102.961C106.323 104.96 107.449 107.672 107.452 110.5V121.167Z" fill="#2A60E4"/>
<path d="M73.5 62.4492C73.2348 62.4492 72.9804 62.5546 72.7929 62.7421C72.6054 62.9296 72.5 63.184 72.5 63.4492V65.4492C72.5 65.7144 72.6054 65.9688 72.7929 66.1563C72.9804 66.3439 73.2348 66.4492 73.5 66.4492C73.7652 66.4492 74.0196 66.3439 74.2071 66.1563C74.3946 65.9688 74.5 65.7144 74.5 65.4492V63.4492C74.5 63.184 74.3946 62.9296 74.2071 62.7421C74.0196 62.5546 73.7652 62.4492 73.5 62.4492ZM83.5 66.4492C83.7652 66.4492 84.0196 66.3439 84.2071 66.1563C84.3946 65.9688 84.5 65.7144 84.5 65.4492V63.4492C84.5 63.184 84.3946 62.9296 84.2071 62.7421C84.0196 62.5546 83.7652 62.4492 83.5 62.4492C83.2348 62.4492 82.9804 62.5546 82.7929 62.7421C82.6054 62.9296 82.5 63.184 82.5 63.4492V65.4492C82.5 65.7144 82.6054 65.9688 82.7929 66.1563C82.9804 66.3439 83.2348 66.4492 83.5 66.4492Z" fill="#006DF0"/>
</svg>
