<svg width="22" height="22" viewBox="0 0 22 22" fill="none" xmlns="http://www.w3.org/2000/svg">
<path d="M20.376 16.6721C19.304 15.7531 18.1255 14.9662 16.866 14.3281C15.698 13.7401 15.602 13.6911 14.683 14.3741C14.07 14.8291 13.663 15.2361 12.946 15.0831C11.5624 14.5899 10.3154 13.776 9.30697 12.7081C8.22342 11.6871 7.39189 10.4284 6.87797 9.0311C6.72497 8.3171 7.13798 7.9141 7.58898 7.3001C8.22498 6.4351 8.17698 6.2901 7.63298 5.1221C7.0079 3.85717 6.21803 2.6806 5.28398 1.6231C4.45798 0.807098 4.45798 0.951098 3.92598 1.1731C3.49263 1.35539 3.0769 1.57698 2.68397 1.8351C2.04056 2.19898 1.52011 2.74624 1.18897 3.4071C0.888975 4.0451 0.755975 5.5411 2.29797 8.3421C3.54857 10.7526 5.19207 12.9378 7.16097 14.8081C9.06073 16.7438 11.2453 18.3777 13.639 19.6531C16.753 21.3971 17.947 21.0531 18.587 20.7591C19.2498 20.4309 19.7993 19.912 20.165 19.2691C20.4232 18.875 20.6445 18.4579 20.826 18.0231C21.049 17.4971 21.194 17.4971 20.376 16.6721Z" stroke="black" stroke-miterlimit="10"/>
</svg>
