<svg width="36" height="23" viewBox="0 0 36 23" fill="none" xmlns="http://www.w3.org/2000/svg">
<path d="M34 0H2C0.89543 0 0 0.89543 0 2V21C0 22.1046 0.89543 23 2 23H34C35.1046 23 36 22.1046 36 21V2C36 0.89543 35.1046 0 34 0Z" fill="#CDD4D9"/>
<path d="M0 18H36V21C36 21.5304 35.7893 22.0391 35.4142 22.4142C35.0391 22.7893 34.5304 23 34 23H2C1.46957 23 0.960859 22.7893 0.585786 22.4142C0.210714 22.0391 0 21.5304 0 21V18Z" fill="#6D7177"/>
<path d="M2 0H34C34.5304 0 35.0391 0.210714 35.4142 0.585786C35.7893 0.960859 36 1.46957 36 2V5H0V2C0 1.46957 0.210714 0.960859 0.585786 0.585786C0.960859 0.210714 1.46957 0 2 0Z" fill="#6D7177"/>
</svg>
