<svg width="15" height="17" viewBox="0 0 15 17" fill="none" xmlns="http://www.w3.org/2000/svg">
<path d="M3.333 7.5H5V9.167H3.333V7.5ZM15 3.333V15C14.9987 15.4417 14.8226 15.865 14.5103 16.1773C14.198 16.4896 13.7747 16.6657 13.333 16.667H1.667C1.22488 16.667 0.800876 16.4914 0.488253 16.1787C0.17563 15.8661 0 15.4421 0 15L0.0079999 3.333C0.00707815 3.11455 0.0493091 2.89807 0.132269 2.69598C0.215229 2.49389 0.337284 2.31018 0.491428 2.15538C0.645572 2.00059 0.82877 1.87776 1.03051 1.79395C1.23224 1.71014 1.44855 1.667 1.667 1.667H2.5V0H4.167V1.667H10.834V0H12.5V1.667H13.333C13.7745 1.66832 14.1976 1.84423 14.5099 2.15636C14.8222 2.46848 14.9984 2.89146 15 3.333ZM1.667 5H13.333V3.333H1.667V5ZM13.333 15V6.667H1.667V15H13.333ZM10 9.167H11.667V7.5H10V9.167ZM6.667 9.167H8.334V7.5H6.667V9.167Z" fill="#121212"/>
</svg>
