<svg width="21" height="20" viewBox="0 0 21 20" fill="none" xmlns="http://www.w3.org/2000/svg">
<path d="M10.1878 0H10.1638C7.51165 0 4.96811 1.05357 3.09275 2.92893C1.21739 4.8043 0.163818 7.34784 0.163818 10C0.163818 12.6522 1.21739 15.1957 3.09275 17.0711C4.96811 18.9464 7.51165 20 10.1638 20H10.1878C12.84 20 15.3835 18.9464 17.2589 17.0711C19.1343 15.1957 20.1878 12.6522 20.1878 10C20.1878 7.34784 19.1343 4.8043 17.2589 2.92893C15.3835 1.05357 12.84 0 10.1878 0ZM10.5878 5.986C11.6283 5.95841 12.663 5.82132 13.6748 5.577C13.9981 6.89622 14.1705 8.24787 14.1888 9.606H10.5888V5.986H10.5878ZM10.5878 5.186V0.865C11.6648 1.165 12.7608 2.601 13.4528 4.807C12.5133 5.03021 11.5532 5.15587 10.5878 5.182V5.186ZM9.78782 0.859V5.188C8.81399 5.16126 7.84567 5.03222 6.89882 4.803C7.60082 2.582 8.70182 1.135 9.78882 0.856L9.78782 0.859ZM9.78782 5.989V9.604H6.16382C6.18211 8.24587 6.35454 6.89422 6.67782 5.575C7.6976 5.82066 8.74026 5.95907 9.78882 5.988L9.78782 5.989ZM5.35582 9.601H1.00082C1.08428 7.61169 1.81497 5.70403 3.08182 4.168C3.9807 4.66454 4.92967 5.06444 5.91282 5.361C5.56702 6.74865 5.38015 8.17112 5.35582 9.601ZM5.35582 10.401C5.37521 11.8307 5.55909 13.2534 5.90382 14.641C4.92315 14.9405 3.97584 15.3399 3.07682 15.833C1.81152 14.296 1.08073 12.389 0.994818 10.4L5.35582 10.401ZM6.16382 10.401H9.78882V14.012C8.7399 14.0402 7.69698 14.1803 6.67782 14.43C6.35454 13.1108 6.18211 11.7591 6.16382 10.401ZM9.78882 14.814V19.151C8.70182 18.867 7.60182 17.425 6.89982 15.204C7.84601 14.9704 8.81458 14.8403 9.78882 14.814ZM10.5888 19.136V14.808C11.556 14.8361 12.5177 14.9634 13.4588 15.188C12.7598 17.399 11.6688 18.837 10.5868 19.135L10.5888 19.136ZM10.5888 14.011V10.399H14.1888C14.1702 11.7555 13.9978 13.1054 13.6748 14.423C12.6632 14.1773 11.6285 14.0389 10.5878 14.01L10.5888 14.011ZM14.9888 10.4H19.3738C19.2892 12.3892 18.5583 14.2967 17.2918 15.833C16.387 15.3318 15.4321 14.9269 14.4428 14.625C14.7876 13.2404 14.9715 11.8207 14.9908 10.394L14.9888 10.4ZM14.9888 9.6C14.9687 8.172 14.7865 6.7509 14.4458 5.364C15.4335 5.06367 16.3873 4.66151 17.2918 4.164C18.5597 5.70106 19.2908 7.61022 19.3738 9.601H14.9908L14.9888 9.6ZM16.7438 3.552C15.9418 3.97935 15.0997 4.32702 14.2298 4.59C13.8712 3.28254 13.2217 2.07306 12.3298 1.052C14.0063 1.45751 15.5359 2.3238 16.7458 3.553L16.7438 3.552ZM8.01282 1.063C7.12454 2.07925 6.47924 3.28435 6.12582 4.587C5.26375 4.32529 4.42969 3.97894 3.63582 3.553C4.83374 2.32908 6.35139 1.46631 8.01582 1.063H8.01282ZM3.62982 16.442C4.42408 16.0169 5.25806 15.6706 6.11982 15.408C6.477 16.7122 7.12409 17.9189 8.01282 18.938C6.34679 18.5332 4.82805 17.6683 3.62982 16.442ZM12.3298 18.942C13.2226 17.9197 13.8722 16.7084 14.2298 15.399C15.0997 15.662 15.9418 16.0096 16.7438 16.437C15.5337 17.6668 14.0032 18.5329 12.3258 18.937L12.3298 18.942Z" fill="#121212"/>
</svg>
