<svg width="20" height="20" viewBox="0 0 20 20" fill="none" xmlns="http://www.w3.org/2000/svg">
<path d="M0 20.004H4.166L16.453 7.71295L12.287 3.54695L0 15.834V20.004ZM2.222 16.76L12.287 6.69095L13.309 7.71295L3.244 17.778H2.222V16.76ZM17.075 0.324954C16.9722 0.22209 16.8501 0.14049 16.7158 0.0848165C16.5814 0.0291433 16.4374 0.000488281 16.292 0.000488281C16.1466 0.000488281 16.0026 0.0291433 15.8682 0.0848165C15.7339 0.14049 15.6118 0.22209 15.509 0.324954L13.476 2.35795L17.642 6.52395L19.675 4.49095C19.7779 4.38815 19.8595 4.26609 19.9151 4.13174C19.9708 3.99739 19.9995 3.85338 19.9995 3.70795C19.9995 3.56253 19.9708 3.41852 19.9151 3.28417C19.8595 3.14982 19.7779 3.02776 19.675 2.92495L17.075 0.324954Z" fill="#2A60E4"/>
</svg>
