<svg width="53" height="53" viewBox="0 0 53 53" fill="none" xmlns="http://www.w3.org/2000/svg">
<path d="M52 26.5C52 12.4167 40.5833 1 26.5 1C12.4167 1 1 12.4167 1 26.5C1 40.5833 12.4167 52 26.5 52C40.5833 52 52 40.5833 52 26.5Z" fill="url(#paint0_radial_575_30)" stroke="#2A60E4" stroke-width="2"/>
<path d="M37.468 32.0731V35.3001C37.4687 35.6004 37.4067 35.8975 37.286 36.1725C37.1653 36.4474 36.9886 36.6942 36.7672 36.897C36.5458 37.0998 36.2844 37.2542 36 37.3503C35.7155 37.4464 35.4141 37.4821 35.115 37.4551C31.7943 37.0948 28.6042 35.9619 25.8 34.1471C23.1928 32.4943 20.9814 30.2878 19.323 27.6841C17.4993 24.8747 16.3639 21.6747 16.009 18.3441C15.9832 18.0463 16.0196 17.7464 16.1158 17.4634C16.2121 17.1804 16.366 16.9205 16.568 16.7001C16.7699 16.4798 17.0154 16.3038 17.289 16.1833C17.5625 16.0628 17.8581 16.0004 18.157 16.0001H21.4C21.9234 15.9946 22.4309 16.1796 22.8281 16.5204C23.2253 16.8613 23.4851 17.335 23.559 17.8531C23.6959 18.8875 23.9495 19.9029 24.315 20.8801C24.4602 21.2657 24.4916 21.6849 24.4055 22.0879C24.3193 22.4908 24.1192 22.8606 23.829 23.1531L22.458 24.5211C23.9957 27.2196 26.2335 29.4528 28.935 30.9851L30.306 29.6171C30.5999 29.3274 30.9705 29.1277 31.3742 29.0418C31.7778 28.9559 32.1976 28.9872 32.584 29.1321C33.5633 29.4972 34.5808 29.7501 35.617 29.8861C36.1409 29.9595 36.6195 30.2229 36.9618 30.6261C37.3042 31.0293 37.4865 31.5443 37.474 32.0731H37.468Z" fill="#2A60E4"/>
<defs>
<radialGradient id="paint0_radial_575_30" cx="0" cy="0" r="1" gradientUnits="userSpaceOnUse" gradientTransform="translate(27 27) rotate(90) scale(52.5)">
<stop stop-color="white"/>
<stop offset="1" stop-color="#A0BCFF"/>
</radialGradient>
</defs>
</svg>
