<svg width="15" height="15" viewBox="0 0 15 15" fill="none" xmlns="http://www.w3.org/2000/svg">
<path d="M7.198 1L5.826 5.18903C5.75562 5.40656 5.63462 5.60426 5.47295 5.76593C5.31127 5.9276 5.11353 6.04863 4.896 6.11902L0.697998 7.5L4.88699 8.87201C5.10457 8.94232 5.30234 9.06329 5.46402 9.22498C5.6257 9.38666 5.74669 9.58443 5.817 9.802L7.198 14L8.56999 9.81097C8.64038 9.59344 8.76138 9.39574 8.92305 9.23407C9.08472 9.0724 9.28246 8.95137 9.5 8.88098L13.698 7.5L9.509 6.12799C9.29143 6.05768 9.09366 5.93671 8.93198 5.77502C8.77029 5.61334 8.64931 5.41557 8.57899 5.198L7.198 1Z" stroke="#121212" stroke-linecap="round" stroke-linejoin="round"/>
</svg>
