<svg width="268" height="268" viewBox="0 0 268 268" fill="none" xmlns="http://www.w3.org/2000/svg">
<path d="M134 268C208.006 268 268 208.006 268 134C268 59.9938 208.006 0 134 0C59.9938 0 0 59.9938 0 134C0 208.006 59.9938 268 134 268Z" fill="white"/>
<path d="M134 267.5C207.73 267.5 267.5 207.73 267.5 134C267.5 60.27 207.73 0.5 134 0.5C60.27 0.5 0.5 60.27 0.5 134C0.5 207.73 60.27 267.5 134 267.5Z" stroke="#CDD4D9"/>
<path d="M146.312 155.07V140.878C146.312 138.186 145.243 135.604 143.339 133.701C141.436 131.797 138.854 130.728 136.162 130.728C133.47 130.728 130.888 131.797 128.985 133.701C127.081 135.604 126.012 138.186 126.012 140.878V153.691C126.021 169.106 120.315 183.978 109.997 195.43L95.7551 211.255C95.4649 211.57 95.2401 211.94 95.0938 212.343C94.9475 212.745 94.8825 213.173 94.9026 213.601C94.9227 214.029 95.0276 214.449 95.211 214.836C95.3945 215.223 95.6529 215.57 95.9714 215.856C96.2899 216.143 96.662 216.364 97.0663 216.505C97.4707 216.647 97.8991 216.707 98.3268 216.682C98.7545 216.657 99.173 216.548 99.558 216.36C99.9431 216.172 100.287 215.91 100.57 215.588L114.812 199.763C126.203 187.121 132.503 170.704 132.493 153.687V140.878C132.509 139.915 132.903 138.997 133.589 138.321C134.276 137.646 135.2 137.268 136.164 137.268C137.127 137.268 138.051 137.646 138.738 138.321C139.424 138.997 139.818 139.915 139.834 140.878V155.07C139.849 174.033 132.779 192.318 120.012 206.34L106.129 221.611C105.836 221.925 105.608 222.293 105.459 222.695C105.309 223.098 105.241 223.526 105.259 223.955C105.276 224.383 105.379 224.804 105.56 225.193C105.742 225.582 105.999 225.931 106.316 226.22C106.634 226.508 107.006 226.731 107.41 226.875C107.814 227.019 108.243 227.081 108.672 227.057C109.1 227.034 109.52 226.925 109.906 226.738C110.293 226.551 110.638 226.29 110.922 225.968L124.805 210.697C138.658 195.484 146.328 175.645 146.312 155.07Z" fill="#CDD4D9"/>
<path d="M160.131 140.879C160.09 134.55 157.547 128.493 153.057 124.032C148.567 119.571 142.494 117.067 136.165 117.067C129.835 117.067 123.762 119.571 119.272 124.032C114.782 128.493 112.239 134.55 112.198 140.879V153.692C112.206 165.695 107.763 177.275 99.727 186.192L89.602 197.443C89.0389 198.083 88.7509 198.92 88.8006 199.771C88.8502 200.622 89.2336 201.42 89.8674 201.99C90.5012 202.56 91.3344 202.858 92.1862 202.818C93.0379 202.778 93.8395 202.403 94.417 201.776L104.545 190.524C113.65 180.418 118.684 167.295 118.675 153.692V140.879C118.675 136.241 120.518 131.792 123.797 128.512C127.077 125.233 131.526 123.39 136.164 123.39C140.802 123.39 145.251 125.233 148.531 128.512C151.81 131.792 153.653 136.241 153.653 140.879V155.071C153.671 177.472 145.32 199.072 130.238 215.636L118.525 228.521C118.229 228.834 117.998 229.203 117.846 229.606C117.693 230.009 117.623 230.439 117.639 230.869C117.655 231.3 117.757 231.723 117.939 232.114C118.121 232.505 118.378 232.855 118.697 233.145C119.016 233.435 119.39 233.659 119.796 233.802C120.202 233.946 120.633 234.007 121.063 233.982C121.494 233.958 121.915 233.847 122.301 233.657C122.688 233.468 123.034 233.203 123.317 232.878L135.031 219.993C151.198 202.238 160.149 179.084 160.131 155.071V140.879Z" fill="#CDD4D9"/>
<path d="M173.949 140.878C173.949 130.857 169.968 121.246 162.882 114.16C155.796 107.073 146.185 103.093 136.164 103.093C126.142 103.093 116.531 107.073 109.445 114.16C102.359 121.246 98.3781 130.857 98.3781 140.878V153.693C98.3833 162.282 95.2037 170.568 89.4541 176.948L80.3371 187.078C80.0469 187.393 79.8222 187.763 79.6758 188.166C79.5295 188.568 79.4645 188.996 79.4847 189.424C79.5048 189.852 79.6096 190.272 79.7931 190.659C79.9765 191.046 80.235 191.393 80.5534 191.679C80.8719 191.966 81.2441 192.187 81.6484 192.328C82.0527 192.47 82.4811 192.53 82.9088 192.505C83.3365 192.48 83.755 192.371 84.1401 192.183C84.5251 191.995 84.8691 191.733 85.1521 191.411L94.2691 181.281C101.09 173.712 104.862 163.882 104.856 153.693V140.878C104.856 132.575 108.155 124.611 114.026 118.74C119.897 112.869 127.861 109.57 136.164 109.57C144.467 109.57 152.431 112.869 158.302 118.74C164.174 124.611 167.472 132.575 167.472 140.878V155.07C167.492 180.909 157.86 205.824 140.463 224.93L137.221 228.496C136.928 228.81 136.7 229.178 136.551 229.58C136.401 229.983 136.333 230.411 136.351 230.84C136.368 231.268 136.471 231.689 136.652 232.078C136.834 232.467 137.091 232.816 137.408 233.105C137.726 233.393 138.098 233.616 138.502 233.76C138.906 233.904 139.335 233.966 139.764 233.942C140.192 233.919 140.612 233.81 140.998 233.623C141.385 233.436 141.73 233.175 142.014 232.853L145.255 229.287C163.737 208.989 173.97 182.52 173.948 155.069V140.878H173.949Z" fill="#CDD4D9"/>
<path d="M84.5601 140.878C84.575 141.727 84.9227 142.536 85.5285 143.131C86.1342 143.727 86.9494 144.06 87.7986 144.06C88.6477 144.06 89.463 143.727 90.0687 143.131C90.6744 142.536 91.0221 141.727 91.0371 140.878C91.0514 130.031 94.9662 119.55 102.067 111.35C109.167 103.15 118.98 97.7765 129.714 96.2111C130.551 96.0744 131.302 95.6147 131.803 94.9309C132.305 94.247 132.519 93.3935 132.398 92.5538C132.278 91.7141 131.833 90.9552 131.158 90.4403C130.484 89.9254 129.635 89.6955 128.793 89.8C116.517 91.5874 105.294 97.731 97.1727 107.109C89.0516 116.487 84.5749 128.473 84.5601 140.878Z" fill="#CDD4D9"/>
<path d="M91.0371 153.692C91.0446 153.262 90.9664 152.835 90.8071 152.435C90.6477 152.036 90.4104 151.672 90.1089 151.365C89.8074 151.058 89.4479 150.815 89.0512 150.648C88.6545 150.482 88.2287 150.396 87.7986 150.396C87.3684 150.396 86.9426 150.482 86.5459 150.648C86.1492 150.815 85.7897 151.058 85.4882 151.365C85.1867 151.672 84.9494 152.036 84.79 152.435C84.6307 152.835 84.5525 153.262 84.5601 153.692C84.5633 158.866 82.6479 163.858 79.1841 167.702L71.0751 176.713C70.5119 177.353 70.2239 178.19 70.2736 179.041C70.3233 179.892 70.7066 180.69 71.3404 181.26C71.9743 181.83 72.8075 182.128 73.6592 182.088C74.511 182.048 75.3126 181.673 75.8901 181.046L83.9991 172.035C88.5336 167.002 91.0412 160.467 91.0371 153.692Z" fill="#CDD4D9"/>
<path d="M181.411 182.603C180.58 182.386 179.697 182.508 178.956 182.942C178.215 183.375 177.676 184.085 177.458 184.916C176.257 189.501 174.781 194.009 173.036 198.416C172.873 198.813 172.79 199.238 172.793 199.667C172.795 200.096 172.883 200.52 173.05 200.914C173.218 201.309 173.463 201.667 173.769 201.966C174.076 202.266 174.44 202.501 174.838 202.659C175.237 202.817 175.663 202.894 176.092 202.886C176.521 202.878 176.944 202.785 177.336 202.613C177.729 202.44 178.083 202.191 178.379 201.88C178.674 201.569 178.905 201.203 179.058 200.802C180.899 196.152 182.457 191.396 183.724 186.558C183.832 186.146 183.858 185.718 183.8 185.296C183.742 184.875 183.602 184.469 183.387 184.101C183.172 183.734 182.887 183.413 182.548 183.156C182.209 182.899 181.823 182.711 181.411 182.603Z" fill="#CDD4D9"/>
<path d="M170.631 102.502C170.315 102.213 169.946 101.99 169.543 101.844C169.141 101.699 168.714 101.635 168.287 101.656C167.859 101.676 167.44 101.782 167.054 101.965C166.667 102.149 166.321 102.407 166.035 102.725C165.749 103.043 165.529 103.415 165.387 103.819C165.246 104.223 165.185 104.65 165.21 105.077C165.235 105.504 165.344 105.922 165.531 106.307C165.718 106.692 165.979 107.036 166.3 107.319C171.009 111.551 174.777 116.725 177.36 122.506C179.942 128.287 181.281 134.546 181.29 140.878V155.07C181.291 160.466 180.923 165.857 180.19 171.203C180.127 171.627 180.148 172.059 180.253 172.474C180.358 172.889 180.545 173.28 180.801 173.623C181.058 173.965 181.381 174.254 181.75 174.471C182.119 174.689 182.527 174.831 182.952 174.889C183.376 174.948 183.808 174.921 184.222 174.812C184.636 174.702 185.024 174.512 185.364 174.251C185.704 173.99 185.989 173.665 186.202 173.294C186.416 172.922 186.553 172.512 186.607 172.087C187.382 166.448 187.771 160.762 187.772 155.07V140.878C187.762 133.638 186.231 126.48 183.278 119.869C180.325 113.258 176.017 107.341 170.631 102.502Z" fill="#CDD4D9"/>
<path d="M155.489 100.103C156.262 100.457 157.144 100.493 157.944 100.203C158.744 99.9126 159.397 99.3192 159.763 98.5511C160.128 97.783 160.177 96.9018 159.899 96.098C159.62 95.2941 159.037 94.6321 158.274 94.255C153.613 92.0351 148.643 90.5331 143.533 89.8C142.691 89.6955 141.842 89.9254 141.168 90.4403C140.494 90.9552 140.048 91.7141 139.928 92.5537C139.807 93.3934 140.021 94.247 140.523 94.9308C141.025 95.6147 141.775 96.0744 142.612 96.211C147.076 96.8518 151.417 98.1639 155.489 100.103Z" fill="#CDD4D9"/>
<path d="M136.163 75.456C134.951 75.456 133.726 75.49 132.52 75.556C132.095 75.5794 131.68 75.6863 131.296 75.8704C130.913 76.0546 130.57 76.3124 130.286 76.6293C130.002 76.9461 129.784 77.3157 129.643 77.717C129.502 78.1183 129.442 78.5434 129.465 78.968C129.488 79.3926 129.595 79.8085 129.779 80.1918C129.964 80.5751 130.221 80.9185 130.538 81.2021C130.855 81.4858 131.225 81.7043 131.626 81.8452C132.027 81.986 132.452 82.0464 132.877 82.023C133.965 81.963 135.07 81.933 136.163 81.933C151.791 81.9507 166.773 88.1667 177.824 99.2172C188.874 110.268 195.09 125.25 195.108 140.878V155.07C195.108 155.929 195.449 156.753 196.057 157.36C196.664 157.968 197.488 158.309 198.347 158.309C199.206 158.309 200.03 157.968 200.637 157.36C201.245 156.753 201.586 155.929 201.586 155.07V140.879C201.566 123.534 194.666 106.905 182.402 94.6405C170.137 82.3757 153.508 75.4764 136.163 75.456Z" fill="#CDD4D9"/>
<path d="M100.752 93.028C101.412 93.0281 102.057 92.8257 102.598 92.448C107.957 88.7152 113.902 85.9044 120.188 84.132C120.597 84.0166 120.98 83.8216 121.314 83.5583C121.648 83.295 121.927 82.9685 122.135 82.5974C122.343 82.2262 122.476 81.8178 122.526 81.3954C122.576 80.973 122.542 80.5449 122.427 80.1355C122.311 79.7261 122.116 79.3435 121.853 79.0094C121.59 78.6753 121.263 78.3964 120.892 78.1885C120.521 77.9807 120.112 77.848 119.69 77.7979C119.268 77.7479 118.839 77.7816 118.43 77.897C111.451 79.8647 104.85 82.985 98.9 87.129C98.3334 87.523 97.9075 88.0877 97.6842 88.7407C97.4609 89.3937 97.4519 90.1009 97.6586 90.7593C97.8653 91.4178 98.2768 91.993 98.8332 92.4013C99.3897 92.8095 100.062 93.0285 100.752 93.028Z" fill="#CDD4D9"/>
<path d="M77.219 153.692V140.879C77.2049 125.852 82.9552 111.392 93.285 100.479C93.8659 99.8525 94.1757 99.0219 94.147 98.1681C94.1183 97.3143 93.7535 96.5063 93.1319 95.9203C92.5103 95.3342 91.6824 95.0174 90.8283 95.0389C89.9743 95.0604 89.1633 95.4184 88.572 96.035C77.1056 108.15 70.7235 124.202 70.741 140.883V153.696C70.7422 155.456 70.0909 157.154 68.913 158.461L64.919 162.895C64.3443 163.534 64.0468 164.374 64.0919 165.232C64.137 166.09 64.521 166.895 65.1595 167.469C65.798 168.044 66.6387 168.342 67.4966 168.297C68.3545 168.252 69.1593 167.868 69.734 167.229L73.728 162.792C75.9774 160.295 77.2212 157.053 77.219 153.692Z" fill="#CDD4D9"/>
<path d="M211.291 115.661C207.759 105.136 202.042 95.4765 194.516 87.315C193.934 86.687 193.126 86.3153 192.27 86.2811C191.415 86.2469 190.58 86.553 189.95 87.1325C189.319 87.712 188.943 88.5176 188.905 89.3732C188.867 90.2288 189.169 91.0647 189.746 91.698C196.659 99.1919 201.91 108.062 205.156 117.727C205.441 118.527 206.028 119.183 206.792 119.554C207.556 119.925 208.435 119.981 209.24 119.711C210.045 119.44 210.711 118.864 211.096 118.107C211.48 117.349 211.552 116.471 211.295 115.662L211.291 115.661Z" fill="#CDD4D9"/>
<path d="M161.759 65.879C161.357 65.7411 160.931 65.6838 160.507 65.7104C160.082 65.737 159.667 65.847 159.285 66.034C158.903 66.221 158.561 66.4814 158.28 66.8004C157.999 67.1194 157.783 67.4907 157.645 67.893C157.507 68.2954 157.45 68.721 157.476 69.1455C157.503 69.57 157.613 69.9851 157.8 70.3671C157.987 70.7492 158.247 71.0906 158.566 71.372C158.885 71.6533 159.257 71.8691 159.659 72.007C166.81 74.4552 173.534 78.0057 179.588 82.53C180.277 83.0279 181.135 83.2348 181.975 83.1061C182.816 82.9773 183.572 82.5231 184.08 81.8417C184.589 81.1602 184.809 80.3061 184.694 79.4636C184.578 78.6212 184.136 77.8581 183.462 77.339C176.869 72.4122 169.546 68.5456 161.759 65.879Z" fill="#CDD4D9"/>
<path d="M85.844 88.371C99.3585 75.3529 117.399 68.0902 136.164 68.114C139.66 68.114 143.152 68.3636 146.613 68.861C147.458 68.9727 148.313 68.7468 148.992 68.2324C149.672 67.718 150.121 66.9565 150.243 66.113C150.365 65.2695 150.149 64.4119 149.643 63.7262C149.137 63.0406 148.381 62.582 147.539 62.45C143.772 61.9086 139.97 61.637 136.164 61.637C115.778 61.6599 96.1828 69.5296 81.4438 83.6136C66.7047 97.6976 57.953 116.915 57.004 137.279C56.9848 137.704 57.0495 138.128 57.1944 138.528C57.3393 138.928 57.5616 139.296 57.8486 139.61C58.1355 139.924 58.4815 140.178 58.8668 140.358C59.2521 140.538 59.6691 140.641 60.094 140.66C60.144 140.66 60.194 140.66 60.242 140.66C61.0753 140.659 61.8763 140.338 62.4784 139.761C63.0805 139.185 63.4375 138.399 63.475 137.567C64.3021 118.896 72.3174 101.268 85.844 88.371Z" fill="#CDD4D9"/>
<path d="M136.164 47.818C128.941 47.8173 121.742 48.6563 114.713 50.318C114.292 50.4083 113.892 50.5819 113.539 50.8286C113.185 51.0753 112.884 51.3901 112.654 51.7546C112.424 52.119 112.269 52.5258 112.198 52.951C112.127 53.3762 112.141 53.8113 112.241 54.2308C112.34 54.6503 112.522 55.0457 112.777 55.3938C113.031 55.742 113.352 56.0358 113.721 56.2582C114.091 56.4805 114.501 56.6269 114.927 56.6887C115.354 56.7505 115.789 56.7264 116.206 56.618C122.746 55.0743 129.444 54.2958 136.164 54.298C147.833 54.2631 159.387 56.6077 170.119 61.1884C180.852 65.7691 190.538 72.4899 198.585 80.94C198.879 81.2514 199.231 81.5016 199.622 81.6761C200.012 81.8505 200.434 81.9459 200.862 81.9565C201.289 81.9672 201.715 81.893 202.114 81.7382C202.513 81.5834 202.877 81.3511 203.186 81.0546C203.494 80.7582 203.741 80.4036 203.912 80.0112C204.083 79.6189 204.174 79.1965 204.181 78.7687C204.187 78.3408 204.109 77.9159 203.951 77.5184C203.792 77.1209 203.556 76.7588 203.257 76.453C194.588 67.3956 184.173 60.1887 172.642 55.2672C161.111 50.3457 148.702 47.8116 136.164 47.818Z" fill="#CDD4D9"/>
<path d="M63.414 88.153C64.0903 88.6826 64.9493 88.9219 65.802 88.8182C66.6547 88.7145 67.4313 88.2763 67.961 87.6C77.1841 75.816 89.2864 66.6056 103.102 60.856C103.881 60.5171 104.495 59.8858 104.813 59.0983C105.131 58.3108 105.126 57.43 104.801 56.6455C104.476 55.8611 103.855 55.2358 103.074 54.9042C102.292 54.5727 101.411 54.5615 100.621 54.873C85.7761 61.0497 72.7719 70.9451 62.861 83.606C62.3314 84.2823 62.0921 85.1413 62.1958 85.994C62.2995 86.8468 62.7377 87.6234 63.414 88.153Z" fill="#CDD4D9"/>
<path d="M91.256 50.723C91.7431 50.7231 92.2238 50.6126 92.662 50.4C106.221 43.8338 121.097 40.4408 136.162 40.478C144.075 40.4752 151.96 41.4067 159.654 43.253C160.489 43.4539 161.37 43.3147 162.103 42.866C162.836 42.4174 163.361 41.6959 163.562 40.8605C163.762 40.0251 163.623 39.1441 163.175 38.4113C162.726 37.6785 162.004 37.1539 161.169 36.953C152.979 34.988 144.586 33.9968 136.163 34C120.122 33.9606 104.282 37.5739 89.845 44.566C89.1842 44.8849 88.6513 45.4188 88.3335 46.0801C88.0157 46.7414 87.9319 47.491 88.0957 48.2062C88.2595 48.9213 88.6613 49.5597 89.2352 50.0168C89.8092 50.4738 90.5213 50.7225 91.255 50.722L91.256 50.723Z" fill="#CDD4D9"/>
<path d="M173.192 47.552C176.545 48.8869 179.824 50.4018 183.014 52.09C183.771 52.4746 184.649 52.5464 185.459 52.29C186.269 52.0335 186.945 51.4693 187.343 50.7189C187.74 49.9685 187.827 49.0919 187.585 48.2779C187.343 47.4639 186.79 46.7777 186.047 46.367C182.65 44.5677 179.159 42.9531 175.588 41.53C174.79 41.2118 173.898 41.2236 173.109 41.5628C172.32 41.9021 171.697 42.541 171.379 43.339C171.061 44.1371 171.073 45.0288 171.412 45.8182C171.751 46.6075 172.39 47.2298 173.188 47.548L173.192 47.552Z" fill="#CDD4D9"/>
</svg>
