<svg width="157" height="157" viewBox="0 0 157 157" fill="none" xmlns="http://www.w3.org/2000/svg">
<path d="M78.5 157C121.854 157 157 121.854 157 78.5C157 35.1456 121.854 0 78.5 0C35.1456 0 0 35.1456 0 78.5C0 121.854 35.1456 157 78.5 157Z" fill="white"/>
<path d="M78.5 155C120.75 155 155 120.75 155 78.5C155 36.2502 120.75 2 78.5 2C36.2502 2 2 36.2502 2 78.5C2 120.75 36.2502 155 78.5 155Z" stroke="#2A60E4" stroke-width="4"/>
<path d="M78.5 97.0319H86.262V100.116H97.129C98.7562 100.111 100.368 100.427 101.873 101.046C103.378 101.665 104.747 102.574 105.9 103.721C107.054 104.869 107.97 106.233 108.596 107.734C109.223 109.236 109.547 110.847 109.551 112.474V123.284H47.451V112.474C47.4548 110.847 47.7791 109.237 48.4054 107.735C49.0316 106.233 49.9476 104.87 51.101 103.722C52.2543 102.574 53.6225 101.665 55.1272 101.047C56.632 100.428 58.244 100.112 59.871 100.116H70.738V97.0319H78.5ZM108.943 88.8629C109.013 89.0929 109.028 89.3361 108.987 89.5729C108.946 89.8098 108.85 90.0338 108.707 90.2269C108.563 90.4206 108.377 90.5783 108.162 90.6875C107.947 90.7966 107.709 90.8543 107.468 90.8559H86.278C89.9438 89.3369 93.0778 86.7663 95.2846 83.4684C97.4914 80.1705 98.6721 76.293 98.678 72.3249V55.3359C98.6735 54.5161 98.3451 53.7314 97.7644 53.1527C97.1837 52.5741 96.3978 52.2485 95.578 52.2469L77.958 48.7409C76.7884 48.5006 75.597 48.3816 74.403 48.3859C73.0251 51.3949 71.1162 54.1309 68.768 56.4629C65.8143 59.3959 62.2446 61.6344 58.318 63.0159V72.3279C58.3239 76.2959 59.5047 80.1732 61.7115 83.471C63.9183 86.7687 67.0522 89.339 70.718 90.8579H49.532C49.2908 90.8563 49.0534 90.7987 48.8383 90.6895C48.6233 90.5803 48.4366 90.4226 48.293 90.2289C48.1498 90.0358 48.0538 89.8118 48.0129 89.5749C47.9719 89.3381 47.987 89.0949 48.057 88.8649L51.844 76.2759C52.0173 75.6998 52.1062 75.1015 52.108 74.4999V55.3359C52.1155 52.4891 52.6836 49.6717 53.7799 47.0446C54.8763 44.4174 56.4794 42.0319 58.4977 40.0243C60.516 38.0166 62.9099 36.4262 65.5429 35.3438C68.1759 34.2614 70.9962 33.7083 73.843 33.7159H83.158C86.0047 33.7084 88.8249 34.2617 91.4578 35.3441C94.0906 36.4266 96.4845 38.017 98.5027 40.0246C100.521 42.0322 102.124 44.4177 103.22 47.0448C104.316 49.6719 104.885 52.4892 104.892 55.3359V74.4999C104.892 75.1013 104.979 75.6995 105.151 76.2759L108.943 88.8629Z" fill="#A0BCFF"/>
<path d="M96.814 98.3398H87.657V92.2398H106.978C107.454 92.2401 107.923 92.1288 108.348 91.9148C108.773 91.7008 109.142 91.3901 109.426 91.0076C109.709 90.6251 109.898 90.1815 109.979 89.7124C110.06 89.2434 110.029 88.7619 109.89 88.3068L106.166 75.8648C106.036 75.4378 105.968 74.9942 105.966 74.5478V55.6078C105.959 49.5393 103.546 43.7212 99.2549 39.4297C94.9642 35.1383 89.1465 32.7238 83.078 32.7158H73.922C67.8526 32.7224 62.0337 35.1364 57.7419 39.428C53.45 43.7196 51.0359 49.5384 51.029 55.6078V74.5468C51.0265 74.9929 50.9591 75.4362 50.829 75.8628L47.116 88.2838C46.9724 88.7394 46.9391 89.2225 47.0187 89.6935C47.0984 90.1644 47.2887 90.6098 47.574 90.9928C47.8572 91.3761 48.226 91.688 48.651 91.9036C49.076 92.1192 49.5454 92.2327 50.022 92.2348H69.343V98.3348H60.186C56.5437 98.3391 53.0518 99.7882 50.4768 102.364C47.9018 104.94 46.4539 108.433 46.451 112.075V122.758C46.451 123.163 46.6118 123.551 46.8979 123.837C47.1841 124.123 47.5723 124.284 47.977 124.284H109.023C109.224 124.284 109.422 124.245 109.608 124.168C109.793 124.092 109.961 123.979 110.103 123.838C110.245 123.696 110.358 123.528 110.435 123.342C110.511 123.157 110.551 122.958 110.551 122.758V112.075C110.547 108.433 109.098 104.942 106.523 102.367C103.947 99.7917 100.456 98.3435 96.814 98.3398ZM60.186 72.3958V64.2508C63.8625 62.7869 67.2043 60.5935 70.01 57.8028C72.2085 55.6092 74.0363 53.0732 75.422 50.2938C76.1767 50.3358 76.9271 50.4344 77.667 50.5888L94.983 54.0518C95.0834 54.0724 95.1855 54.0828 95.288 54.0828C95.6927 54.0828 96.0809 54.2436 96.367 54.5298C96.6532 54.816 96.814 55.2041 96.814 55.6088V72.3958C96.7783 77.2294 94.8331 81.8529 91.4025 85.2582C87.9719 88.6635 83.3342 90.5745 78.5005 90.5745C73.6668 90.5745 69.029 88.6635 65.5985 85.2582C62.1679 81.8529 60.2217 77.2294 60.186 72.3958ZM53.759 76.7378C53.9713 76.0272 54.0798 75.2895 54.081 74.5478V55.6078C54.0871 50.3478 56.1793 45.3049 59.8987 41.5855C63.6181 37.8661 68.661 35.7739 73.921 35.7678H83.078C88.338 35.7739 93.3809 37.8661 97.1003 41.5855C100.82 45.3049 102.912 50.3478 102.918 55.6078V74.5468C102.919 75.2897 103.028 76.0285 103.242 76.7398L106.978 89.1828H91.678C94.2272 87.1895 96.2892 84.6421 97.7079 81.7336C99.1265 78.8251 99.8645 75.6318 99.866 72.3958V55.6078C99.8667 54.4214 99.4069 53.281 98.5833 52.427C97.7597 51.573 96.6367 51.0721 95.451 51.0298L78.28 47.5958C77.0251 47.3359 75.7465 47.2069 74.465 47.2108C74.1713 47.2111 73.8839 47.2962 73.6373 47.4559C73.3907 47.6155 73.1955 47.8429 73.075 48.1108C71.8009 50.9152 70.0305 53.4662 67.849 55.6408C65.1058 58.3655 61.7931 60.4487 58.149 61.7408C57.8503 61.8474 57.5922 62.0444 57.4107 62.3045C57.2291 62.5645 57.1331 62.8747 57.136 63.1918V72.3918C57.1377 75.6282 57.8762 78.8218 59.2953 81.7305C60.7145 84.6392 62.7772 87.1866 65.327 89.1798H50.034L53.759 76.7378ZM72.395 92.8608C76.3761 94.0614 80.6229 94.0614 84.604 92.8608V95.2878H72.395V92.8608ZM107.495 121.232H49.503V112.075C49.5075 109.243 50.6345 106.528 52.6369 104.526C54.6394 102.523 57.3541 101.396 60.186 101.392H70.869C71.2737 101.392 71.6619 101.231 71.948 100.945C72.2342 100.659 72.395 100.271 72.395 99.8658V98.3398H73.921V101.392H76.973V98.3398H80.025V101.392H83.077V98.3398H84.603V99.8658C84.603 100.271 84.7638 100.659 85.0499 100.945C85.3361 101.231 85.7243 101.392 86.129 101.392H96.814C99.6459 101.396 102.361 102.523 104.363 104.526C106.366 106.528 107.492 109.243 107.497 112.075L107.495 121.232Z" fill="#2A60E4"/>
<path d="M73.5 62.4268C73.2348 62.4268 72.9804 62.5321 72.7929 62.7197C72.6054 62.9072 72.5 63.1615 72.5 63.4268V65.4268C72.5 65.692 72.6054 65.9463 72.7929 66.1339C72.9804 66.3214 73.2348 66.4268 73.5 66.4268C73.7652 66.4268 74.0196 66.3214 74.2071 66.1339C74.3946 65.9463 74.5 65.692 74.5 65.4268V63.4268C74.5 63.1615 74.3946 62.9072 74.2071 62.7197C74.0196 62.5321 73.7652 62.4268 73.5 62.4268ZM83.5 66.4268C83.7652 66.4268 84.0196 66.3214 84.2071 66.1339C84.3946 65.9463 84.5 65.692 84.5 65.4268V63.4268C84.5 63.1615 84.3946 62.9072 84.2071 62.7197C84.0196 62.5321 83.7652 62.4268 83.5 62.4268C83.2348 62.4268 82.9804 62.5321 82.7929 62.7197C82.6054 62.9072 82.5 63.1615 82.5 63.4268V65.4268C82.5 65.692 82.6054 65.9463 82.7929 66.1339C82.9804 66.3214 83.2348 66.4268 83.5 66.4268Z" fill="#2A60E4"/>
</svg>
