<svg width="244" height="227" viewBox="0 0 244 227" fill="none" xmlns="http://www.w3.org/2000/svg">
<path d="M185.279 153.46C185.279 140.868 176.831 130.349 165.779 129.174C154.727 127.999 144.704 136.548 142.637 148.914L76.5291 146.881L77.255 159.758C77.255 159.758 67.829 184.418 117.371 190.989V215.914H174.644V174.472C181.224 170.103 185.271 162.107 185.279 153.46Z" fill="url(#paint0_linear_681_35)"/>
<path d="M79.5201 160.295C79.5201 160.295 70.4941 183.91 117.938 190.211V214.095H172.788V150.855L78.8201 147.965L79.5201 160.295Z" fill="#BE7C5E"/>
<path d="M106.938 61.75C103.961 67.077 97.7481 68.677 93.0331 65.333L63.5831 43.333C58.8831 39.957 57.4731 32.914 60.4231 27.567C63.4001 22.248 69.6041 20.648 74.3171 23.984L103.767 45.984C108.469 49.356 109.886 56.401 106.938 61.75Z" fill="url(#paint1_linear_681_35)"/>
<path d="M105.306 60.548C102.539 65.499 96.7642 66.987 92.3812 63.878L64.9972 43.41C60.6302 40.272 59.3182 33.725 62.0602 28.756C64.8282 23.805 70.6022 22.317 74.9852 25.426L102.363 45.882C106.739 49.018 108.054 55.575 105.306 60.548Z" fill="#BE7C5E"/>
<path d="M162.381 177.619C173.757 177.619 182.979 167.163 182.979 154.265C182.979 141.367 173.757 130.911 162.381 130.911C151.005 130.911 141.783 141.367 141.783 154.265C141.783 167.163 151.005 177.619 162.381 177.619Z" fill="#BE7C5E"/>
<path d="M94.341 0.230999H144.097C153.939 0.230999 160.958 -2.108 160.958 9.051L161.453 163.286C161.453 174.444 153.939 174.992 144.097 174.992H94.341C84.499 174.992 76.521 165.951 76.521 154.788L77.193 11.188C77.193 0.0339985 84.499 0.230999 94.341 0.230999Z" fill="url(#paint2_linear_681_35)"/>
<path d="M97.5161 2.59499H140.916C151.874 2.59499 159.882 -0.329013 159.882 12.095L161.462 162.97C161.462 175.394 151.873 172.634 140.915 172.634H97.5161C86.5581 172.634 77.3611 175.394 77.3611 162.97L78.4331 12.754C78.4331 0.328987 86.5571 2.59499 97.5161 2.59499Z" fill="white"/>
<path d="M140.09 6.85901C139.59 10.585 136.774 13.343 133.45 13.359H104.755C101.432 13.346 98.6141 10.589 98.1181 6.85901H82.9181C82.0262 6.91766 81.1937 7.32667 80.6023 7.9968C80.0109 8.66692 79.7085 9.54377 79.7611 10.436V164.788C79.7081 165.68 80.01 166.557 80.6008 167.227C81.1916 167.898 82.0235 168.307 82.9151 168.367H155.518C156.41 168.308 157.242 167.899 157.834 167.229C158.425 166.559 158.728 165.682 158.675 164.79V10.439C158.728 9.54665 158.426 8.66947 157.835 7.9988C157.244 7.32814 156.412 6.91841 155.52 6.85901H140.09Z" fill="#4F44FF"/>
<path d="M127.936 8.892H110.732C110.37 8.892 110.076 9.1857 110.076 9.548C110.076 9.9103 110.37 10.204 110.732 10.204H127.936C128.298 10.204 128.592 9.9103 128.592 9.548C128.592 9.1857 128.298 8.892 127.936 8.892Z" fill="#DBDBDB"/>
<path d="M132.526 10.204C132.909 10.204 133.22 9.85165 133.22 9.417C133.22 8.98236 132.909 8.63 132.526 8.63C132.143 8.63 131.832 8.98236 131.832 9.417C131.832 9.85165 132.143 10.204 132.526 10.204Z" fill="#DBDBDB"/>
<path d="M175.695 158.386C169.717 159.954 165.615 155.533 164.232 148.759L150.497 90.931C149.13 84.131 152.863 77.354 158.853 75.763C164.853 74.214 170.828 78.446 172.231 85.237L183.44 144.558C184.822 151.335 181.67 156.818 175.695 158.386Z" fill="url(#paint3_linear_681_35)"/>
<path d="M159.446 78.6859C164.49 77.3645 169.524 80.9298 170.689 86.6483L183.32 148.631C184.485 154.349 181.342 160.057 176.298 161.378C171.254 162.699 166.22 159.134 165.051 153.417L152.425 91.437C151.256 85.7182 154.403 80.0113 159.446 78.6859Z" fill="#BE7C5E"/>
<path d="M182.891 206.28H104.493V227H182.891V206.28Z" fill="url(#paint4_linear_681_35)"/>
<path d="M180.772 208.682H106.612V224.898H180.772V208.682Z" fill="#4D8AF0"/>
<path d="M95.5071 123.785C92.5661 129.048 86.4281 130.63 81.7691 127.325L62.0181 112.836C57.3761 109.501 55.9811 102.542 58.8951 97.26C61.8361 91.997 67.9741 90.415 72.6331 93.719L92.3841 108.211C97.0271 111.543 98.4221 118.503 95.5071 123.785Z" fill="url(#paint5_linear_681_35)"/>
<path d="M90.5491 154.455C87.5821 159.767 81.388 161.363 76.686 158.028L64.4521 147.914C59.7671 144.55 58.3591 137.527 61.3001 132.196C64.2671 126.884 70.4611 125.288 75.1631 128.623L87.3971 138.74C92.0801 142.104 93.4881 149.121 90.5491 154.455Z" fill="url(#paint6_linear_681_35)"/>
<g opacity="0.5">
<path d="M119.216 114.624C132.372 114.624 143.037 102.532 143.037 87.615C143.037 72.6983 132.372 60.606 119.216 60.606C106.06 60.606 95.395 72.6983 95.395 87.615C95.395 102.532 106.06 114.624 119.216 114.624Z" fill="url(#paint7_linear_681_35)"/>
</g>
<path d="M89.5609 153.702C86.7939 158.653 81.0189 160.141 76.6359 157.032L65.2259 147.615C60.8589 144.477 59.5469 137.93 62.2889 132.96C65.0559 128.009 70.8309 126.521 75.2139 129.63L86.6209 139.065C90.9829 142.202 92.2909 148.734 89.5609 153.702Z" fill="#BE7C5E"/>
<path d="M94.4209 122.985C91.6539 127.936 85.8789 129.424 81.4959 126.315L62.9129 112.685C58.5459 109.547 57.2339 103 59.9759 98.031C62.7429 93.08 68.5179 91.592 72.9009 94.701L91.4839 108.334C95.8509 111.473 97.1629 118.02 94.4209 122.985Z" fill="#BE7C5E"/>
<path d="M100.613 93.26C97.657 98.546 91.4911 100.135 86.8131 96.815L61.784 78.338C57.121 74.987 55.72 67.996 58.648 62.689C61.604 57.403 67.77 55.814 72.448 59.134L97.478 77.614C102.14 80.962 103.541 87.953 100.613 93.26Z" fill="url(#paint8_linear_681_35)"/>
<path d="M99.2841 92.299C96.5171 97.25 90.7421 98.738 86.3591 95.629L62.9161 78.323C58.5491 75.185 57.2371 68.638 59.9791 63.669C62.7461 58.718 68.5211 57.23 72.9041 60.339L96.3441 77.645C100.712 80.781 102.025 87.329 99.2841 92.299Z" fill="#BE7C5E"/>
<path d="M43.979 113.284C44.8414 114.935 46.1898 116.282 47.842 117.142L49.128 115.856C49.1963 115.771 49.2923 115.713 49.3992 115.691C49.5062 115.67 49.6172 115.687 49.713 115.739C50.3871 115.978 51.0978 116.097 51.813 116.09C51.8911 116.085 51.9693 116.097 52.0424 116.125C52.1156 116.152 52.182 116.195 52.2374 116.251C52.2927 116.306 52.3356 116.372 52.3633 116.446C52.391 116.519 52.4028 116.597 52.398 116.675V118.662C52.4028 118.74 52.391 118.818 52.3633 118.891C52.3356 118.965 52.2927 119.031 52.2374 119.086C52.182 119.142 52.1156 119.185 52.0424 119.212C51.9693 119.24 51.8911 119.252 51.813 119.247C50.5079 119.248 49.2155 118.991 48.0097 118.492C46.8039 117.993 45.7083 117.26 44.7857 116.337C43.8631 115.414 43.1314 114.319 42.6327 113.113C42.1339 111.907 41.8778 110.614 41.879 109.309C41.8742 109.231 41.886 109.153 41.9137 109.08C41.9414 109.006 41.9843 108.94 42.0396 108.885C42.0949 108.829 42.1614 108.786 42.2345 108.759C42.3077 108.731 42.3859 108.719 42.464 108.724H44.51C44.5881 108.719 44.6663 108.731 44.7394 108.759C44.8126 108.786 44.879 108.829 44.9344 108.885C44.9897 108.94 45.0326 109.006 45.0603 109.08C45.088 109.153 45.0998 109.231 45.095 109.309C45.0979 110.023 45.2164 110.733 45.446 111.409C45.4694 111.509 45.4711 111.613 45.4509 111.714C45.4307 111.815 45.3892 111.911 45.329 111.994L43.979 113.284Z" fill="white"/>
<path opacity="0.1" d="M141.639 45.029C126.106 44.417 111.312 38.729 97.188 32.512C83.064 26.295 69.072 19.399 53.907 16.122C44.158 14.002 33.007 13.702 25.15 19.629C17.594 25.317 15.15 35.162 13.835 44.299C12.845 51.173 12.263 58.407 14.96 64.84C16.841 69.303 20.179 73.065 22.487 77.34C30.518 92.229 24.841 110.589 16.138 125.13C12.055 131.949 7.32001 138.453 4.16801 145.716C1.01601 152.979 -0.437998 161.293 2.318 168.699C5.051 176.032 11.561 181.554 18.618 185.43C32.942 193.308 49.83 195.562 66.283 196.837C102.72 199.665 139.351 198.431 175.883 197.213C189.405 196.76 202.983 196.301 216.283 193.932C223.67 192.615 231.296 190.524 236.655 185.48C239.981 182.275 242.166 178.07 242.877 173.507C243.588 168.943 242.786 164.272 240.592 160.208C232.941 146.741 211.787 143.397 206.439 128.945C203.498 120.991 206.521 112.131 210.797 104.753C219.972 88.924 235.353 75.039 236.166 56.953C236.728 44.519 229.327 32.085 217.889 26.207C205.905 20.047 189.289 20.822 180.445 31.021C171.352 41.528 155.353 45.568 141.639 45.029Z" fill="#4F44FF"/>
<path d="M144.568 54.143L125.149 47.29C124.904 47.2028 124.636 47.2028 124.39 47.29L104.972 54.143C104.748 54.2212 104.553 54.3675 104.416 54.5614C104.278 54.7553 104.205 54.9873 104.205 55.225V68.925C104.205 86.664 106.835 93.148 124.251 101.925C124.411 102.006 124.587 102.048 124.767 102.048C124.946 102.048 125.122 102.006 125.282 101.925C142.698 93.144 145.328 86.66 145.328 68.925V55.225C145.329 54.9882 145.256 54.7569 145.12 54.5631C144.984 54.3693 144.791 54.2225 144.568 54.143ZM143.047 68.925C143.047 85.915 140.881 91.415 124.77 99.625C108.66 91.411 106.493 85.912 106.493 68.925V56.025L124.77 49.579L143.047 56.025V68.925Z" fill="white"/>
<path d="M117.913 67.786C117.913 68.7929 118.135 69.7875 118.563 70.6987C118.992 71.6099 119.616 72.4152 120.392 73.057L119.067 82.476C119.045 82.6377 119.057 82.8023 119.104 82.9587C119.151 83.1151 119.23 83.2598 119.337 83.3829C119.444 83.506 119.577 83.6048 119.725 83.6726C119.874 83.7404 120.035 83.7757 120.198 83.776H129.336C129.499 83.7759 129.661 83.7407 129.809 83.673C129.958 83.6052 130.09 83.5064 130.197 83.3832C130.304 83.2601 130.384 83.1154 130.43 82.9589C130.477 82.8024 130.49 82.6377 130.467 82.476L129.142 73.057C130.03 72.3201 130.717 71.3709 131.14 70.2976C131.563 69.2243 131.708 68.0616 131.562 66.9172C131.416 65.7728 130.983 64.6839 130.304 63.7513C129.625 62.8188 128.721 62.0728 127.677 61.5826C126.632 61.0924 125.481 60.8738 124.33 60.9471C123.178 61.0204 122.064 61.3832 121.091 62.0018C120.117 62.6205 119.315 63.4751 118.76 64.4862C118.204 65.4973 117.913 66.6323 117.913 67.786ZM129.336 67.786C129.336 68.5407 129.148 69.2835 128.79 69.9481C128.433 70.6126 127.916 71.1781 127.286 71.594C127.107 71.7134 126.965 71.881 126.876 72.0775C126.788 72.274 126.756 72.4915 126.786 72.705L128.022 81.493H121.513L122.749 72.705C122.779 72.4915 122.748 72.274 122.659 72.0775C122.571 71.881 122.429 71.7134 122.249 71.594C121.59 71.1581 121.055 70.5587 120.697 69.8543C120.339 69.15 120.17 68.3648 120.206 67.5754C120.242 66.7861 120.482 66.0196 120.903 65.3508C121.324 64.6821 121.911 64.1339 122.607 63.76C123.303 63.386 124.084 63.199 124.874 63.2172C125.664 63.2354 126.436 63.4583 127.114 63.8639C127.792 64.2696 128.354 64.8442 128.743 65.5316C129.133 66.2191 129.336 66.9958 129.336 67.786Z" fill="white"/>
<path d="M150.134 90.938C150.134 93.1366 149.482 95.2857 148.261 97.1137C147.039 98.9418 145.303 100.367 143.272 101.208C141.241 102.049 139.006 102.269 136.849 101.84C134.693 101.412 132.712 100.353 131.158 98.7982C129.603 97.2436 128.544 95.2629 128.115 93.1066C127.687 90.9503 127.907 88.7153 128.748 86.6841C129.589 84.6529 131.014 82.9168 132.842 81.6954C134.67 80.474 136.819 79.822 139.018 79.822C141.966 79.822 144.793 80.9932 146.878 83.0778C148.963 85.1625 150.134 87.9899 150.134 90.938ZM137.734 96.823L145.98 88.577C146.047 88.5105 146.1 88.4314 146.136 88.3443C146.172 88.2572 146.191 88.1638 146.191 88.0695C146.191 87.9752 146.172 87.8818 146.136 87.7947C146.1 87.7076 146.047 87.6285 145.98 87.562L144.965 86.555C144.898 86.4883 144.82 86.4354 144.733 86.3994C144.646 86.3633 144.553 86.3447 144.458 86.3447C144.364 86.3447 144.271 86.3633 144.184 86.3994C144.097 86.4354 144.018 86.4883 143.952 86.555L137.226 93.281L134.086 90.133C133.951 89.9987 133.769 89.9233 133.578 89.9233C133.388 89.9233 133.206 89.9987 133.071 90.133L132.056 91.154C131.922 91.2888 131.846 91.4713 131.846 91.6615C131.846 91.8517 131.922 92.0342 132.056 92.169L136.718 96.83C136.784 96.8969 136.864 96.9499 136.951 96.9861C137.038 97.0223 137.131 97.0409 137.225 97.0409C137.32 97.0409 137.413 97.0223 137.5 96.9861C137.587 96.9499 137.666 96.8969 137.733 96.83L137.734 96.823Z" fill="#3ACC6C"/>
<defs>
<linearGradient id="paint0_linear_681_35" x1="130.904" y1="215.914" x2="130.904" y2="129.066" gradientUnits="userSpaceOnUse">
<stop stop-color="#808080" stop-opacity="0.251"/>
<stop offset="0.54" stop-color="#808080" stop-opacity="0.122"/>
<stop offset="1" stop-color="#808080" stop-opacity="0.102"/>
</linearGradient>
<linearGradient id="paint1_linear_681_35" x1="83.6788" y1="67.0796" x2="83.6788" y2="22.2429" gradientUnits="userSpaceOnUse">
<stop stop-color="#808080" stop-opacity="0.251"/>
<stop offset="0.54" stop-color="#808080" stop-opacity="0.122"/>
<stop offset="1" stop-color="#808080" stop-opacity="0.102"/>
</linearGradient>
<linearGradient id="paint2_linear_681_35" x1="181.922" y1="196.688" x2="181.922" y2="21.7226" gradientUnits="userSpaceOnUse">
<stop stop-color="#808080" stop-opacity="0.251"/>
<stop offset="0.54" stop-color="#808080" stop-opacity="0.122"/>
<stop offset="1" stop-color="#808080" stop-opacity="0.102"/>
</linearGradient>
<linearGradient id="paint3_linear_681_35" x1="166.989" y1="158.703" x2="166.989" y2="75.4435" gradientUnits="userSpaceOnUse">
<stop stop-color="#808080" stop-opacity="0.251"/>
<stop offset="0.54" stop-color="#808080" stop-opacity="0.122"/>
<stop offset="1" stop-color="#808080" stop-opacity="0.102"/>
</linearGradient>
<linearGradient id="paint4_linear_681_35" x1="206.959" y1="248.694" x2="206.959" y2="227.974" gradientUnits="userSpaceOnUse">
<stop stop-color="#808080" stop-opacity="0.251"/>
<stop offset="0.54" stop-color="#808080" stop-opacity="0.122"/>
<stop offset="1" stop-color="#808080" stop-opacity="0.102"/>
</linearGradient>
<linearGradient id="paint5_linear_681_35" x1="77.2015" y1="129.051" x2="77.2015" y2="91.9936" gradientUnits="userSpaceOnUse">
<stop stop-color="#808080" stop-opacity="0.251"/>
<stop offset="0.54" stop-color="#808080" stop-opacity="0.122"/>
<stop offset="1" stop-color="#808080" stop-opacity="0.102"/>
</linearGradient>
<linearGradient id="paint6_linear_681_35" x1="75.9239" y1="159.77" x2="75.9239" y2="126.881" gradientUnits="userSpaceOnUse">
<stop stop-color="#808080" stop-opacity="0.251"/>
<stop offset="0.54" stop-color="#808080" stop-opacity="0.122"/>
<stop offset="1" stop-color="#808080" stop-opacity="0.102"/>
</linearGradient>
<linearGradient id="paint7_linear_681_35" x1="119.216" y1="114.624" x2="119.216" y2="60.606" gradientUnits="userSpaceOnUse">
<stop stop-color="#808080" stop-opacity="0.251"/>
<stop offset="0.54" stop-color="#808080" stop-opacity="0.122"/>
<stop offset="1" stop-color="#808080" stop-opacity="0.102"/>
</linearGradient>
<linearGradient id="paint8_linear_681_35" x1="79.6306" y1="98.5491" x2="79.6306" y2="57.3999" gradientUnits="userSpaceOnUse">
<stop stop-color="#808080" stop-opacity="0.251"/>
<stop offset="0.54" stop-color="#808080" stop-opacity="0.122"/>
<stop offset="1" stop-color="#808080" stop-opacity="0.102"/>
</linearGradient>
</defs>
</svg>
