<svg width="21" height="17" viewBox="0 0 21 17" fill="none" xmlns="http://www.w3.org/2000/svg">
<path d="M18.708 5.444V14.333C18.7077 14.4804 18.6491 14.6216 18.5449 14.7259C18.4406 14.8301 18.2994 14.8887 18.152 14.889H11.486C11.4861 14.5242 11.4144 14.1629 11.2748 13.8258C11.1352 13.4886 10.9306 13.1824 10.6726 12.9244C10.4146 12.6664 10.1084 12.4618 9.77125 12.3222C9.43415 12.1826 9.07285 12.1109 8.708 12.111H6.486C6.12115 12.1109 5.75985 12.1826 5.42275 12.3222C5.08565 12.4618 4.77935 12.6664 4.52136 12.9244C4.26338 13.1824 4.05876 13.4886 3.91919 13.8258C3.77963 14.1629 3.70787 14.5242 3.708 14.889H2.597C2.44962 14.8887 2.30835 14.8301 2.20414 14.7259C2.09993 14.6216 2.04126 14.4804 2.041 14.333V5.444H18.708ZM2.597 1C2.00785 1.00053 1.44298 1.2348 1.02639 1.65139C0.609803 2.06798 0.37553 2.63285 0.375 3.222L0.375 14.333C0.37553 14.9221 0.609803 15.487 1.02639 15.9036C1.44298 16.3202 2.00785 16.5545 2.597 16.555H18.153C18.7421 16.5545 19.307 16.3202 19.7236 15.9036C20.1402 15.487 20.3745 14.9221 20.375 14.333V3.222C20.3745 2.63285 20.1402 2.06798 19.7236 1.65139C19.307 1.2348 18.7421 1.00053 18.153 1H2.597ZM9.819 8.778C9.819 8.33853 9.68868 7.90893 9.44453 7.54352C9.20037 7.17812 8.85334 6.89332 8.44732 6.72514C8.04131 6.55696 7.59454 6.51296 7.16351 6.5987C6.73248 6.68443 6.33656 6.89606 6.02581 7.20681C5.71506 7.51756 5.50343 7.91348 5.4177 8.34451C5.33196 8.77553 5.37596 9.22231 5.54414 9.62832C5.71232 10.0343 5.99712 10.3814 6.36252 10.6255C6.72793 10.8697 7.15753 11 7.597 11C8.18631 11 8.75149 10.7659 9.16819 10.3492C9.5849 9.93249 9.819 9.36731 9.819 8.778ZM13.43 7.111C13.2089 7.111 12.9969 7.19881 12.8406 7.35513C12.6843 7.51144 12.5965 7.72344 12.5965 7.9445C12.5965 8.16556 12.6843 8.37756 12.8406 8.53387C12.9969 8.69019 13.2089 8.778 13.43 8.778H16.208C16.4291 8.778 16.6411 8.69019 16.7974 8.53387C16.9537 8.37756 17.0415 8.16556 17.0415 7.9445C17.0415 7.72344 16.9537 7.51144 16.7974 7.35513C16.6411 7.19881 16.4291 7.111 16.208 7.111H13.43ZM13.43 10.444C13.2089 10.444 12.9969 10.5318 12.8406 10.6881C12.6843 10.8444 12.5965 11.0564 12.5965 11.2775C12.5965 11.4986 12.6843 11.7106 12.8406 11.8669C12.9969 12.0232 13.2089 12.111 13.43 12.111H16.208C16.4291 12.111 16.6411 12.0232 16.7974 11.8669C16.9537 11.7106 17.0415 11.4986 17.0415 11.2775C17.0415 11.0564 16.9537 10.8444 16.7974 10.6881C16.6411 10.5318 16.4291 10.444 16.208 10.444H13.43Z" stroke="#121212" stroke-width="0.7"/>
</svg>
