<svg width="25" height="25" viewBox="0 0 25 25" fill="none" xmlns="http://www.w3.org/2000/svg">
<path d="M14.062 5.3349V17.1859C14.062 17.6003 13.8974 17.9977 13.6044 18.2908C13.3113 18.5838 12.9139 18.7484 12.4995 18.7484C12.0851 18.7484 11.6877 18.5838 11.3946 18.2908C11.1016 17.9977 10.937 17.6003 10.937 17.1859V5.3349L7.354 8.9189C7.0591 9.20391 6.66405 9.36169 6.25394 9.35824C5.84384 9.35479 5.4515 9.19039 5.16143 8.90046C4.87137 8.61052 4.70679 8.21826 4.70316 7.80815C4.69952 7.39805 4.85712 7.00293 5.142 6.7079L11.392 0.457898C11.6853 0.166004 12.0822 0.00213623 12.496 0.00213623C12.9098 0.00213623 13.3067 0.166004 13.6 0.457898L19.85 6.7079C20.1433 7.00123 20.3081 7.39907 20.3081 7.8139C20.3081 8.22873 20.1433 8.62657 19.85 8.9199C19.5567 9.21323 19.1588 9.37802 18.744 9.37802C18.3292 9.37802 17.9313 9.21323 17.638 8.9199L14.062 5.3349ZM3.125 17.1859H9.375C9.375 18.0147 9.70424 18.8096 10.2903 19.3956C10.8763 19.9817 11.6712 20.3109 12.5 20.3109C13.3288 20.3109 14.1237 19.9817 14.7097 19.3956C15.2958 18.8096 15.625 18.0147 15.625 17.1859H21.875C22.7036 17.1867 23.498 17.5162 24.0838 18.1021C24.6697 18.6879 24.9992 19.4823 25 20.3109V21.8739C24.9989 22.7023 24.6693 23.4964 24.0835 24.0821C23.4976 24.6677 22.7034 24.9971 21.875 24.9979H3.125C2.29662 24.9971 1.50237 24.6677 0.916521 24.0821C0.330671 23.4964 0.00105894 22.7023 0 21.8739L0 20.3109C0.000794272 19.4823 0.330289 18.6879 0.916169 18.1021C1.50205 17.5162 2.29644 17.1867 3.125 17.1859ZM21.094 22.2639C21.3258 22.2639 21.5524 22.1952 21.7451 22.0664C21.9379 21.9376 22.0881 21.7546 22.1768 21.5404C22.2655 21.3262 22.2887 21.0906 22.2435 20.8633C22.1983 20.6359 22.0866 20.4271 21.9227 20.2632C21.7588 20.0993 21.55 19.9876 21.3226 19.9424C21.0953 19.8972 20.8596 19.9204 20.6455 20.0091C20.4313 20.0978 20.2483 20.248 20.1195 20.4408C19.9907 20.6335 19.922 20.8601 19.922 21.0919C19.922 21.2458 19.9523 21.3982 20.0112 21.5404C20.0701 21.6826 20.1564 21.8118 20.2653 21.9206C20.3741 22.0295 20.5033 22.1158 20.6455 22.1747C20.7877 22.2336 20.9401 22.2639 21.094 22.2639Z" fill="#2A60E4"/>
</svg>
