<svg width="33" height="33" viewBox="0 0 33 33" fill="none" xmlns="http://www.w3.org/2000/svg">
<path d="M9.7 0.1C11.459 0.019 12.02 0 16.5 0C20.98 0 21.543 0.02 23.3 0.1C24.6696 0.127423 26.0248 0.386412 27.308 0.866C28.4035 1.29063 29.3984 1.93916 30.2291 2.77015C31.0597 3.60114 31.7078 4.59629 32.132 5.692C32.6124 6.97507 32.8721 8.33022 32.9 9.7C32.981 11.462 33 12.023 33 16.5C33 20.977 32.98 21.543 32.9 23.3C32.8719 24.6672 32.6122 26.0196 32.132 27.3C31.709 28.3964 31.0613 29.3922 30.2305 30.2233C29.3997 31.0544 28.4042 31.7026 27.308 32.126C26.0253 32.6085 24.6701 32.8702 23.3 32.9C21.539 32.981 20.978 33 16.5 33C12.022 33 11.457 32.98 9.7 32.9C8.33116 32.8724 6.97694 32.6127 5.695 32.132C4.59395 31.7185 3.59616 31.0701 2.771 30.232C1.93283 29.4077 1.28445 28.4105 0.871 27.31C0.390133 26.0263 0.12947 24.6705 0.1 23.3C0.019 21.538 0 20.977 0 16.5C0 12.023 0.02 11.457 0.1 9.7C0.127423 8.33036 0.386412 6.97523 0.866 5.692C1.27962 4.59158 1.92798 3.59446 2.766 2.77C3.59005 1.93195 4.58685 1.28358 5.687 0.87C6.96788 0.391943 8.32012 0.132989 9.687 0.104L9.7 0.1ZM23.17 3.07C21.43 2.99 20.908 2.97 16.503 2.97C12.098 2.97 11.576 2.986 9.836 3.07C8.78959 3.08247 7.75312 3.27495 6.772 3.639C6.05462 3.90312 5.40543 4.32441 4.872 4.872C4.32426 5.4053 3.90294 6.05453 3.639 6.772C3.27483 7.75344 3.08236 8.79025 3.07 9.837C2.99 11.577 2.97 12.099 2.97 16.504C2.97 20.909 2.986 21.431 3.07 23.171C3.08236 24.2178 3.27483 25.2546 3.639 26.236C3.91257 26.9479 4.33252 27.5944 4.87169 28.1337C5.41085 28.673 6.05723 29.0932 6.769 29.367C7.75012 29.7311 8.78659 29.9235 9.833 29.936C11.573 30.016 12.093 30.036 16.5 30.036C20.907 30.036 21.427 30.019 23.167 29.936C24.2138 29.9236 25.2506 29.7312 26.232 29.367C26.9439 29.0934 27.5904 28.6735 28.1297 28.1343C28.669 27.5951 29.0892 26.9488 29.363 26.237C29.7272 25.2556 29.9196 24.2188 29.932 23.172C30.012 21.432 30.032 20.91 30.032 16.505C30.032 12.1 30.015 11.578 29.932 9.838C29.9195 8.79159 29.7271 7.75512 29.363 6.774C29.0989 6.05662 28.6776 5.40743 28.13 4.874C27.5967 4.32631 26.9474 3.905 26.23 3.641C25.2486 3.27683 24.2118 3.08436 23.165 3.072L23.17 3.07ZM14.392 21.587C15.4827 22.0404 16.6903 22.1309 17.8363 21.8453C18.9824 21.5596 20.0063 20.9129 20.7566 20.0007C21.5069 19.0885 21.9439 17.9591 22.0031 16.7794C22.0623 15.5998 21.7404 14.4323 21.0852 13.4496C20.4299 12.4669 19.4759 11.721 18.3642 11.3221C17.2524 10.9232 16.0418 10.8925 14.9113 11.2344C13.7807 11.5764 12.7901 12.2729 12.0858 13.2211C11.3815 14.1693 11.0008 15.3188 11 16.5C10.9995 17.5891 11.3223 18.6539 11.9276 19.5594C12.5329 20.4648 13.3934 21.1701 14.4 21.586L14.392 21.587ZM10.5 10.5C11.6864 9.31477 13.1976 8.50788 14.8425 8.18133C16.4875 7.85479 18.1923 8.02324 19.7415 8.6654C21.2907 9.30756 22.6147 10.3946 23.5462 11.7891C24.4778 13.1836 24.9749 14.823 24.9749 16.5C24.9749 18.177 24.4778 19.8164 23.5462 21.2109C22.6147 22.6054 21.2907 23.6924 19.7415 24.3346C18.1923 24.9768 16.4875 25.1452 14.8425 24.8187C13.1976 24.4921 11.6864 23.6852 10.5 22.5C9.71156 21.7124 9.08609 20.777 8.65934 19.7475C8.2326 18.718 8.01294 17.6145 8.01294 16.5C8.01294 15.3855 8.2326 14.282 8.65934 13.2525C9.08609 12.223 9.71156 11.2876 10.5 10.5ZM26.859 9.279C27.1492 9.00518 27.3512 8.65099 27.439 8.26176C27.5268 7.87252 27.4964 7.46594 27.3518 7.09404C27.2072 6.72215 26.955 6.40185 26.6273 6.17414C26.2996 5.94644 25.9115 5.82167 25.5125 5.81582C25.1135 5.80996 24.7219 5.92328 24.3877 6.14128C24.0535 6.35928 23.7919 6.67203 23.6365 7.03952C23.4811 7.40702 23.4388 7.81253 23.5151 8.20418C23.5915 8.59582 23.7829 8.95578 24.065 9.238C24.4336 9.60832 24.9321 9.82014 25.4546 9.82836C25.977 9.83658 26.482 9.64054 26.862 9.282L26.859 9.279Z" fill="#2A60E4"/>
</svg>
