<svg width="33" height="32" viewBox="0 0 33 32" fill="none" xmlns="http://www.w3.org/2000/svg">
<path d="M8.05007 31.5H1.52107V10.469H8.05007V31.5ZM4.78207 7.59996C4.03051 7.60351 3.29478 7.38412 2.66791 6.96953C2.04104 6.55494 1.55118 5.96378 1.26029 5.27079C0.969397 4.5778 0.890529 3.81412 1.03366 3.07631C1.17679 2.3385 1.5355 1.6597 2.06441 1.12575C2.59332 0.591805 3.26869 0.226688 4.00511 0.076573C4.74153 -0.0735421 5.50593 -0.00191301 6.20164 0.282402C6.89736 0.566718 7.49314 1.05095 7.91364 1.67387C8.33415 2.29678 8.5605 3.0304 8.56407 3.78196C8.56516 4.78867 8.16819 5.75498 7.45972 6.47019C6.75125 7.18541 5.78874 7.59151 4.78207 7.59996ZM32.4931 31.5H25.9771V21.263C25.9771 18.823 25.9281 15.694 22.5771 15.694C19.1771 15.694 18.6611 18.344 18.6611 21.087V31.5H12.1421V10.469H18.4051V13.338H18.4961C19.1217 12.2652 20.0268 11.3823 21.1148 10.7835C22.2029 10.1847 23.433 9.89248 24.6741 9.93796C31.2831 9.93796 32.4981 14.291 32.4981 19.944V31.5H32.4931Z" fill="#2A60E4"/>
</svg>
