<svg width="26" height="25" viewBox="0 0 26 25" fill="none" xmlns="http://www.w3.org/2000/svg">
<path d="M13 7.955C12.1011 7.955 11.2224 8.22156 10.4749 8.72097C9.72751 9.22038 9.14497 9.93021 8.80097 10.7607C8.45697 11.5912 8.36696 12.505 8.54233 13.3867C8.7177 14.2683 9.15057 15.0782 9.7862 15.7138C10.4218 16.3494 11.2317 16.7823 12.1133 16.9577C12.995 17.133 13.9088 17.043 14.7393 16.699C15.5698 16.355 16.2796 15.7725 16.779 15.0251C17.2784 14.2776 17.545 13.3989 17.545 12.5C17.5451 11.9031 17.4277 11.312 17.1993 10.7605C16.9709 10.2091 16.6362 9.70798 16.2141 9.28591C15.792 8.86384 15.2909 8.52906 14.7395 8.3007C14.188 8.07234 13.5969 7.95487 13 7.955ZM23.159 11.364C22.9017 9.05947 21.8684 6.91094 20.2287 5.27127C18.5891 3.6316 16.4405 2.59827 14.136 2.341V0H11.864V2.341C9.55947 2.59827 7.41094 3.6316 5.77127 5.27127C4.1316 6.91094 3.09827 9.05947 2.841 11.364H0.5V13.637H2.841C3.09827 15.9415 4.1316 18.0901 5.77127 19.7297C7.41094 21.3694 9.55947 22.4027 11.864 22.66V25H14.137V22.659C16.4415 22.4017 18.5901 21.3684 20.2297 19.7287C21.8694 18.0891 22.9027 15.9405 23.16 13.636H25.5V11.364H23.159ZM13 20.455C11.4266 20.455 9.88863 19.9884 8.58044 19.1143C7.27225 18.2402 6.25263 16.9978 5.65054 15.5442C5.04844 14.0907 4.89091 12.4912 5.19785 10.9481C5.5048 9.40494 6.26244 7.98749 7.37497 6.87497C8.48749 5.76244 9.90494 5.0048 11.4481 4.69785C12.9912 4.39091 14.5907 4.54844 16.0442 5.15054C17.4978 5.75263 18.7402 6.77225 19.6143 8.08044C20.4884 9.38863 20.955 10.9266 20.955 12.5C20.9558 13.5449 20.7506 14.5797 20.3511 15.5452C19.9516 16.5107 19.3656 17.3879 18.6268 18.1268C17.8879 18.8656 17.0107 19.4516 16.0452 19.8511C15.0797 20.2506 14.0449 20.4558 13 20.455Z" fill="#2A60E4"/>
</svg>
