<svg width="38" height="38" viewBox="0 0 38 38" fill="none" xmlns="http://www.w3.org/2000/svg">
<path d="M37 19C37 22.5601 35.9443 26.0402 33.9665 29.0003C31.9886 31.9603 29.1774 34.2675 25.8883 35.6298C22.5992 36.9922 18.98 37.3487 15.4884 36.6541C11.9967 35.9596 8.78943 34.2453 6.27209 31.7279C3.75474 29.2106 2.04041 26.0033 1.34587 22.5116C0.651339 19.02 1.0078 15.4008 2.37018 12.1117C3.73255 8.82263 6.03966 6.01141 8.99974 4.03355C11.9598 2.05568 15.4399 1 19 1C23.7739 1 28.3523 2.89642 31.7279 6.27208C35.1036 9.64773 37 14.2261 37 19Z" stroke="#121212" stroke-miterlimit="10"/>
<path d="M6.578 6.57788L31.968 31.9679" stroke="#121212" stroke-miterlimit="10"/>
</svg>
