<svg width="22" height="17" viewBox="0 0 22 17" fill="none" xmlns="http://www.w3.org/2000/svg">
<path d="M3.29995 1H19.452C19.962 1 20.4511 1.2026 20.8117 1.56323C21.1724 1.92387 21.375 2.41299 21.375 2.923V14.462C21.375 14.972 21.1724 15.4611 20.8117 15.8218C20.4511 16.1824 19.962 16.385 19.452 16.385H3.29995C2.78994 16.385 2.30082 16.1824 1.94019 15.8218C1.57955 15.4611 1.37695 14.972 1.37695 14.462V2.923C1.37695 2.41299 1.57955 1.92387 1.94019 1.56323C2.30082 1.2026 2.78994 1 3.29995 1Z" stroke="#121212" stroke-linecap="round" stroke-linejoin="round"/>
<path d="M4.62793 4.31104L11.3749 9.18003L18.1219 4.31104" stroke="#121212" stroke-linecap="round" stroke-linejoin="round"/>
</svg>
