<svg width="44" height="10" viewBox="0 0 44 10" fill="none" xmlns="http://www.w3.org/2000/svg">
<path d="M4.85799 9.21599C5.70228 9.21599 6.5276 8.96567 7.22961 8.49663C7.93163 8.02759 8.4788 7.36092 8.80194 6.58092C9.12508 5.80092 9.20968 4.94257 9.04504 4.11449C8.8804 3.28641 8.47391 2.52577 7.87698 1.9287C7.28005 1.33163 6.51948 0.924955 5.69144 0.760122C4.86341 0.595289 4.00508 0.679718 3.22501 1.00268C2.44493 1.32563 1.77814 1.87261 1.30893 2.57451C0.839729 3.27642 0.589187 4.10169 0.588989 4.94597C0.588858 5.50667 0.699184 6.06189 0.913662 6.57995C1.12814 7.098 1.44257 7.56874 1.839 7.96526C2.23542 8.36178 2.70608 8.67632 3.22408 8.89092C3.74209 9.10552 4.29729 9.21599 4.85799 9.21599Z" fill="#222222"/>
<path d="M21.936 9.21599C22.7803 9.21599 23.6056 8.96567 24.3076 8.49663C25.0096 8.02759 25.5568 7.36092 25.8799 6.58092C26.2031 5.80092 26.2877 4.94257 26.123 4.11449C25.9584 3.28641 25.5519 2.52577 24.955 1.9287C24.3581 1.33163 23.5975 0.924955 22.7694 0.760122C21.9414 0.595289 21.0831 0.679718 20.303 1.00268C19.5229 1.32563 18.8561 1.87261 18.3869 2.57451C17.9177 3.27642 17.6672 4.10169 17.667 4.94597C17.6669 5.50667 17.7772 6.06189 17.9917 6.57995C18.2061 7.098 18.5206 7.56874 18.917 7.96526C19.3134 8.36178 19.7841 8.67632 20.3021 8.89092C20.8201 9.10552 21.3753 9.21599 21.936 9.21599Z" fill="#222222"/>
<path d="M39.014 9.21599C39.8583 9.21599 40.6836 8.96567 41.3856 8.49663C42.0876 8.02759 42.6348 7.36092 42.9579 6.58092C43.2811 5.80092 43.3657 4.94257 43.201 4.11449C43.0364 3.28641 42.6299 2.52577 42.033 1.9287C41.4361 1.33163 40.6755 0.924955 39.8475 0.760122C39.0194 0.595289 38.1611 0.679718 37.381 1.00268C36.6009 1.32563 35.9341 1.87261 35.4649 2.57451C34.9957 3.27642 34.7452 4.10169 34.745 4.94597C34.7449 5.50667 34.8552 6.06189 35.0697 6.57995C35.2841 7.098 35.5986 7.56874 35.995 7.96526C36.3914 8.36178 36.8621 8.67632 37.3801 8.89092C37.8981 9.10552 38.4533 9.21599 39.014 9.21599Z" fill="#222222"/>
</svg>
