<svg width="35" height="34" viewBox="0 0 35 34" fill="none" xmlns="http://www.w3.org/2000/svg">
<path d="M17.5 33.8561C18.4089 33.8534 19.2798 33.4912 19.9225 32.8485C20.5651 32.2058 20.9274 31.3349 20.93 30.4261H14.07C14.0726 31.3349 14.4349 32.2058 15.0775 32.8485C15.7202 33.4912 16.5911 33.8534 17.5 33.8561ZM27.791 23.5561V14.9851C27.791 9.72007 24.991 5.31206 20.073 4.14506V2.97906C20.0597 2.30558 19.7828 1.66416 19.3019 1.19256C18.8209 0.720954 18.1741 0.456787 17.5005 0.456787C16.8269 0.456787 16.1801 0.720954 15.6991 1.19256C15.2181 1.66416 14.9413 2.30558 14.928 2.97906V4.14506C10.023 5.31106 7.20999 9.70207 7.20999 14.9851V23.5561L3.77999 26.9861V28.7061H31.221V26.9911L27.791 23.5561ZM24.361 25.2711H10.639V14.9851C10.639 10.7311 13.229 7.26707 17.5 7.26707C21.771 7.26707 24.361 10.7321 24.361 14.9851V25.2711ZM9.91899 3.11606L7.46599 0.663065C5.37106 2.25005 3.65174 4.27935 2.43044 6.60651C1.20913 8.93367 0.515863 11.5015 0.399994 14.1271H3.82999C3.95152 11.952 4.56214 9.83227 5.61638 7.92584C6.67062 6.01941 8.14133 4.37535 9.91899 3.11606ZM31.17 14.1271H34.6C34.4767 11.503 33.7802 8.93784 32.5595 6.61179C31.3388 4.28573 29.6234 2.25525 27.534 0.663065L25.098 3.11606C26.8681 4.38154 28.3322 6.02741 29.383 7.93282C30.4337 9.83823 31.0443 11.9548 31.17 14.1271Z" fill="black"/>
</svg>
