<svg width="653" height="546" viewBox="0 0 653 546" fill="none" xmlns="http://www.w3.org/2000/svg">
<path opacity="0.5" d="M125.937 36.736C125.31 36.4627 124.805 35.9683 124.518 35.3469C124.232 34.7256 124.184 34.0205 124.383 33.366C124.415 33.2657 124.436 33.162 124.444 33.057C124.461 32.7576 124.382 32.4608 124.217 32.21C124.053 31.9593 123.812 31.7679 123.531 31.6642C123.25 31.5604 122.943 31.5496 122.655 31.6335C122.367 31.7173 122.114 31.8914 121.932 32.13C121.87 32.2152 121.818 32.3075 121.777 32.405C121.504 33.0323 121.009 33.5373 120.388 33.8238C119.767 34.1103 119.062 34.1585 118.407 33.959C118.307 33.9266 118.203 33.9061 118.098 33.898C117.799 33.881 117.502 33.9605 117.251 34.1249C117 34.2892 116.809 34.5298 116.705 34.811C116.601 35.0923 116.591 35.3995 116.675 35.6873C116.758 35.9751 116.932 36.2285 117.171 36.41C117.256 36.4723 117.349 36.5243 117.446 36.565C118.073 36.8382 118.578 37.3326 118.865 37.954C119.151 38.5754 119.2 39.2804 119 39.935C118.968 40.0352 118.947 40.1389 118.939 40.244C118.922 40.5433 119.002 40.8402 119.166 41.0909C119.33 41.3416 119.571 41.533 119.852 41.6368C120.133 41.7406 120.441 41.7513 120.728 41.6675C121.016 41.5836 121.27 41.4096 121.451 41.171C121.513 41.0857 121.565 40.9934 121.606 40.896C121.879 40.2686 122.374 39.7637 122.995 39.4771C123.616 39.1906 124.321 39.1425 124.976 39.342C125.076 39.3744 125.18 39.3948 125.285 39.403C125.584 39.42 125.881 39.3404 126.132 39.1761C126.383 39.0117 126.574 38.7712 126.678 38.4899C126.782 38.2086 126.792 37.9015 126.709 37.6136C126.625 37.3258 126.451 37.0725 126.212 36.891C126.127 36.8286 126.035 36.7766 125.937 36.736Z" fill="#4D8AF0"/>
<path opacity="0.5" d="M15.136 283.383C14.5087 283.11 14.0037 282.615 13.7172 281.994C13.4306 281.373 13.3825 280.668 13.582 280.013C13.6145 279.913 13.6349 279.809 13.643 279.704C13.66 279.405 13.5805 279.108 13.4161 278.857C13.2517 278.606 13.0112 278.415 12.73 278.311C12.4487 278.207 12.1415 278.197 11.8537 278.28C11.5659 278.364 11.3125 278.538 11.131 278.777C11.0687 278.862 11.0167 278.955 10.976 279.052C10.7027 279.679 10.2084 280.184 9.587 280.471C8.96561 280.757 8.26057 280.806 7.60603 280.606C7.50577 280.574 7.40206 280.553 7.29702 280.545C6.9977 280.528 6.70082 280.608 6.45008 280.772C6.19935 280.936 6.00801 281.177 5.90421 281.458C5.80042 281.739 5.78964 282.047 5.8735 282.334C5.95735 282.622 6.1314 282.875 6.37002 283.057C6.45524 283.119 6.54755 283.171 6.64501 283.212C7.27234 283.485 7.77733 283.98 8.06387 284.601C8.3504 285.222 8.3985 285.927 8.19901 286.582C8.1666 286.682 8.14614 286.786 8.13802 286.891C8.12102 287.19 8.20055 287.487 8.36492 287.738C8.52929 287.989 8.76981 288.18 9.05108 288.284C9.33235 288.388 9.6395 288.398 9.92735 288.315C10.2152 288.231 10.4685 288.057 10.65 287.818C10.7123 287.733 10.7643 287.64 10.805 287.543C11.0783 286.916 11.5727 286.411 12.1941 286.124C12.8154 285.838 13.5205 285.79 14.175 285.989C14.2753 286.021 14.379 286.042 14.484 286.05C14.7833 286.067 15.0802 285.987 15.331 285.823C15.5817 285.659 15.773 285.418 15.8768 285.137C15.9806 284.856 15.9914 284.549 15.9075 284.261C15.8237 283.973 15.6496 283.72 15.411 283.538C15.3257 283.476 15.2335 283.424 15.136 283.383Z" fill="#4D8AF0"/>
<path opacity="0.5" d="M568.466 197.658C570.981 197.658 573.019 195.62 573.019 193.105C573.019 190.59 570.981 188.552 568.466 188.552C565.952 188.552 563.913 190.59 563.913 193.105C563.913 195.62 565.952 197.658 568.466 197.658Z" fill="#F55F44"/>
<path opacity="0.5" d="M92.628 523.231C95.1425 523.231 97.181 521.193 97.181 518.678C97.181 516.163 95.1425 514.125 92.628 514.125C90.1134 514.125 88.075 516.163 88.075 518.678C88.075 521.193 90.1134 523.231 92.628 523.231Z" fill="#F55F44"/>
<path opacity="0.5" d="M645.875 372.967C648.39 372.967 650.428 370.929 650.428 368.414C650.428 365.899 648.39 363.861 645.875 363.861C643.36 363.861 641.322 365.899 641.322 368.414C641.322 370.929 643.36 372.967 645.875 372.967Z" fill="#F55F44"/>
<path opacity="0.5" d="M534.991 58.745C534.364 58.4717 533.859 57.9773 533.572 57.3559C533.286 56.7346 533.237 56.0295 533.437 55.375C533.469 55.2747 533.49 55.171 533.498 55.066C533.515 54.7666 533.435 54.4698 533.271 54.219C533.107 53.9683 532.866 53.777 532.585 53.6732C532.304 53.5694 531.997 53.5586 531.709 53.6425C531.421 53.7263 531.168 53.9003 530.986 54.139C530.924 54.2242 530.872 54.3165 530.831 54.414C530.558 55.0413 530.063 55.5463 529.442 55.8328C528.821 56.1193 528.116 56.1675 527.461 55.968C527.361 55.9355 527.257 55.9151 527.152 55.907C526.853 55.89 526.556 55.9695 526.305 56.1339C526.054 56.2982 525.863 56.5388 525.759 56.82C525.655 57.1013 525.645 57.4084 525.728 57.6963C525.812 57.9841 525.986 58.2375 526.225 58.419C526.31 58.4813 526.403 58.5333 526.5 58.574C527.127 58.8473 527.632 59.3416 527.919 59.963C528.205 60.5844 528.253 61.2894 528.054 61.944C528.022 62.0442 528.001 62.1479 527.993 62.253C527.976 62.5523 528.056 62.8492 528.22 63.0999C528.384 63.3506 528.625 63.542 528.906 63.6458C529.187 63.7496 529.494 63.7603 529.782 63.6765C530.07 63.5926 530.324 63.4186 530.505 63.18C530.567 63.0948 530.619 63.0025 530.66 62.905C530.933 62.2776 531.428 61.7727 532.049 61.4861C532.67 61.1996 533.375 61.1515 534.03 61.351C534.13 61.3834 534.234 61.4038 534.339 61.412C534.638 61.429 534.935 61.3494 535.186 61.1851C535.437 61.0207 535.628 60.7802 535.732 60.4989C535.836 60.2176 535.846 59.9105 535.763 59.6226C535.679 59.3348 535.505 59.0815 535.266 58.9C535.181 58.8376 535.088 58.7856 534.991 58.745Z" fill="#4D8AF0"/>
<path opacity="0.5" d="M610.882 535.342C610.255 535.069 609.75 534.574 609.463 533.953C609.177 533.332 609.129 532.627 609.328 531.972C609.361 531.872 609.381 531.768 609.389 531.663C609.406 531.364 609.327 531.067 609.162 530.816C608.998 530.565 608.757 530.374 608.476 530.27C608.195 530.166 607.888 530.156 607.6 530.239C607.312 530.323 607.059 530.497 606.877 530.736C606.815 530.821 606.763 530.913 606.722 531.01C606.449 531.637 605.954 532.142 605.333 532.429C604.712 532.715 604.007 532.763 603.352 532.564C603.252 532.532 603.148 532.511 603.043 532.503C602.744 532.486 602.447 532.566 602.196 532.73C601.945 532.894 601.754 533.135 601.65 533.416C601.547 533.697 601.536 534.004 601.62 534.292C601.703 534.58 601.878 534.833 602.116 535.015C602.201 535.077 602.293 535.129 602.39 535.17C603.018 535.443 603.523 535.937 603.809 536.559C604.096 537.18 604.144 537.885 603.944 538.54C603.912 538.64 603.891 538.744 603.883 538.849C603.866 539.148 603.946 539.445 604.11 539.696C604.274 539.947 604.515 540.138 604.796 540.242C605.077 540.346 605.385 540.356 605.672 540.272C605.96 540.189 606.214 540.015 606.395 539.776C606.457 539.691 606.51 539.598 606.55 539.501C606.823 538.874 607.318 538.369 607.939 538.082C608.561 537.796 609.266 537.748 609.92 537.947C610.02 537.979 610.124 537.999 610.229 538.007C610.528 538.024 610.825 537.944 611.076 537.78C611.327 537.616 611.518 537.375 611.622 537.094C611.726 536.813 611.736 536.506 611.653 536.218C611.569 535.93 611.395 535.677 611.156 535.495C611.071 535.433 610.979 535.381 610.881 535.34L610.882 535.342Z" fill="#4D8AF0"/>
<path opacity="0.5" d="M9.82401 139.19C9.19668 138.917 8.6917 138.422 8.40516 137.801C8.11862 137.18 8.07053 136.475 8.27001 135.82C8.3024 135.72 8.32287 135.616 8.331 135.511C8.348 135.212 8.26847 134.915 8.1041 134.664C7.93974 134.413 7.69921 134.222 7.41795 134.118C7.13668 134.014 6.82952 134.004 6.54168 134.087C6.25384 134.171 6.00052 134.345 5.81901 134.584C5.7567 134.669 5.70468 134.762 5.66401 134.859C5.39073 135.486 4.89637 135.991 4.27499 136.278C3.6536 136.564 2.94856 136.612 2.29401 136.413C2.19377 136.381 2.09005 136.36 1.98501 136.352C1.68568 136.335 1.3888 136.415 1.13807 136.579C0.887336 136.743 0.695998 136.984 0.592202 137.265C0.488407 137.546 0.477631 137.853 0.561486 138.141C0.645342 138.429 0.819392 138.682 1.05801 138.864C1.14326 138.926 1.23556 138.978 1.333 139.019C1.96033 139.292 2.46532 139.787 2.75185 140.408C3.03839 141.029 3.08649 141.734 2.887 142.389C2.85457 142.489 2.83411 142.593 2.82601 142.698C2.80901 142.997 2.88854 143.294 3.05291 143.545C3.21728 143.796 3.4578 143.987 3.73907 144.091C4.02033 144.195 4.32749 144.205 4.61533 144.121C4.90318 144.038 5.15649 143.864 5.33801 143.625C5.40032 143.54 5.45235 143.447 5.493 143.35C5.76628 142.723 6.26066 142.218 6.88204 141.931C7.50343 141.645 8.20847 141.596 8.86302 141.796C8.96325 141.828 9.06696 141.849 9.17201 141.857C9.47133 141.874 9.76821 141.794 10.0189 141.63C10.2697 141.466 10.461 141.225 10.5648 140.944C10.6686 140.663 10.6794 140.355 10.5955 140.068C10.5117 139.78 10.3376 139.526 10.099 139.345C10.0138 139.283 9.92146 139.231 9.82401 139.19Z" fill="#4D8AF0"/>
<path opacity="0.5" d="M60.7539 220.426C63.2685 220.426 65.3069 218.388 65.3069 215.873C65.3069 213.358 63.2685 211.32 60.7539 211.32C58.2394 211.32 56.2009 213.358 56.2009 215.873C56.2009 218.388 58.2394 220.426 60.7539 220.426Z" fill="#47E6B1"/>
<path opacity="0.5" d="M648.151 256.853C650.666 256.853 652.704 254.815 652.704 252.3C652.704 249.785 650.666 247.747 648.151 247.747C645.637 247.747 643.598 249.785 643.598 252.3C643.598 254.815 645.637 256.853 648.151 256.853Z" fill="#47E6B1"/>
<g opacity="0.5">
<path d="M445.522 0.34198H443.245V13.244H445.522V0.34198Z" fill="#47E6B1"/>
<path d="M450.835 7.93197V5.65497L437.933 5.65497V7.93197L450.835 7.93197Z" fill="#47E6B1"/>
</g>
<g opacity="0.5">
<path d="M453.871 505.777H451.594V518.679H453.871V505.777Z" fill="#47E6B1"/>
<path d="M459.184 513.367V511.09H446.282V513.367H459.184Z" fill="#47E6B1"/>
</g>
<g opacity="0.5">
<path d="M22.808 533.098H20.531V546H22.808V533.098Z" fill="#47E6B1"/>
<path d="M28.1211 540.688V538.411H15.2191V540.688H28.1211Z" fill="#47E6B1"/>
</g>
<g opacity="0.5">
<path d="M541.145 300.871H538.868V313.773H541.145V300.871Z" fill="#47E6B1"/>
<path d="M546.458 308.461V306.184H533.556V308.461H546.458Z" fill="#47E6B1"/>
</g>
<path opacity="0.5" d="M604.292 93.701L609.182 98.183L616.109 87.995L618.554 90.033L609.181 102.258L602.254 94.516L604.292 93.701Z" fill="#47E6B1"/>
</svg>
