<svg width="362" height="46" viewBox="0 0 362 46" fill="none" xmlns="http://www.w3.org/2000/svg">
<path d="M172.446 20.551C172.446 20.551 173.305 24.238 173.497 25.011H169.722C170.095 24.129 171.531 20.7 171.531 20.7C171.508 20.73 171.904 19.8 172.131 19.223L172.446 20.551ZM184.419 5.55803V40.441C184.419 43.067 181.988 45.198 178.992 45.198H124.727C121.727 45.198 119.3 43.067 119.3 40.441V5.55803C119.3 2.93203 121.731 0.801025 124.727 0.801025H178.992C181.988 0.801025 184.419 2.93203 184.419 5.55803ZM136.541 30.451L143.686 15.071H138.886L134.443 25.571L133.957 23.44L132.374 16.364C132.114 15.383 131.311 15.105 130.316 15.064H123L122.921 15.371C124.578 15.7257 126.182 16.2955 127.692 17.066L131.736 30.451H136.541ZM147.213 30.471L150.062 15.071H145.517L142.679 30.471H147.213ZM163.029 25.437C163.052 23.683 161.829 22.345 159.219 21.245C157.625 20.545 156.653 20.066 156.653 19.345C156.676 18.691 157.478 18.017 159.265 18.017C160.419 17.9867 161.568 18.1856 162.645 18.602L163.052 18.77L163.674 15.44C162.362 15.0018 160.987 14.7809 159.604 14.786C155.116 14.786 151.962 16.886 151.939 19.88C151.905 22.09 154.2 23.319 155.918 24.062C157.67 24.815 158.27 25.311 158.27 25.975C158.247 27.006 156.846 27.481 155.545 27.481C154.082 27.5179 152.628 27.2371 151.283 26.658L150.683 26.41L150.05 29.869C151.681 30.4211 153.393 30.6992 155.115 30.692C159.886 30.699 163 28.628 163.029 25.437ZM178.992 30.471L175.329 15.071H171.813C171.333 15.0043 170.844 15.0924 170.417 15.3226C169.99 15.5527 169.647 15.913 169.439 16.351L162.69 30.472H167.461C167.461 30.472 168.241 28.572 168.411 28.163H174.245C174.381 28.708 174.788 30.472 174.788 30.472L178.992 30.471Z" fill="#2A60E4"/>
<path d="M262.526 38.19C262.549 38.4452 262.494 38.7012 262.368 38.9245C262.243 39.1479 262.053 39.3281 261.823 39.4415C261.593 39.555 261.335 39.5964 261.081 39.5603C260.828 39.5243 260.591 39.4125 260.402 39.2395C260.213 39.0665 260.081 38.8405 260.022 38.591C259.964 38.3416 259.983 38.0804 260.075 37.8416C260.168 37.6028 260.331 37.3977 260.542 37.253C260.754 37.1084 261.004 37.031 261.26 37.031C261.42 37.02 261.581 37.0416 261.732 37.0946C261.884 37.1476 262.023 37.2308 262.142 37.3392C262.26 37.4476 262.355 37.5789 262.421 37.7251C262.487 37.8714 262.523 38.0295 262.526 38.19ZM227.39 37.03C227.229 37.0158 227.067 37.0353 226.914 37.0871C226.761 37.1389 226.621 37.222 226.502 37.331C226.383 37.4401 226.288 37.5727 226.223 37.7205C226.157 37.8683 226.124 38.028 226.124 38.1895C226.124 38.351 226.157 38.5107 226.223 38.6585C226.288 38.8063 226.383 38.9389 226.502 39.048C226.621 39.157 226.761 39.2401 226.914 39.2919C227.067 39.3438 227.229 39.3632 227.39 39.349C227.549 39.3611 227.708 39.34 227.858 39.287C228.008 39.234 228.146 39.1503 228.261 39.0412C228.377 38.9322 228.469 38.8001 228.531 38.6536C228.593 38.507 228.624 38.3491 228.621 38.19C228.62 38.0319 228.587 37.8756 228.524 37.7306C228.461 37.5857 228.369 37.455 228.254 37.3466C228.139 37.2381 228.003 37.1542 227.854 37.0998C227.706 37.0453 227.548 37.0216 227.39 37.03ZM240.674 37.001C240.419 36.9797 240.165 37.0573 239.965 37.2177C239.765 37.3781 239.635 37.6091 239.6 37.863H241.759C241.724 37.6072 241.592 37.3747 241.39 37.2142C241.188 37.0538 240.931 36.9767 240.674 37.001ZM252.861 37.03C252.702 37.0196 252.543 37.0418 252.394 37.0954C252.244 37.1489 252.107 37.2326 251.991 37.3413C251.875 37.45 251.782 37.5814 251.719 37.7273C251.656 37.8732 251.623 38.0305 251.623 38.1895C251.623 38.3485 251.656 38.5058 251.719 38.6517C251.782 38.7976 251.875 38.929 251.991 39.0377C252.107 39.1464 252.244 39.2301 252.394 39.2836C252.543 39.3372 252.702 39.3594 252.861 39.349C253.022 39.3646 253.185 39.3461 253.338 39.2948C253.492 39.2435 253.633 39.1605 253.752 39.0513C253.871 38.942 253.966 38.8089 254.031 38.6605C254.096 38.5121 254.128 38.3518 254.127 38.19C254.126 38.0289 254.091 37.8698 254.026 37.7226C253.96 37.5754 253.865 37.4433 253.747 37.3345C253.628 37.2256 253.488 37.1424 253.336 37.09C253.183 37.0377 253.022 37.0172 252.861 37.03ZM264.834 39.617C264.834 39.647 264.869 39.667 264.869 39.726C264.869 39.756 264.834 39.776 264.834 39.835C264.799 39.865 264.799 39.885 264.777 39.913C264.762 39.9301 264.742 39.9435 264.721 39.9522C264.699 39.9608 264.676 39.9645 264.653 39.963C264.618 39.993 264.596 39.993 264.529 39.993C264.486 39.9943 264.443 39.9839 264.405 39.963C264.37 39.963 264.348 39.933 264.315 39.913C264.282 39.893 264.258 39.863 264.258 39.835C264.233 39.8042 264.221 39.7654 264.223 39.726C264.223 39.676 264.223 39.648 264.258 39.617C264.264 39.5751 264.284 39.5365 264.315 39.508C264.343 39.4877 264.373 39.4709 264.405 39.458C264.443 39.4362 264.486 39.4258 264.529 39.428C264.551 39.4243 264.573 39.4251 264.594 39.4303C264.615 39.4354 264.636 39.4449 264.653 39.458C264.71 39.487 264.743 39.487 264.777 39.508C264.811 39.529 264.797 39.567 264.834 39.617ZM264.586 39.756C264.643 39.756 264.643 39.726 264.676 39.726C264.688 39.7173 264.698 39.7055 264.704 39.6918C264.71 39.6781 264.713 39.6629 264.711 39.648C264.713 39.633 264.711 39.6178 264.705 39.6041C264.698 39.5903 264.689 39.5785 264.676 39.57C264.643 39.57 264.619 39.54 264.552 39.54H264.371V39.886H264.461V39.747H264.496L264.62 39.886H264.71L264.586 39.756ZM273.053 5.556V40.439C273.053 43.066 270.623 45.195 267.626 45.196H213.36C210.36 45.196 207.934 43.066 207.933 40.439V5.559C207.933 2.932 210.363 0.803002 213.36 0.802002H267.623C270.62 0.802002 273.049 2.932 273.05 5.559L273.053 5.556ZM215.171 19.391C215.171 26.972 222.191 33.115 230.827 33.115C233.86 33.1187 236.841 32.3297 239.475 30.826C231.234 24.95 231.291 13.861 239.475 7.984C236.843 6.47573 233.861 5.68632 230.827 5.695C222.191 5.687 215.171 11.839 215.171 19.391ZM240.493 30.174C248.464 24.723 248.429 14.101 240.493 8.621C232.557 14.101 232.522 24.734 240.493 30.174ZM224.405 37.739C224.405 36.877 223.76 36.312 222.743 36.282C222.468 36.2638 222.192 36.313 221.94 36.4252C221.688 36.5374 221.467 36.7093 221.296 36.926C221.14 36.7095 220.932 36.5365 220.69 36.4238C220.449 36.311 220.182 36.2622 219.916 36.282C219.689 36.2751 219.463 36.3196 219.255 36.4122C219.047 36.5049 218.863 36.6432 218.716 36.817V36.382H217.792V40.019H218.718C218.718 38.146 218.435 37.026 219.735 37.026C220.889 37.026 220.663 38.037 220.663 40.019H221.556C221.556 38.205 221.273 37.026 222.573 37.026C223.727 37.026 223.499 38.018 223.499 40.019H224.427V37.739H224.405ZM229.482 36.382H228.589V36.817C228.419 36.639 228.213 36.4992 227.985 36.407C227.757 36.3148 227.512 36.2721 227.266 36.282C227.003 36.263 226.74 36.2983 226.491 36.3858C226.243 36.4733 226.015 36.611 225.822 36.7904C225.629 36.9698 225.475 37.187 225.37 37.4285C225.265 37.67 225.211 37.9306 225.211 38.194C225.211 38.4574 225.265 38.718 225.37 38.9595C225.475 39.201 225.629 39.4182 225.822 39.5976C226.015 39.777 226.243 39.9147 226.491 40.0022C226.74 40.0897 227.003 40.125 227.266 40.106C227.513 40.1206 227.759 40.0802 227.988 39.9876C228.217 39.8951 228.422 39.7528 228.589 39.571V40.028H229.482V36.382ZM234.06 38.918C234.06 37.432 231.472 38.105 231.472 37.411C231.472 36.846 232.817 36.937 233.564 37.302L233.934 36.654C232.872 36.054 230.52 36.06 230.52 37.467C230.52 38.874 233.108 38.289 233.108 38.953C233.108 39.577 231.582 39.527 230.768 39.031L230.373 39.655C231.639 40.408 234.058 40.249 234.058 38.911L234.06 38.918ZM238.06 39.838L237.812 39.164C237.383 39.371 236.432 39.599 236.432 38.757V37.109H237.913V36.376H236.434V35.266H235.506V36.375H234.647V37.099H235.506V38.754C235.506 40.498 237.462 40.181 238.062 39.833L238.06 39.838ZM239.56 38.511H242.674C242.674 36.906 241.838 36.271 240.706 36.271C240.443 36.2504 240.178 36.2846 239.929 36.3715C239.68 36.4583 239.451 36.596 239.258 36.7757C239.065 36.9554 238.911 37.1732 238.806 37.4155C238.701 37.6577 238.648 37.9191 238.649 38.183C238.649 40.215 241.205 40.552 242.47 39.59L242.041 38.996C241.16 39.631 239.825 39.57 239.565 38.511H239.56ZM246.242 36.381C245.948 36.2511 245.62 36.2234 245.309 36.3022C244.997 36.3811 244.721 36.562 244.525 36.816V36.381H243.597V40.018H244.534V37.963C244.534 36.813 245.608 36.963 245.981 37.13L246.242 36.381ZM247.442 38.193C247.442 37.062 248.754 36.693 249.782 37.36L250.211 36.716C248.899 35.816 246.511 36.309 246.511 38.202C246.511 40.164 249.042 40.56 250.211 39.688L249.782 39.044C248.742 39.688 247.442 39.303 247.442 38.191V38.193ZM254.981 36.381H254.053V36.816C253.779 36.536 253.429 36.3439 253.045 36.2642C252.662 36.1845 252.263 36.2209 251.901 36.3687C251.538 36.5165 251.228 36.7689 251.009 37.0939C250.791 37.4188 250.674 37.8015 250.674 38.193C250.674 38.5845 250.791 38.9672 251.009 39.2921C251.228 39.6171 251.538 39.8695 251.901 40.0173C252.263 40.1651 252.662 40.2015 253.045 40.1218C253.429 40.0421 253.779 39.85 254.053 39.57V40.027H254.981V36.381ZM258.79 36.381C258.495 36.2582 258.169 36.2341 257.859 36.3126C257.55 36.391 257.274 36.5676 257.073 36.816V36.381H256.18V40.018H257.073V37.963C257.073 36.873 258.09 36.943 258.52 37.13L258.79 36.381ZM263.346 34.904H262.453V36.816C262.179 36.536 261.829 36.3439 261.445 36.2642C261.062 36.1845 260.663 36.2209 260.301 36.3687C259.938 36.5165 259.628 36.7689 259.409 37.0939C259.191 37.4188 259.074 37.8015 259.074 38.193C259.074 38.5845 259.191 38.9672 259.409 39.2921C259.628 39.6171 259.938 39.8695 260.301 40.0173C260.663 40.1651 261.062 40.2015 261.445 40.1218C261.829 40.0421 262.179 39.85 262.453 39.57V40.027H263.346V34.904ZM264.207 27.462V27.919H264.297V27.459H264.511V27.381H263.99V27.459L264.207 27.462ZM264.952 39.729C264.957 39.6739 264.946 39.6186 264.919 39.57C264.884 39.54 264.862 39.492 264.829 39.461C264.796 39.43 264.739 39.411 264.705 39.383C264.648 39.383 264.581 39.353 264.524 39.353C264.472 39.3663 264.419 39.3763 264.365 39.383C264.321 39.4045 264.28 39.4306 264.241 39.461C264.218 39.4704 264.198 39.4853 264.183 39.5043C264.167 39.5233 264.156 39.5459 264.151 39.57C264.123 39.618 264.111 39.6736 264.116 39.729C264.114 39.7777 264.126 39.8259 264.151 39.868C264.157 39.8919 264.168 39.9141 264.183 39.9331C264.199 39.952 264.219 39.967 264.241 39.977C264.318 40.0483 264.419 40.0868 264.524 40.084C264.586 40.0885 264.648 40.0786 264.705 40.055C264.74 40.025 264.795 40.005 264.829 39.977C264.863 39.949 264.886 39.899 264.919 39.868C264.945 39.8251 264.957 39.7759 264.956 39.726L264.952 39.729ZM265.314 27.373H265.155L264.974 27.719L264.793 27.373H264.634V27.908H264.724V27.501L264.905 27.847H265.034L265.193 27.501V27.908H265.317L265.314 27.373ZM265.814 19.394C265.814 11.842 258.794 5.694 250.158 5.694C247.125 5.68957 244.144 6.4787 241.51 7.983C249.662 13.86 249.786 24.983 241.51 30.825C244.143 32.3306 247.125 33.1198 250.158 33.114C258.794 33.125 265.814 26.98 265.814 19.399V19.394Z" fill="#2A60E4"/>
<path d="M317.628 23.216C317.606 23.5199 317.525 23.8165 317.388 24.0886C317.251 24.3607 317.061 24.6028 316.83 24.801C316.598 24.9992 316.33 25.1494 316.04 25.243C315.75 25.3365 315.445 25.3715 315.141 25.346C314.101 25.346 313.332 24.831 313.332 23.86C313.348 23.5553 313.425 23.2568 313.558 22.9819C313.69 22.707 313.876 22.461 314.104 22.2583C314.333 22.0556 314.599 21.9002 314.887 21.8009C315.176 21.7016 315.481 21.6605 315.786 21.68C316.838 21.68 317.63 22.245 317.63 23.216H317.628ZM305.666 18.411H305.136C305.054 18.4051 304.972 18.4289 304.905 18.4781C304.839 18.5272 304.792 18.5985 304.774 18.679L304.288 21.326L305.216 21.296C306.459 21.296 307.416 21.148 307.646 19.889C307.906 18.56 306.946 18.412 305.668 18.412L305.666 18.411ZM337.772 18.411H337.266C337.183 18.3998 337.098 18.4215 337.031 18.4715C336.963 18.5216 336.918 18.596 336.904 18.679L336.43 21.326L337.33 21.296C338.799 21.296 339.817 20.996 339.817 19.512C339.805 18.461 338.732 18.412 337.77 18.412L337.772 18.411ZM361.682 5.55803V40.44C361.682 43.067 359.252 45.196 356.255 45.197H301.992C298.992 45.197 296.566 43.067 296.565 40.44V5.55803C296.566 2.93103 298.995 0.801025 301.992 0.801025H356.255C359.252 0.801025 361.681 2.93103 361.682 5.55803ZM311.071 18.975C311.071 16.893 309.24 16.2 307.148 16.2H302.627C302.489 16.194 302.354 16.2378 302.246 16.3234C302.138 16.409 302.065 16.5306 302.039 16.666L300.185 26.782C300.178 26.8329 300.183 26.8845 300.198 26.9334C300.214 26.9824 300.239 27.0274 300.274 27.0654C300.308 27.1034 300.35 27.1335 300.398 27.1536C300.445 27.1738 300.496 27.1835 300.547 27.182H302.696C302.848 27.1712 302.992 27.1096 303.105 27.0072C303.218 26.9047 303.293 26.7674 303.319 26.617L303.828 23.981C303.942 23.268 305.32 23.515 305.863 23.515C309.096 23.515 311.074 21.831 311.074 18.977L311.071 18.975ZM320.59 19.847H318.442C318.013 19.847 317.99 20.393 317.968 20.66C317.634 20.2907 317.216 20.0076 316.75 19.8349C316.283 19.6621 315.782 19.6049 315.288 19.668C314.049 19.626 312.844 20.0717 311.93 20.9093C311.017 21.7469 310.469 22.9095 310.404 24.147C310.404 26.079 311.784 27.338 313.987 27.338C315.095 27.3109 316.157 26.8934 316.987 26.159C316.921 26.358 316.883 26.5648 316.873 26.774C316.865 26.8251 316.869 26.8772 316.884 26.9267C316.899 26.9762 316.924 27.0217 316.959 27.06C316.994 27.0983 317.036 27.1284 317.084 27.1481C317.132 27.1678 317.183 27.1767 317.235 27.174H319.176C319.327 27.1601 319.469 27.0974 319.582 26.9955C319.694 26.8936 319.77 26.758 319.799 26.609L320.953 20.238C320.958 20.1881 320.952 20.1378 320.936 20.0903C320.92 20.0428 320.894 19.9993 320.859 19.9627C320.825 19.9261 320.783 19.8972 320.737 19.8779C320.691 19.8587 320.641 19.8495 320.591 19.851L320.59 19.847ZM325.168 29.547L332.368 20.37C332.391 20.349 332.408 20.3226 332.418 20.2933C332.428 20.2639 332.43 20.2326 332.425 20.202C332.418 20.11 332.377 20.0238 332.31 19.96C332.243 19.8962 332.155 19.8592 332.063 19.856H329.894C329.796 19.8578 329.7 19.8809 329.612 19.9237C329.524 19.9665 329.447 20.0281 329.385 20.104L326.385 23.969L325.142 20.254C325.087 20.1346 325 20.0334 324.889 19.9624C324.779 19.8915 324.65 19.8539 324.519 19.854H322.41C322.318 19.8572 322.23 19.8942 322.163 19.958C322.096 20.0218 322.055 20.108 322.048 20.2C322.048 20.32 324.248 25.829 324.448 26.354C323.596 27.3373 322.821 28.3843 322.13 29.486C322.137 29.5759 322.178 29.6595 322.246 29.719C322.314 29.7785 322.402 29.809 322.492 29.804H324.663C324.761 29.8 324.857 29.775 324.945 29.7307C325.033 29.6863 325.11 29.6237 325.172 29.547H325.168ZM343.177 18.975C343.177 16.893 341.346 16.2 339.254 16.2H334.766C334.624 16.1922 334.484 16.2347 334.37 16.3198C334.256 16.405 334.176 16.5276 334.143 16.666L332.311 26.773C332.307 26.8235 332.313 26.8743 332.329 26.9223C332.345 26.9703 332.371 27.0144 332.405 27.052C332.439 27.0895 332.48 27.1197 332.526 27.1405C332.572 27.1613 332.622 27.1724 332.673 27.173H334.991C335.09 27.1739 335.187 27.1438 335.268 27.0867C335.349 27.0297 335.41 26.9486 335.443 26.855L335.952 23.981C336.066 23.268 337.446 23.515 337.987 23.515C341.198 23.515 343.176 21.831 343.176 18.977L343.177 18.975ZM352.694 19.847H350.546C350.117 19.847 350.094 20.393 350.06 20.66C349.729 20.2868 349.312 20.001 348.844 19.828C348.377 19.6549 347.874 19.6 347.38 19.668C346.141 19.626 344.936 20.0717 344.022 20.9093C343.109 21.7469 342.561 22.9095 342.496 24.147C342.496 26.079 343.876 27.338 346.079 27.338C347.189 27.3236 348.256 26.9044 349.079 26.159C349.024 26.3606 348.986 26.5662 348.965 26.774C348.957 26.8251 348.961 26.8772 348.976 26.9267C348.991 26.9762 349.016 27.0217 349.051 27.06C349.086 27.0983 349.128 27.1284 349.176 27.1481C349.224 27.1678 349.275 27.1767 349.327 27.174H351.283C351.434 27.1601 351.576 27.0974 351.689 26.9955C351.801 26.8936 351.877 26.758 351.906 26.609L353.06 20.238C353.065 20.1881 353.059 20.1378 353.043 20.0903C353.027 20.0428 353.001 19.9993 352.966 19.9627C352.932 19.9261 352.89 19.8972 352.844 19.8779C352.798 19.8587 352.748 19.8495 352.698 19.851L352.694 19.847ZM358.064 16.547C358.063 16.5005 358.053 16.4547 358.034 16.4121C358.015 16.3696 357.988 16.3312 357.955 16.299C357.921 16.2669 357.881 16.2417 357.838 16.2249C357.795 16.2081 357.748 16.2 357.702 16.201H355.61C355.528 16.1989 355.448 16.2242 355.383 16.2727C355.317 16.3213 355.27 16.3904 355.248 16.469L353.417 26.775L353.384 26.825C353.392 26.9228 353.437 27.0138 353.511 27.0784C353.585 27.143 353.681 27.1763 353.779 27.171H355.645C355.792 27.1574 355.931 27.094 356.038 26.9914C356.145 26.8887 356.213 26.7529 356.233 26.606L358.066 16.577L358.064 16.547ZM347.89 21.681C347.585 21.6602 347.279 21.7003 346.99 21.7991C346.701 21.8978 346.434 22.0532 346.206 22.2562C345.977 22.4591 345.791 22.7056 345.659 22.9811C345.527 23.2567 345.451 23.5558 345.436 23.861C345.436 24.822 346.228 25.347 347.267 25.347C347.568 25.3707 347.872 25.3342 348.159 25.2395C348.446 25.1449 348.712 24.9941 348.94 24.7959C349.168 24.5977 349.355 24.356 349.489 24.0849C349.623 23.8139 349.702 23.5188 349.721 23.217C349.734 22.246 348.942 21.681 347.89 21.681Z" fill="#2A60E4"/>
<path d="M98.6861 11.8019C98.6081 12.1259 98.5331 12.4509 98.4501 12.7739C98.1095 14.2151 97.2661 15.4877 96.0714 16.3627C94.8766 17.2378 93.4089 17.6581 91.9321 17.5479C90.6935 17.5251 89.465 17.3202 88.2861 16.9399C87.83 16.8841 87.3676 16.9129 86.9221 17.0249C86.3161 17.0779 85.71 17.1799 85.105 17.1819C79.4117 17.1939 73.718 17.1962 68.024 17.1889H67.4021L67.808 14.5089H74.9581C74.9131 14.5629 74.9491 14.5399 74.9491 14.5169C74.9191 12.7669 74.9011 11.0169 74.8431 9.26791C74.8072 8.93189 74.7131 8.60466 74.5651 8.3009C74.3852 7.78704 74.044 7.34514 73.5923 7.04111C73.1407 6.73707 72.6029 6.5872 72.0591 6.61389C71.1101 6.61389 70.1591 6.61389 69.2121 6.61389H68.644C68.77 5.73289 68.876 4.9239 69.011 4.1189C69.0327 4.05852 69.0693 4.00461 69.1174 3.96213C69.1654 3.91965 69.2235 3.88999 69.2861 3.87592C70.8918 3.83187 72.4988 3.88497 74.0981 4.03491C75.2611 4.22959 76.3286 4.79868 77.1385 5.6557C77.9485 6.51272 78.4564 7.61077 78.5851 8.7829C78.7117 9.7217 78.7785 10.6676 78.7851 11.6149C78.8161 12.5279 78.7921 13.4429 78.7921 14.3919C78.9631 14.4049 79.1011 14.4239 79.2401 14.4239C81.2991 14.4239 83.3581 14.4129 85.4161 14.4359C85.4943 14.4499 85.5747 14.4463 85.6514 14.4253C85.728 14.4043 85.799 14.3665 85.8592 14.3145C85.9194 14.2626 85.9672 14.1979 85.9992 14.1251C86.0312 14.0523 86.0465 13.9733 86.0441 13.8939C86.0708 13.6381 86.0825 13.381 86.0791 13.1239C86.0791 11.4029 86.0791 9.68191 86.0791 7.96091C85.9919 7.10719 86.223 6.25133 86.7281 5.55759C87.2333 4.86384 87.9769 4.38107 88.8161 4.2019C89.5771 3.9649 90.3781 3.85789 91.1611 3.69189H92.8021C92.9227 3.73106 93.0455 3.76279 93.17 3.7869C94.4075 3.92057 95.5738 4.43238 96.51 5.25262C97.4462 6.07287 98.1069 7.16172 98.4021 8.37091C98.5111 8.77091 98.5951 9.1769 98.6901 9.5799L98.6861 11.8019ZM89.6061 7.40891C89.6461 7.90891 89.7061 8.33889 89.7061 8.76489C89.7181 10.3869 89.7261 12.0099 89.7001 13.6329C89.6941 14.0329 89.8361 14.1789 90.2001 14.2039C90.8401 14.2469 91.4791 14.3309 92.1201 14.3429C92.7291 14.4019 93.3385 14.2337 93.831 13.8706C94.3235 13.5075 94.6644 12.9752 94.7881 12.3759C95.1237 11.1775 95.1275 9.91034 94.7991 8.7099C94.7343 8.35065 94.5775 8.01434 94.3438 7.73389C94.1102 7.45343 93.8077 7.23842 93.4661 7.10989C92.1831 6.74372 90.8113 6.85019 89.6001 7.40991" fill="#2A60E4"/>
<path d="M66.055 3.92793L65.641 6.63792H65.064C62.6513 6.63792 60.2383 6.63792 57.825 6.63792C57.4873 6.63301 57.1497 6.6487 56.814 6.68492C56.6029 6.6896 56.3952 6.73851 56.2043 6.82847C56.0133 6.91844 55.8434 7.04745 55.7054 7.2072C55.5675 7.36694 55.4645 7.55384 55.4033 7.75584C55.3421 7.95785 55.3239 8.17046 55.35 8.37993C55.3435 8.59086 55.3801 8.8009 55.4576 8.99721C55.535 9.19351 55.6516 9.37198 55.8003 9.52171C55.949 9.67144 56.1267 9.7893 56.3225 9.86809C56.5182 9.94687 56.728 9.98492 56.939 9.97993C58.161 10.0139 59.384 9.97993 60.606 10.0049C61.152 10.0091 61.6964 10.0647 62.232 10.1709C63.1838 10.3475 64.0398 10.8621 64.6422 11.6199C65.2445 12.3778 65.5527 13.3278 65.51 14.2949C65.5067 14.8251 65.4433 15.3531 65.321 15.8689C65.1373 16.6015 64.7325 17.2597 64.1616 17.7541C63.5906 18.2484 62.8813 18.555 62.13 18.6319C61.3257 18.7885 60.5083 18.8679 59.689 18.8689C54.332 18.8799 48.975 18.8919 43.619 18.8399C42.874 18.8726 42.1301 18.7535 41.4326 18.4897C40.7351 18.226 40.0985 17.8232 39.5615 17.3057C39.0245 16.7883 38.5984 16.1671 38.309 15.4798C38.0196 14.7926 37.8729 14.0536 37.878 13.3079C37.6982 11.6741 37.7952 10.0216 38.165 8.41994C38.4714 7.17191 39.1922 6.06472 40.2093 5.27931C41.2265 4.49391 42.48 4.07673 43.765 4.09593C45.452 4.06593 47.139 4.08992 48.865 4.08992L48.465 6.84694C47.816 6.84694 47.177 6.84694 46.538 6.84694C45.899 6.84694 45.283 6.83591 44.656 6.86091C44.1356 6.85389 43.6256 7.00673 43.1948 7.29875C42.764 7.59077 42.4331 8.00795 42.247 8.49394C41.9972 9.08488 41.8533 9.71515 41.822 10.3559C41.7567 11.5239 41.7978 12.6954 41.945 13.8559C42.0088 14.4606 42.2945 15.0201 42.7468 15.4265C43.1991 15.8328 43.7859 16.0571 44.394 16.0559C45.965 16.1509 47.544 16.1249 49.12 16.1309C52.5786 16.1429 56.0373 16.1476 59.496 16.1449C59.7527 16.1511 60.0094 16.1337 60.263 16.0929C60.7253 16.0216 61.1432 15.7771 61.4319 15.4089C61.7205 15.0408 61.8583 14.5766 61.8172 14.1106C61.776 13.6446 61.5591 13.2117 61.2105 12.8997C60.8619 12.5878 60.4076 12.4202 59.94 12.4309C58.428 12.4049 56.914 12.4389 55.406 12.3609C54.6095 12.3612 53.8341 12.1055 53.1941 11.6314C52.5542 11.1572 52.0836 10.4899 51.852 9.72792C51.5704 8.91669 51.5385 8.03965 51.7607 7.21016C51.9828 6.38066 52.4486 5.63687 53.098 5.07493C54.111 4.31235 55.3471 3.905 56.615 3.91594C59.703 3.85994 62.792 3.88593 65.88 3.88093C65.9443 3.89023 66.0076 3.90562 66.069 3.92692" fill="#2A60E4"/>
<path d="M98.687 42.3049C97.487 42.0879 96.2871 41.8498 95.0871 41.6658C94.7369 41.6425 94.3853 41.6763 94.046 41.7659C92.6041 42.1135 91.1024 42.1326 89.6521 41.8218C88.8545 41.6606 88.1383 41.2261 87.6271 40.5931C87.1159 39.9601 86.8418 39.1684 86.8521 38.3548C86.7546 37.5351 86.963 36.7083 87.4375 36.0327C87.9119 35.3571 88.6189 34.8804 89.423 34.6938C90.497 34.4378 91.5917 34.2782 92.694 34.2168C93.44 34.1478 94.1941 34.2038 94.9431 34.2038C95.3041 32.6738 94.5991 31.7188 93.0791 31.6918C91.4207 31.7011 89.7769 32.0023 88.223 32.5818C88.074 32.6338 87.923 32.6768 87.723 32.7368L87.3231 30.0238C89.9231 29.1898 92.5091 28.4388 95.2641 28.9888C96.153 29.0955 96.9755 29.5134 97.5857 30.1685C98.196 30.8236 98.5546 31.6736 98.598 32.5679C98.6203 32.6929 98.649 32.8167 98.684 32.9388L98.687 42.3049ZM93.614 36.4169L93.6021 36.3578C92.9043 36.4158 92.2111 36.5196 91.5271 36.6688C91.2011 36.7743 90.9248 36.995 90.7498 37.2895C90.5747 37.584 90.513 37.9321 90.5761 38.2688C90.5774 38.5795 90.6947 38.8785 90.905 39.1072C91.1154 39.3358 91.4035 39.4776 91.713 39.5048C92.4418 39.5622 93.1749 39.5222 93.893 39.3858C95.088 39.1728 95.0881 39.1318 95.0761 37.9068C95.0761 37.4328 95.195 36.8068 94.947 36.5318C94.728 36.2898 94.075 36.4399 93.614 36.4169Z" fill="#2A60E4"/>
<path d="M56.4649 41.8828H52.6789V41.2898C52.6789 38.8765 52.6789 36.4634 52.6789 34.0508C52.6837 33.7934 52.6734 33.536 52.6479 33.2798C52.6266 32.9466 52.4864 32.6321 52.2528 32.3935C52.0192 32.1549 51.7077 32.0081 51.3749 31.9798C50.5584 31.8797 49.7305 32.0216 48.9939 32.3878C49.0189 33.4508 49.0569 34.4528 49.0629 35.4558C49.0739 37.4188 49.0629 39.3808 49.0629 41.3438V41.8868H45.2879V41.3318C45.2879 38.9188 45.265 36.5048 45.295 34.0928C45.318 32.2138 44.4759 31.7258 42.7169 32.0348C41.6619 32.2198 41.6669 32.2468 41.6669 33.3028V41.8708H37.825V41.2888C37.825 38.1675 37.825 35.0464 37.825 31.9258C37.825 30.3428 38.2249 29.8088 39.7609 29.3888C41.6266 28.8089 43.6028 28.6773 45.5289 29.0048C46.0592 29.128 46.5707 29.3214 47.0499 29.5798C47.1534 29.6454 47.2718 29.6841 47.3941 29.6921C47.5164 29.7002 47.6387 29.6773 47.7499 29.6258C49.556 28.818 51.5779 28.6279 53.5029 29.0848C54.3067 29.2289 55.0348 29.6497 55.5611 30.274C56.0874 30.8984 56.3789 31.6872 56.3849 32.5038C56.4739 34.9778 56.4439 37.4568 56.4619 39.9338C56.4619 40.5738 56.4619 41.2138 56.4619 41.8858" fill="#2A60E4"/>
<path d="M80.8929 29.3788V28.8158C80.8929 27.2398 80.8929 25.6648 80.8929 24.0888C80.8929 23.8368 80.9249 23.6628 81.2239 23.6148C82.3649 23.4318 83.5029 23.2328 84.7129 23.0288V23.5718C84.7129 28.7498 84.7129 33.9275 84.7129 39.1048C84.7129 40.5878 84.3879 41.0408 82.9749 41.4748C81.1553 42.0375 79.232 42.1814 77.3489 41.8958C76.0423 41.7191 74.8415 41.0825 73.9618 40.1004C73.0822 39.1183 72.5813 37.8549 72.5489 36.5368C72.4292 35.3023 72.5191 34.0564 72.8149 32.8518C73.0422 31.7263 73.657 30.7162 74.5524 29.9974C75.4478 29.2785 76.5669 28.8965 77.7149 28.9178C78.5776 28.9532 79.4363 29.0535 80.2839 29.2178C80.4929 29.2593 80.6992 29.3131 80.9019 29.3788M80.9019 35.5478V33.6688C80.9019 31.9458 80.9019 31.9458 79.1599 31.7918C78.5638 31.6934 77.9528 31.8296 77.4551 32.1719C76.9573 32.5142 76.6113 33.036 76.4899 33.6278C76.1733 34.8141 76.176 36.063 76.4979 37.2478C76.6157 37.8478 76.9522 38.3826 77.4421 38.7484C77.9319 39.1143 78.5402 39.2851 79.1489 39.2278C79.5629 39.2198 79.9759 39.1278 80.3909 39.0968C80.7819 39.0668 80.9269 38.9038 80.9129 38.4878C80.8779 37.5088 80.9019 36.5268 80.9019 35.5478Z" fill="#2A60E4"/>
<path d="M66.7309 34.2108C66.8559 32.2798 66.2599 31.6438 64.4189 31.6948C62.9069 31.7604 61.4138 32.0575 59.9919 32.5758C59.8419 32.6278 59.6919 32.6758 59.4689 32.7428C59.3459 31.8798 59.2199 31.0428 59.1169 30.2068C59.1266 30.1511 59.1499 30.0986 59.1848 30.0541C59.2197 30.0096 59.2651 29.9744 59.3169 29.9518C61.3531 29.1878 63.5122 28.8038 65.6869 28.8188C66.0244 28.835 66.3607 28.8714 66.6939 28.9278C69.1809 29.3588 70.3589 30.7278 70.3789 33.2638C70.4019 36.1638 70.3849 39.0558 70.3839 41.9518C70.3839 42.0518 70.3739 42.1418 70.3659 42.2918C69.9419 42.2198 69.5319 42.1778 69.1369 42.0778C67.6165 41.6683 66.021 41.6231 64.4799 41.9458C63.3376 42.1855 62.1516 42.107 61.0509 41.7188C60.35 41.4655 59.7409 41.0083 59.3021 40.406C58.8632 39.8037 58.6146 39.0839 58.5883 38.3391C58.5619 37.5943 58.759 36.8587 59.1543 36.2269C59.5495 35.5951 60.1247 35.096 60.8059 34.7938C61.8454 34.3973 62.9505 34.2012 64.0629 34.2158C64.9429 34.1948 65.8239 34.2158 66.7319 34.2158M66.8099 36.5208C65.7099 36.5208 64.6929 36.4548 63.6919 36.5408C63.489 36.5532 63.2907 36.607 63.1093 36.6988C62.9278 36.7905 62.767 36.9183 62.6367 37.0744C62.5064 37.2305 62.4094 37.4115 62.3515 37.6064C62.2935 37.8013 62.276 38.0059 62.2999 38.2078C62.3014 38.4033 62.3439 38.5963 62.4246 38.7744C62.5052 38.9524 62.6223 39.1117 62.7682 39.2418C62.9141 39.3719 63.0857 39.4699 63.2718 39.5297C63.4579 39.5895 63.6545 39.6096 63.8489 39.5888C64.7721 39.5016 65.6885 39.353 66.5919 39.1438C66.6453 39.1215 66.6923 39.0862 66.7286 39.0411C66.7649 38.9961 66.7894 38.9427 66.7999 38.8858C66.8169 38.1008 66.8089 37.3158 66.8089 36.5218" fill="#2A60E4"/>
<path d="M31.888 3.69287H0V19.9099H31.888V3.69287Z" fill="#2A60E4"/>
<path d="M31.888 25.7988H0V42.0158H31.888V25.7988Z" fill="#A0BCFF"/>
</svg>
