<svg width="28" height="28" viewBox="0 0 28 28" fill="none" xmlns="http://www.w3.org/2000/svg">
<path d="M13.54 15.876C14.9349 15.8758 16.2984 15.462 17.4581 14.687C18.6178 13.9119 19.5216 12.8104 20.0553 11.5216C20.589 10.2329 20.7286 8.81486 20.4564 7.44681C20.1843 6.07875 19.5125 4.82212 18.5262 3.8358C17.5399 2.84948 16.2833 2.17777 14.9152 1.90559C13.5472 1.63342 12.1291 1.77301 10.8404 2.30671C9.55167 2.84041 8.45013 3.74426 7.67506 4.90396C6.89999 6.06367 6.4862 7.42716 6.486 8.82202C6.48587 9.7484 6.66824 10.6657 7.02269 11.5216C7.37714 12.3775 7.89673 13.1552 8.55178 13.8102C9.20683 14.4653 9.98451 14.9849 10.8404 15.3393C11.6963 15.6938 12.6136 15.8762 13.54 15.876ZM8.9 17.443C6.80479 17.443 4.79539 18.2753 3.31386 19.7569C1.83232 21.2384 1 23.2478 1 25.343C1 25.7408 1.15804 26.1224 1.43934 26.4037C1.72064 26.685 2.10218 26.843 2.5 26.843H24.575C24.9728 26.843 25.3544 26.685 25.6357 26.4037C25.917 26.1224 26.075 25.7408 26.075 25.343C26.075 24.3056 25.8707 23.2783 25.4736 22.3198C25.0766 21.3614 24.4947 20.4905 23.7611 19.7569C23.0276 19.0233 22.1567 18.4414 21.1982 18.0444C20.2397 17.6474 19.2124 17.443 18.175 17.443H8.9Z" stroke="#2A60E4" stroke-width="2"/>
</svg>
