<svg width="34" height="38" viewBox="0 0 34 38" fill="none" xmlns="http://www.w3.org/2000/svg">
<path d="M17 19C18.78 19 20.5201 18.4722 22.0001 17.4832C23.4802 16.4943 24.6337 15.0887 25.3149 13.4442C25.9961 11.7996 26.1743 9.99002 25.8271 8.24419C25.4798 6.49836 24.6226 4.89472 23.364 3.63604C22.1053 2.37737 20.5016 1.5202 18.7558 1.17294C17.01 0.82567 15.2004 1.0039 13.5558 1.68509C11.9113 2.36628 10.5057 3.51983 9.51677 4.99987C8.52784 6.47991 8 8.21997 8 10C8 12.387 8.94821 14.6761 10.636 16.364C12.3239 18.0518 14.6131 19 17 19ZM13.787 22.375C12.1405 22.3746 10.5101 22.6986 8.98883 23.3285C7.4676 23.9584 6.08537 24.8819 4.92112 26.0461C3.75688 27.2104 2.83342 28.5926 2.20352 30.1138C1.57362 31.6351 1.24961 33.2655 1.25 34.912C1.25027 35.4657 1.47034 35.9966 1.86185 36.3881C2.25337 36.7797 2.78431 36.9997 3.338 37H30.662C31.2157 36.9997 31.7466 36.7797 32.1381 36.3881C32.5297 35.9966 32.7497 35.4657 32.75 34.912C32.7504 33.2655 32.4264 31.6351 31.7965 30.1138C31.1666 28.5926 30.2431 27.2104 29.0789 26.0461C27.9146 24.8819 26.5324 23.9584 25.0112 23.3285C23.4899 22.6986 21.8595 22.3746 20.213 22.375H13.787Z" stroke="#121212" stroke-width="2"/>
</svg>
