<svg width="66" height="66" viewBox="0 0 66 66" fill="none" xmlns="http://www.w3.org/2000/svg">
<path d="M33 66C51.2254 66 66 51.2254 66 33C66 14.7746 51.2254 0 33 0C14.7746 0 0 14.7746 0 33C0 51.2254 14.7746 66 33 66Z" fill="url(#paint0_linear_1228_28)"/>
<path d="M58 32.5C58 18.4167 46.5833 7 32.5 7C18.4167 7 7 18.4167 7 32.5C7 46.5833 18.4167 58 32.5 58C46.5833 58 58 46.5833 58 32.5Z" fill="url(#paint1_radial_1228_28)" stroke="#2A60E4" stroke-width="2"/>
<path d="M43.468 38.0731V41.3001C43.4687 41.6004 43.4067 41.8975 43.286 42.1725C43.1653 42.4474 42.9886 42.6942 42.7672 42.897C42.5458 43.0998 42.2844 43.2542 42 43.3503C41.7155 43.4464 41.4141 43.4821 41.115 43.4551C37.7943 43.0948 34.6042 41.9619 31.8 40.1471C29.1928 38.4943 26.9814 36.2878 25.323 33.6841C23.4993 30.8747 22.3639 27.6747 22.009 24.3441C21.9832 24.0463 22.0196 23.7464 22.1158 23.4634C22.2121 23.1804 22.366 22.9205 22.568 22.7001C22.7699 22.4798 23.0154 22.3038 23.289 22.1833C23.5625 22.0628 23.8581 22.0004 24.157 22.0001H27.4C27.9234 21.9946 28.4309 22.1796 28.8281 22.5204C29.2253 22.8613 29.4851 23.335 29.559 23.8531C29.6959 24.8875 29.9495 25.9029 30.315 26.8801C30.4602 27.2657 30.4916 27.6849 30.4055 28.0879C30.3193 28.4908 30.1192 28.8606 29.829 29.1531L28.458 30.5211C29.9957 33.2196 32.2335 35.4528 34.935 36.9851L36.306 35.6171C36.5999 35.3274 36.9705 35.1277 37.3742 35.0418C37.7778 34.9559 38.1976 34.9872 38.584 35.1321C39.5633 35.4972 40.5808 35.7501 41.617 35.8861C42.1409 35.9595 42.6195 36.2229 42.9618 36.6261C43.3042 37.0293 43.4865 37.5443 43.474 38.0731H43.468Z" fill="#2A60E4"/>
<defs>
<linearGradient id="paint0_linear_1228_28" x1="33" y1="0" x2="33" y2="206.514" gradientUnits="userSpaceOnUse">
<stop stop-color="white"/>
<stop offset="1" stop-color="#808080" stop-opacity="0.439"/>
</linearGradient>
<radialGradient id="paint1_radial_1228_28" cx="0" cy="0" r="1" gradientUnits="userSpaceOnUse" gradientTransform="translate(33 33) rotate(90) scale(52.5)">
<stop stop-color="white"/>
<stop offset="1" stop-color="#A0BCFF"/>
</radialGradient>
</defs>
</svg>
