<svg width="140" height="140" viewBox="0 0 140 140" fill="none" xmlns="http://www.w3.org/2000/svg">
<path d="M70 140C108.66 140 140 108.66 140 70C140 31.3401 108.66 0 70 0C31.3401 0 0 31.3401 0 70C0 108.66 31.3401 140 70 140Z" fill="#2A60E4"/>
<path d="M40.4 100.868H93.2C93.6707 100.875 94.1247 100.694 94.4622 100.366C94.7997 100.038 94.9932 99.5888 95 99.1181V67.6181C94.9932 67.1474 94.7997 66.6987 94.4622 66.3705C94.1247 66.0424 93.6707 65.8617 93.2 65.8681H92.6V46.1981C92.6082 45.967 92.5561 45.7378 92.4488 45.533C92.3415 45.3282 92.1827 45.1549 91.988 45.0301L91.34 44.6801L82.6 48.6131C79.4277 44.6437 75.1465 41.7075 70.3009 40.1779C65.4553 38.6483 60.2643 38.5944 55.388 40.0231C50.5453 41.3779 46.2326 44.1807 43.0279 48.0559C39.8232 51.931 37.8797 56.6932 37.458 61.7041C37.1131 66.7068 38.3174 71.6944 40.9071 75.9885C43.4969 80.2826 47.3463 83.6749 51.932 85.7041H41.948C40.7591 85.6875 39.6122 86.1437 38.7594 86.9723C37.9066 87.8009 37.4176 88.9342 37.4 90.1231V91.5351H35V95.6181C35.0232 97.0293 35.6043 98.3739 36.6163 99.3578C37.6282 100.342 38.9887 100.885 40.4 100.868ZM75.8 98.5351V93.8681H78.2V98.5351H75.8ZM80.6 98.5351V93.8681H83V98.5351H80.6ZM85.4 98.5351V93.8681H87.8V98.5351H85.4ZM92.6 98.5351H90.2V93.8681H92.6V98.5351ZM92.6 91.5351H75.8V82.2021H92.6V91.5351ZM75.8 52.5681V65.8681H75.2C74.7293 65.8617 74.2753 66.0424 73.9378 66.3705C73.6003 66.6987 73.4068 67.1474 73.4 67.6181V77.5351C70.2682 79.8292 66.4821 81.0562 62.6 81.0351C58.6255 81.0772 54.7498 79.7963 51.5832 77.3939C48.4166 74.9914 46.139 71.6041 45.109 67.7651C44.1519 63.9424 44.5263 59.9077 46.1705 56.3264C47.8146 52.7451 50.6302 49.8311 54.153 48.0651C57.7102 46.2331 61.7684 45.6129 65.7104 46.2988C69.6525 46.9847 73.2627 48.9392 75.992 51.8651C75.8635 52.0757 75.797 52.3184 75.8 52.5651V52.5681ZM75.8 77.5351H92.6V79.8681H75.8V77.5351ZM92.6 75.2021H75.8V68.2021H92.6V75.2021ZM90.2 65.8691H78.2V53.1981L90.2 47.7981V65.8691ZM39.8 63.5351C39.8 51.2931 50.008 41.3681 62.6 41.3681C65.9897 41.343 69.3423 42.0734 72.4144 43.5061C75.4864 44.9389 78.2007 47.0381 80.36 49.6511L78.092 50.7011C74.6321 46.8033 69.8354 44.3457 64.6507 43.8144C59.4659 43.2832 54.2705 44.7169 50.092 47.8321C45.9588 50.8683 43.1907 55.4128 42.3889 60.4782C41.5871 65.5437 42.8165 70.7209 45.81 74.8851C48.8873 79.0881 53.4317 81.9812 58.5421 82.9907C63.6525 84.0002 68.9557 83.0523 73.4 80.3351V83.0531C69.912 84.8708 66.0215 85.7786 62.0893 85.6924C58.157 85.6063 54.31 84.5289 50.905 82.5601C47.5484 80.641 44.7554 77.873 42.8063 74.5338C40.8572 71.1946 39.8204 67.4015 39.8 63.5351ZM39.8 90.1231C39.8082 89.5614 40.039 89.026 40.4418 88.6345C40.8446 88.2429 41.3863 88.0273 41.948 88.0351H73.4V91.5351H39.8V90.1231ZM37.4 93.8681H73.4V98.5351H40.4C39.6154 98.546 38.8585 98.2449 38.2959 97.6978C37.7333 97.1508 37.4111 96.4027 37.4 95.6181V93.8681Z" fill="white"/>
<path d="M57 66.8679C57.1316 66.8686 57.2621 66.8434 57.3839 66.7936C57.5057 66.7439 57.6166 66.6705 57.71 66.5779L64.71 59.5779C64.8032 59.4846 64.8772 59.3739 64.9277 59.2521C64.9781 59.1303 65.0041 58.9997 65.0041 58.8679C65.0041 58.736 64.9781 58.6054 64.9277 58.4836C64.8772 58.3618 64.8032 58.2511 64.71 58.1579C64.6168 58.0646 64.5061 57.9907 64.3843 57.9402C64.2624 57.8897 64.1319 57.8638 64 57.8638C63.8681 57.8638 63.7376 57.8897 63.6158 57.9402C63.4939 57.9907 63.3832 58.0646 63.29 58.1579L56.29 65.1579C56.149 65.2977 56.0528 65.4764 56.0137 65.6712C55.9747 65.8659 55.9945 66.0679 56.0706 66.2513C56.1468 66.4348 56.2759 66.5914 56.4414 66.7012C56.6069 66.811 56.8014 66.869 57 66.8679ZM69.29 58.1579L56.29 71.1579C56.1968 71.2511 56.1228 71.3618 56.0723 71.4836C56.0219 71.6054 55.9959 71.736 55.9959 71.8679C55.9959 71.9997 56.0219 72.1303 56.0723 72.2521C56.1228 72.3739 56.1968 72.4846 56.29 72.5779C56.3832 72.6711 56.4939 72.7451 56.6158 72.7955C56.7376 72.846 56.8681 72.872 57 72.872C57.1319 72.872 57.2624 72.846 57.3843 72.7955C57.5061 72.7451 57.6168 72.6711 57.71 72.5779L70.71 59.5779C70.8032 59.4846 70.8772 59.3739 70.9277 59.2521C70.9781 59.1303 71.0041 58.9997 71.0041 58.8679C71.0041 58.736 70.9781 58.6054 70.9277 58.4836C70.8772 58.3618 70.8032 58.2511 70.71 58.1579C70.6168 58.0646 70.5061 57.9907 70.3843 57.9402C70.2624 57.8897 70.1319 57.8638 70 57.8638C69.8681 57.8638 69.7376 57.8897 69.6158 57.9402C69.4939 57.9907 69.3832 58.0646 69.29 58.1579ZM102 62.8679H104V60.8679H102V58.8679H100V60.8679H98V62.8679H100V64.8679H97V66.8679H100V68.8679H97V70.8679H100V72.8679H97V74.8679H100V76.8679H98V78.8679H100V83.8679H98.1C97.8083 83.8679 97.5285 83.9838 97.3222 84.19C97.1159 84.3963 97 84.6761 97 84.9679V99.7679C97 100.06 97.1159 100.339 97.3222 100.546C97.5285 100.752 97.8083 100.868 98.1 100.868H103.9C104.192 100.868 104.472 100.752 104.678 100.546C104.884 100.339 105 100.06 105 99.7679V84.9679C105 84.6761 104.884 84.3963 104.678 84.19C104.472 83.9838 104.192 83.8679 103.9 83.8679H102V78.8679H104V76.8679H102V74.8679H105V72.8679H102V70.8679H105V68.8679H102V66.8679H105V64.8679H102V62.8679ZM103 98.8679H99V85.8679H103V98.8679Z" fill="white"/>
</svg>
