<svg width="16" height="16" viewBox="0 0 16 16" fill="none" xmlns="http://www.w3.org/2000/svg">
<path d="M7.99979 13.5999C9.2954 13.6003 10.5511 13.1514 11.5528 12.3297C12.5545 11.5081 13.2404 10.3645 13.4935 9.09385C13.7466 7.8232 13.5513 6.50415 12.9408 5.36136C12.3303 4.21858 11.3425 3.3228 10.1457 2.8267C8.9488 2.3306 7.61695 2.26485 6.37705 2.64066C5.13714 3.01647 4.0659 3.81057 3.34586 4.88767C2.62582 5.96477 2.30151 7.25825 2.42822 8.54764C2.55494 9.83704 3.12482 11.0426 4.04077 11.9589C5.09065 13.0092 6.51474 13.5995 7.99979 13.5999Z" stroke="#121212" stroke-width="0.9" stroke-linecap="round" stroke-linejoin="round"/>
<path d="M8.00019 9.40014C8.32409 9.40011 8.63795 9.28776 8.88831 9.08227C9.13867 8.87677 9.31004 8.5908 9.37321 8.27312C9.43638 7.95545 9.38745 7.62572 9.23475 7.34008C9.08205 7.05444 8.83502 6.83059 8.53577 6.70666C8.23653 6.58272 7.90355 6.56635 7.59361 6.66039C7.28366 6.75443 7.01591 6.95308 6.83598 7.2224C6.65604 7.49172 6.57509 7.81511 6.60685 8.13744C6.63861 8.45978 6.78116 8.76109 7.0102 8.9901C7.14021 9.1201 7.29456 9.22322 7.46442 9.29357C7.63429 9.36392 7.81634 9.40015 8.00019 9.40014Z" stroke="#121212" stroke-width="0.9" stroke-linecap="round" stroke-linejoin="round"/>
<path d="M8 1V2.40002" stroke="#121212" stroke-width="0.9" stroke-linecap="round" stroke-linejoin="round"/>
<path d="M8 15.0001V13.6001" stroke="#121212" stroke-width="0.9" stroke-linecap="round" stroke-linejoin="round"/>
<path d="M11.4998 14.0611L10.7998 12.8501" stroke="#121212" stroke-width="0.9" stroke-linecap="round" stroke-linejoin="round"/>
<path d="M7.29999 6.789L4.5 1.93799" stroke="#121212" stroke-width="0.9" stroke-linecap="round" stroke-linejoin="round"/>
<path d="M14.0611 11.4998L12.8501 10.7998" stroke="#121212" stroke-width="0.9" stroke-linecap="round" stroke-linejoin="round"/>
<path d="M1.93799 4.5L3.14899 5.20001" stroke="#121212" stroke-width="0.9" stroke-linecap="round" stroke-linejoin="round"/>
<path d="M9.3999 8H14.9999" stroke="#121212" stroke-width="0.9" stroke-linecap="round" stroke-linejoin="round"/>
<path d="M1 8H2.39999" stroke="#121212" stroke-width="0.9" stroke-linecap="round" stroke-linejoin="round"/>
<path d="M14.0611 4.5L12.8501 5.20001" stroke="#121212" stroke-width="0.9" stroke-linecap="round" stroke-linejoin="round"/>
<path d="M1.93799 11.4998L3.14899 10.7998" stroke="#121212" stroke-width="0.9" stroke-linecap="round" stroke-linejoin="round"/>
<path d="M11.4998 1.93799L10.7998 3.14899" stroke="#121212" stroke-width="0.9" stroke-linecap="round" stroke-linejoin="round"/>
<path d="M7.29999 9.21094L4.5 14.062" stroke="#121212" stroke-width="0.9" stroke-linecap="round" stroke-linejoin="round"/>
</svg>
