<svg width="43" height="43" viewBox="0 0 43 43" fill="none" xmlns="http://www.w3.org/2000/svg">
<path d="M26.364 16.5631C26.428 16.0785 26.4531 15.5896 26.439 15.1011C26.439 14.5891 26.364 14.1511 26.364 13.6391L29.505 11.2261C29.5781 11.1742 29.6401 11.1083 29.6874 11.0322C29.7346 10.956 29.7662 10.8712 29.7801 10.7827C29.7941 10.6942 29.7902 10.6037 29.7687 10.5167C29.7473 10.4297 29.7086 10.3479 29.655 10.2761L26.663 5.22907C26.5725 5.08098 26.4321 4.97008 26.2671 4.91635C26.1021 4.86263 25.9233 4.86963 25.763 4.93607L22.025 6.40107C21.2475 5.80097 20.3925 5.30884 19.483 4.93807L18.957 1.06107C18.9111 0.896463 18.8138 0.75086 18.6792 0.645589C18.5446 0.540319 18.3798 0.480914 18.209 0.476074H12.228C12.0572 0.480914 11.8924 0.540319 11.7578 0.645589C11.6232 0.75086 11.5259 0.896463 11.48 1.06107L10.88 4.93607C9.97878 5.32428 9.12572 5.81591 8.338 6.40107L4.599 4.93607C4.43954 4.86339 4.25862 4.85316 4.09198 4.90741C3.92534 4.96166 3.78511 5.07644 3.699 5.22907L0.709003 10.2751C0.639509 10.431 0.616692 10.6037 0.643313 10.7723C0.669935 10.9409 0.744854 11.0982 0.859004 11.2251L4.075 13.6381C4.075 14.1501 4 14.5881 4 15.1001C4 15.6121 4.075 16.0501 4.075 16.5621L0.934004 18.9761C0.860897 19.0279 0.798895 19.0938 0.751646 19.17C0.704398 19.2461 0.672857 19.331 0.65888 19.4195C0.644904 19.508 0.648773 19.5984 0.670261 19.6854C0.69175 19.7724 0.730422 19.8542 0.784003 19.9261L3.776 24.9721C3.86647 25.1202 4.00687 25.2311 4.17189 25.2848C4.33691 25.3385 4.51569 25.3315 4.676 25.2651L8.416 23.8021C9.19308 24.4025 10.0478 24.8949 10.957 25.2661L11.557 29.1411C11.5905 29.3123 11.6845 29.4656 11.8219 29.5731C11.9593 29.6805 12.1308 29.7348 12.305 29.7261H18.288C18.4588 29.7212 18.6236 29.6618 18.7582 29.5566C18.8928 29.4513 18.9901 29.3057 19.036 29.1411L19.636 25.2661C20.5362 24.8777 21.3883 24.3861 22.175 23.8011L25.915 25.2641C26.0745 25.3368 26.2554 25.347 26.422 25.2927C26.5887 25.2385 26.7289 25.1237 26.815 24.9711L29.807 19.9251C29.8766 19.7692 29.8995 19.5965 29.8729 19.4278C29.8463 19.2592 29.7713 19.1019 29.657 18.9751L26.366 16.5621L26.364 16.5631ZM15.22 20.2201C14.2126 20.197 13.2344 19.8773 12.408 19.3008C11.5815 18.7244 10.9435 17.9169 10.5739 16.9795C10.2043 16.0421 10.1195 15.0164 10.3301 14.031C10.5408 13.0457 11.0375 12.1444 11.7581 11.44C12.4787 10.7357 13.3911 10.2596 14.381 10.0715C15.3709 9.88331 16.3944 9.99145 17.3231 10.3823C18.2518 10.7732 19.0446 11.4294 19.6021 12.2688C20.1595 13.1082 20.4569 14.0934 20.457 15.1011C20.4535 15.7823 20.3148 16.4561 20.049 17.0833C19.7831 17.7105 19.3953 18.2787 18.9081 18.7549C18.421 19.2311 17.8441 19.6058 17.211 19.8573C16.5779 20.1088 15.9011 20.2321 15.22 20.2201Z" fill="#121212"/>
<path d="M40.443 33.9881C40.4824 33.6898 40.4978 33.3889 40.489 33.0881C40.489 32.7731 40.443 32.5031 40.443 32.1881L42.376 30.7031C42.4211 30.6713 42.4593 30.6307 42.4884 30.5838C42.5176 30.5369 42.537 30.4846 42.5456 30.4301C42.5541 30.3755 42.5517 30.3198 42.5384 30.2662C42.5251 30.2127 42.5011 30.1623 42.468 30.1181L40.627 27.0131C40.5713 26.9225 40.4852 26.8546 40.3841 26.8216C40.283 26.7886 40.1734 26.7927 40.075 26.8331L37.775 27.7331C37.2963 27.3639 36.7699 27.0612 36.21 26.8331L35.888 24.4481C35.8597 24.3469 35.7998 24.2574 35.7171 24.1927C35.6343 24.1279 35.533 24.0913 35.428 24.0881H31.744C31.639 24.0913 31.5377 24.1279 31.4549 24.1927C31.3722 24.2574 31.3123 24.3469 31.284 24.4481L30.915 26.8331C30.3602 27.0715 29.835 27.3735 29.35 27.7331L27.05 26.8331C26.9521 26.789 26.8413 26.7829 26.7391 26.8162C26.637 26.8495 26.551 26.9198 26.498 27.0131L24.656 30.1181C24.6131 30.2141 24.5989 30.3204 24.6152 30.4243C24.6316 30.5281 24.6777 30.625 24.748 30.7031L26.727 32.1881C26.727 32.5031 26.681 32.7731 26.681 33.0881C26.681 33.4031 26.727 33.6731 26.727 33.9881L24.794 35.4731C24.7489 35.505 24.7107 35.5456 24.6816 35.5925C24.6524 35.6394 24.633 35.6917 24.6244 35.7462C24.6159 35.8007 24.6183 35.8564 24.6316 35.91C24.645 35.9636 24.6689 36.014 24.702 36.0581L26.543 39.1631C26.5987 39.2538 26.6848 39.3217 26.7859 39.3547C26.887 39.3876 26.9966 39.3836 27.095 39.3431L29.395 38.4431C29.8737 38.8124 30.4001 39.1151 30.96 39.3431L31.328 41.7281C31.3486 41.8334 31.4064 41.9278 31.4909 41.9939C31.5754 42.06 31.6809 42.0935 31.788 42.0881H35.47C35.575 42.085 35.6763 42.0484 35.7591 41.9836C35.8418 41.9188 35.9017 41.8293 35.93 41.7281L36.299 39.3431C36.8538 39.1048 37.379 38.8028 37.864 38.4431L40.164 39.3431C40.2619 39.3873 40.3728 39.3933 40.4749 39.36C40.577 39.3267 40.663 39.2565 40.716 39.1631L42.557 36.0581C42.5999 35.9622 42.6141 35.8558 42.5978 35.752C42.5814 35.6481 42.5353 35.5513 42.465 35.4731L40.443 33.9881ZM33.585 36.2381C32.965 36.2242 32.3628 36.0275 31.8541 35.6729C31.3453 35.3182 30.9525 34.8213 30.7249 34.2444C30.4973 33.6674 30.445 33.0362 30.5745 32.4297C30.7041 31.8232 31.0098 31.2684 31.4532 30.8348C31.8967 30.4012 32.4583 30.1082 33.0675 29.9924C33.6768 29.8765 34.3067 29.9431 34.8784 30.1837C35.45 30.4243 35.9379 30.8282 36.281 31.3449C36.6241 31.8615 36.807 32.4679 36.807 33.0881C36.8048 33.5073 36.7195 33.9218 36.5559 34.3077C36.3923 34.6936 36.1537 35.0432 35.854 35.3362C35.5543 35.6292 35.1994 35.8598 34.8099 36.0146C34.4204 36.1694 34.0041 36.2454 33.585 36.2381Z" fill="#121212"/>
</svg>
