<svg width="35" height="38" viewBox="0 0 35 38" fill="none" xmlns="http://www.w3.org/2000/svg">
<path d="M28.799 25.7589C27.9106 25.759 27.0341 25.9634 26.2374 26.3563C25.4406 26.7493 24.7449 27.3202 24.204 28.0249L11.692 20.9249C12.1124 19.7051 12.1124 18.3797 11.692 17.1599L24.204 10.0599C25.0765 11.195 26.338 11.9672 27.7457 12.228C29.1534 12.4889 30.6078 12.2198 31.829 11.4727C33.0503 10.7257 33.9521 9.55328 34.3609 8.18124C34.7697 6.80919 34.6566 5.33444 34.0434 4.04077C33.4301 2.74711 32.3601 1.72595 31.0392 1.1738C29.7183 0.621661 28.2399 0.577555 26.8885 1.04997C25.537 1.52239 24.408 2.47794 23.7188 3.73275C23.0295 4.98756 22.8287 6.45295 23.155 7.84693L10.427 15.0689C9.63077 14.2221 8.59849 13.634 7.46402 13.381C6.32955 13.128 5.14522 13.2217 4.06463 13.6499C2.98404 14.0781 2.05704 14.8211 1.40385 15.7826C0.750668 16.744 0.401428 17.8796 0.401428 19.0419C0.401428 20.2043 0.750668 21.3398 1.40385 22.3013C2.05704 23.2627 2.98404 24.0057 4.06463 24.434C5.14522 24.8622 6.32955 24.9559 7.46402 24.7028C8.59849 24.4498 9.63077 23.8617 10.427 23.0149L23.155 30.2369C22.8808 31.4093 22.9782 32.6379 23.4337 33.7523C23.8892 34.8668 24.6802 35.8119 25.6971 36.4565C26.714 37.1012 27.9062 37.4134 29.1085 37.3498C30.3108 37.2863 31.4635 36.8503 32.4068 36.1021C33.3501 35.3539 34.0371 34.3307 34.3727 33.1745C34.7083 32.0182 34.6757 30.7862 34.2795 29.6493C33.8833 28.5124 33.1431 27.5269 32.1616 26.8296C31.1801 26.1324 30.0059 25.7578 28.802 25.7579L28.799 25.7589ZM28.799 3.16693C29.4631 3.16693 30.1124 3.36387 30.6646 3.73285C31.2168 4.10183 31.6472 4.62628 31.9014 5.23988C32.1555 5.85347 32.222 6.52865 32.0925 7.18004C31.9629 7.83143 31.6431 8.42977 31.1734 8.89939C30.7038 9.36901 30.1055 9.68883 29.4541 9.8184C28.8027 9.94797 28.1275 9.88147 27.5139 9.62731C26.9003 9.37315 26.3759 8.94275 26.0069 8.39053C25.6379 7.83831 25.441 7.18908 25.441 6.52493C25.441 5.63433 25.7948 4.78021 26.4245 4.15046C27.0543 3.52071 27.9084 3.16693 28.799 3.16693ZM6.20598 22.3989C5.54183 22.3989 4.89259 22.202 4.34037 21.833C3.78815 21.464 3.35775 20.9396 3.10359 20.326C2.84943 19.7124 2.78293 19.0372 2.9125 18.3858C3.04207 17.7344 3.36189 17.1361 3.83151 16.6665C4.30114 16.1968 4.89948 15.877 5.55087 15.7474C6.20225 15.6179 6.87743 15.6844 7.49103 15.9385C8.10462 16.1927 8.62907 16.6231 8.99805 17.1753C9.36703 17.7275 9.56398 18.3768 9.56398 19.0409C9.56398 19.9315 9.21019 20.7856 8.58044 21.4154C7.9507 22.0451 7.09657 22.3989 6.20598 22.3989ZM28.799 34.9179C28.1347 34.9183 27.4853 34.7217 26.9328 34.353C26.3803 33.9842 25.9496 33.4599 25.6952 32.8464C25.4407 32.2328 25.3739 31.5576 25.5033 30.906C25.6326 30.2545 25.9523 29.656 26.4218 29.1862C26.8914 28.7163 27.4897 28.3963 28.1411 28.2666C28.7926 28.1369 29.4679 28.2032 30.0816 28.4573C30.6953 28.7114 31.2198 29.1419 31.5889 29.6941C31.958 30.2464 32.155 30.8957 32.155 31.5599C32.155 32.4505 31.8012 33.3046 31.1714 33.9344C30.5417 34.5641 29.6876 34.9179 28.797 34.9179H28.799Z" fill="black"/>
</svg>
