<svg width="38" height="34" viewBox="0 0 38 34" fill="none" xmlns="http://www.w3.org/2000/svg">
<path d="M20.8 16.9988H37M37 16.9988L31 9.79883M37 16.9988L31 24.1988M22.6 7.99883V4.71183C22.5999 4.21382 22.4965 3.72125 22.2964 3.26525C22.0962 2.80925 21.8036 2.39974 21.437 2.06261C21.0705 1.72549 20.638 1.46808 20.1669 1.30666C19.6958 1.14524 19.1963 1.08333 18.7 1.12483L4.3 2.32283C3.4002 2.39807 2.56154 2.8087 1.9503 3.47329C1.33905 4.13787 0.999869 5.00789 1 5.91083V28.0868C1.00012 28.9896 1.33942 29.8594 1.95063 30.5237C2.56185 31.1881 3.40038 31.5986 4.3 31.6738L18.7 32.8738C19.1964 32.9153 19.6961 32.8534 20.1673 32.6918C20.6386 32.5303 21.0712 32.2727 21.4378 31.9354C21.8043 31.598 22.0969 31.1883 22.297 30.732C22.497 30.2758 22.6002 29.783 22.6 29.2848V25.9988" stroke="#121212" stroke-linecap="round" stroke-linejoin="round"/>
</svg>
