<svg width="22" height="22" viewBox="0 0 22 22" fill="none" xmlns="http://www.w3.org/2000/svg">
<path d="M16.774 16.008C16.3357 15.2456 15.704 14.6122 14.9427 14.1719C14.1814 13.7315 13.3175 13.4998 12.438 13.5H9.93799C9.05853 13.4998 8.19456 13.7315 7.43327 14.1719C6.67199 14.6122 6.04031 15.2456 5.60199 16.008C6.30593 16.7923 7.16715 17.4196 8.12959 17.849C9.09202 18.2784 10.1341 18.5004 11.188 18.5004C12.2419 18.5004 13.284 18.2784 14.2464 17.849C15.2088 17.4196 16.07 16.7923 16.774 16.008ZM1.18799 11C1.18799 9.02219 1.77448 7.08879 2.87329 5.4443C3.97211 3.79981 5.53389 2.51809 7.36115 1.76121C9.18842 1.00433 11.1991 0.806299 13.1389 1.19215C15.0787 1.578 16.8605 2.53041 18.2591 3.92894C19.6576 5.32746 20.61 7.10929 20.9958 9.0491C21.3817 10.9889 21.1837 12.9996 20.4268 14.8268C19.6699 16.6541 18.3882 18.2159 16.7437 19.3147C15.0992 20.4135 13.1658 21 11.188 21C8.53582 21 5.99228 19.9464 4.11692 18.0711C2.24156 16.1957 1.18799 13.6522 1.18799 11ZM11.188 11.625C11.7444 11.6252 12.2884 11.4604 12.7512 11.1513C13.2139 10.8423 13.5746 10.403 13.7877 9.88896C14.0007 9.37491 14.0565 8.80922 13.948 8.26346C13.8395 7.7177 13.5715 7.21638 13.1781 6.82291C12.7846 6.42945 12.2833 6.16151 11.7375 6.05301C11.1918 5.9445 10.6261 6.00029 10.112 6.21332C9.59799 6.42636 9.15867 6.78706 8.84965 7.24981C8.54063 7.71256 8.37579 8.25656 8.37599 8.813C8.37625 9.55871 8.6726 10.2738 9.1999 10.8011C9.72719 11.3284 10.4423 11.6247 11.188 11.625Z" stroke="#121212"/>
</svg>
