<svg width="37" height="31" viewBox="0 0 37 31" fill="none" xmlns="http://www.w3.org/2000/svg">
<path d="M0.569 10.759C0.578 10.793 0.603 10.81 0.62 10.845C0.648234 10.9051 0.681696 10.9627 0.72 11.017L17.874 29.882C17.883 29.899 17.908 29.899 17.917 29.916C17.9778 29.9723 18.0449 30.0213 18.117 30.062C18.143 30.079 18.168 30.088 18.194 30.105C18.2971 30.1351 18.4036 30.1522 18.511 30.156C18.6178 30.1556 18.7232 30.132 18.82 30.087C18.8474 30.076 18.8733 30.0615 18.897 30.044C18.9723 30.0085 19.0402 29.9589 19.097 29.898C19.114 29.881 19.131 29.881 19.14 29.864L36.286 11C36.3274 10.9477 36.361 10.8898 36.386 10.828C36.4079 10.8025 36.4252 10.7734 36.437 10.742C36.4775 10.6441 36.4979 10.539 36.497 10.433V10.424C36.4954 10.3976 36.4897 10.3716 36.48 10.347C36.4748 10.2712 36.4604 10.1963 36.437 10.124C36.4173 10.0822 36.3942 10.0421 36.368 10.004C36.342 9.97 36.334 9.927 36.308 9.884L29.448 1.308C29.439 1.299 29.422 1.291 29.414 1.282C29.3587 1.22406 29.295 1.17483 29.225 1.136C29.1937 1.1102 29.1602 1.08712 29.125 1.067C29.116 1.058 29.108 1.05 29.099 1.05C29.0197 1.0191 28.935 1.00448 28.85 1.007C28.842 1.017 28.825 1 28.8 1H8.218C8.192 1 8.167 1.017 8.141 1.017C8.05925 1.0188 7.97828 1.0333 7.901 1.06C7.892 1.06 7.884 1.077 7.875 1.077C7.83858 1.09516 7.80491 1.11839 7.775 1.146C7.70498 1.18483 7.64126 1.23406 7.586 1.292C7.577 1.301 7.56 1.309 7.552 1.318L0.692 9.894C0.666941 9.93126 0.646775 9.97159 0.632 10.014C0.605802 10.0521 0.582727 10.0922 0.563 10.134C0.536358 10.2054 0.521825 10.2808 0.52 10.357C0.509368 10.3811 0.502618 10.4068 0.5 10.433V10.442C0.501442 10.5512 0.52491 10.6591 0.569 10.759ZM3.296 11.291H11.048L16.219 25.5L3.296 11.291ZM18.509 26.791L12.875 11.291H24.143L18.509 26.791ZM20.8 25.5L25.971 11.29H33.723L20.8 25.5ZM29.05 3.538L33.878 9.575H26.638L29.05 3.538ZM27.53 2.715L25.12 8.752L20.292 2.715H27.53ZM23.585 9.575H13.432L18.509 3.23L23.585 9.575ZM16.725 2.715L11.9 8.752L9.49 2.715H16.725ZM7.969 3.538L10.379 9.575H3.141L7.969 3.538Z" stroke="#121212"/>
</svg>
