<svg width="150" height="150" viewBox="0 0 150 150" fill="none" xmlns="http://www.w3.org/2000/svg">
<path d="M75 150C116.421 150 150 116.421 150 75C150 33.5786 116.421 0 75 0C33.5786 0 0 33.5786 0 75C0 116.421 33.5786 150 75 150Z" fill="#E7F0FF"/>
<path d="M62.1119 103.153L35.671 76.553C34.9077 75.7836 34.4795 74.7437 34.4795 73.66C34.4795 72.5762 34.9077 71.5364 35.671 70.767L41.424 64.981C41.8006 64.6012 42.2486 64.2998 42.7423 64.094C43.236 63.8883 43.7656 63.7824 44.3005 63.7824C44.8353 63.7824 45.3649 63.8883 45.8586 64.094C46.3523 64.2998 46.8003 64.6012 47.177 64.981L64.9879 82.898L103.139 44.528C103.516 44.1483 103.964 43.847 104.457 43.6413C104.951 43.4357 105.481 43.3298 106.015 43.3298C106.55 43.3298 107.08 43.4357 107.573 43.6413C108.067 43.847 108.515 44.1483 108.892 44.528L114.645 50.314C115.408 51.0834 115.836 52.1232 115.836 53.207C115.836 54.2907 115.408 55.3306 114.645 56.1L67.8649 103.153C67.4883 103.533 67.0403 103.834 66.5466 104.04C66.0529 104.246 65.5233 104.352 64.9884 104.352C64.4536 104.352 63.924 104.246 63.4303 104.04C62.9366 103.834 62.4886 103.533 62.1119 103.153Z" fill="#0064FE"/>
</svg>
