<svg width="31" height="36" viewBox="0 0 31 36" fill="none" xmlns="http://www.w3.org/2000/svg">
<path d="M14.75 34.943V29.543C11.967 29.3967 9.28798 28.4377 7.04435 26.7847C4.80072 25.1317 3.09094 22.8572 2.12655 20.2426C1.16216 17.628 0.985474 14.788 1.61835 12.074C2.25123 9.36 3.66591 6.8911 5.68735 4.97275C7.7088 3.0544 10.2483 1.77078 12.9917 1.28071C15.7351 0.790629 18.5619 1.1156 21.1225 2.21542C23.6831 3.31523 25.8651 5.14162 27.3985 7.46863C28.9319 9.79564 29.7495 12.5212 29.75 15.308C29.75 22.733 24.59 30.208 16.895 33.908L14.75 34.943ZM15.5 4.05796C12.5163 4.05796 9.65481 5.24322 7.54502 7.35301C5.43524 9.46279 4.24997 12.3243 4.24997 15.308C4.24997 18.2916 5.43524 21.1531 7.54502 23.2629C9.65481 25.3727 12.5163 26.558 15.5 26.558H17.75V30.008C23.21 26.558 26.75 20.888 26.75 15.308C26.7489 12.3246 25.5633 9.46373 23.4538 7.35418C21.3442 5.24462 18.4833 4.05902 15.5 4.05796ZM14 21.308H17V24.308H14V21.308ZM17 19.058H14C14 14.183 18.5 14.558 18.5 11.558C18.5 10.7623 18.1839 9.99925 17.6213 9.43664C17.0587 8.87403 16.2956 8.55796 15.5 8.55796C14.7043 8.55796 13.9413 8.87403 13.3787 9.43664C12.816 9.99925 12.5 10.7623 12.5 11.558H9.49997C9.49997 9.96666 10.1321 8.44054 11.2573 7.31532C12.3826 6.1901 13.9087 5.55796 15.5 5.55796C17.0913 5.55796 18.6174 6.1901 19.7426 7.31532C20.8678 8.44054 21.5 9.96666 21.5 11.558C21.5 15.308 17 15.683 17 19.058Z" stroke="#121212"/>
</svg>
