<svg width="17" height="17" viewBox="0 0 17 17" fill="none" xmlns="http://www.w3.org/2000/svg">
<path d="M8.25 1C6.76664 1 5.3166 1.43987 4.08323 2.26398C2.84986 3.08809 1.88856 4.25943 1.32091 5.62987C0.75325 7.00032 0.604725 8.50832 0.894114 9.96318C1.1835 11.418 1.89781 12.7544 2.9467 13.8033C3.9956 14.8522 5.33197 15.5665 6.78683 15.8559C8.24168 16.1453 9.74968 15.9968 11.1201 15.4291C12.4906 14.8614 13.6619 13.9001 14.486 12.6668C15.3101 11.4334 15.75 9.98336 15.75 8.5C15.75 6.51088 14.9598 4.60322 13.5533 3.1967C12.1468 1.79018 10.2391 1 8.25 1Z" stroke="#121212" stroke-miterlimit="10"/>
<path d="M8.25 3.63281V9.63281H12.25" stroke="#121212" stroke-linecap="round" stroke-linejoin="round"/>
</svg>
