<svg width="66" height="66" viewBox="0 0 66 66" fill="none" xmlns="http://www.w3.org/2000/svg">
<path d="M33 66C51.2254 66 66 51.2254 66 33C66 14.7746 51.2254 0 33 0C14.7746 0 0 14.7746 0 33C0 51.2254 14.7746 66 33 66Z" fill="url(#paint0_linear_1228_29)"/>
<path d="M58 32.5C58 18.4167 46.5833 7 32.5 7C18.4167 7 7 18.4167 7 32.5C7 46.5833 18.4167 58 32.5 58C46.5833 58 58 46.5833 58 32.5Z" fill="url(#paint1_radial_1228_29)" stroke="#2A60E4" stroke-width="2"/>
<path fill-rule="evenodd" clip-rule="evenodd" d="M38.686 35.1802C38.349 35.0122 36.698 34.2042 36.386 34.0922C36.074 33.9802 35.855 33.9252 35.63 34.2612C35.405 34.5972 34.763 35.3472 34.567 35.5702C34.371 35.7932 34.175 35.8212 33.839 35.6552C32.8502 35.2614 31.9367 34.6998 31.139 33.9952C30.4049 33.3198 29.7751 32.5393 29.27 31.6792C29.075 31.3452 29.249 31.1642 29.417 30.9972C29.569 30.8472 29.753 30.6072 29.917 30.4122C30.0555 30.2431 30.1687 30.0549 30.253 29.8532C30.2981 29.7613 30.3193 29.6594 30.3144 29.5571C30.3095 29.4548 30.2787 29.3554 30.225 29.2682C30.141 29.1002 29.47 27.4542 29.189 26.7852C28.917 26.1342 28.64 26.2232 28.434 26.2112C28.228 26.1992 28.014 26.2002 27.79 26.2002C27.62 26.2043 27.4526 26.2437 27.2986 26.3159C27.1445 26.388 27.0071 26.4913 26.895 26.6192C26.5153 26.9762 26.2146 27.4086 26.012 27.8887C25.8095 28.3689 25.7097 28.8861 25.719 29.4072C25.8292 30.6691 26.3057 31.8714 27.09 32.8662C28.5333 35.0173 30.5105 36.7567 32.828 37.9142C33.4536 38.181 34.0928 38.4146 34.743 38.6142C35.4285 38.8221 36.153 38.8673 36.859 38.7461C37.3261 38.6518 37.7687 38.462 38.159 38.1885C38.5492 37.9151 38.8788 37.564 39.127 37.1572C39.3462 36.6577 39.414 36.1049 39.322 35.5672C39.239 35.4282 39.015 35.3442 38.678 35.1772L38.686 35.1802ZM32.557 43.5082C30.5563 43.5089 28.5918 42.9737 26.868 41.9582L26.461 41.7172L22.231 42.8222L23.361 38.7222L23.095 38.3012C21.7702 36.204 21.1802 33.7259 21.4179 31.2567C21.6555 28.7875 22.7073 26.4674 24.4078 24.6614C26.1083 22.8554 28.3609 21.6659 30.8113 21.2802C33.2618 20.8945 35.7709 21.3344 37.9439 22.5306C40.117 23.7269 41.8307 25.6117 42.8154 27.8884C43.8002 30.1652 44 32.7047 43.3836 35.1075C42.7671 37.5102 41.3694 39.6399 39.4102 41.1614C37.451 42.6828 35.0416 43.5099 32.561 43.5122L32.557 43.5082ZM42.066 22.9242C39.772 20.6075 36.713 19.2052 33.4605 18.9795C30.208 18.7537 26.9846 19.7199 24.3926 21.6975C21.8005 23.6751 20.0172 26.5288 19.3757 29.7253C18.7343 32.9219 19.2786 36.2427 20.907 39.0672L19 46.0002L26.126 44.1392C28.0987 45.2084 30.3071 45.7684 32.551 45.7682H32.557C36.1123 45.7717 39.5239 44.3652 42.0439 41.8572C44.5638 39.3493 45.9865 35.9444 46 32.3892C46.0047 30.6294 45.6593 28.8864 44.9839 27.2615C44.3085 25.6365 43.3166 24.1621 42.066 22.9242Z" fill="#2A60E4" stroke="#2A60E4" stroke-width="0.1"/>
<defs>
<linearGradient id="paint0_linear_1228_29" x1="38.082" y1="3.93254e-09" x2="38.412" y2="206.91" gradientUnits="userSpaceOnUse">
<stop stop-color="white"/>
<stop offset="1" stop-color="#808080" stop-opacity="0.439"/>
</linearGradient>
<radialGradient id="paint1_radial_1228_29" cx="0" cy="0" r="1" gradientUnits="userSpaceOnUse" gradientTransform="translate(33 33) rotate(90) scale(54.5)">
<stop stop-color="white"/>
<stop offset="1" stop-color="#A0BCFF"/>
</radialGradient>
</defs>
</svg>
