<svg width="21" height="20" viewBox="0 0 21 20" fill="none" xmlns="http://www.w3.org/2000/svg">
<path d="M10.375 0H10.351C7.69882 0 5.15528 1.05357 3.27991 2.92893C1.40455 4.8043 0.350983 7.34784 0.350983 10C0.350983 12.6522 1.40455 15.1957 3.27991 17.0711C5.15528 18.9464 7.69882 20 10.351 20H10.375C13.0271 20 15.5707 18.9464 17.4461 17.0711C19.3214 15.1957 20.375 12.6522 20.375 10C20.375 7.34784 19.3214 4.8043 17.4461 2.92893C15.5707 1.05357 13.0271 0 10.375 0ZM10.775 5.986C11.8155 5.95841 12.8502 5.82132 13.862 5.577C14.1853 6.89622 14.3577 8.24787 14.376 9.606H10.776V5.986H10.775ZM10.775 5.186V0.865C11.852 1.165 12.948 2.601 13.64 4.807C12.7004 5.03021 11.7403 5.15587 10.775 5.182V5.186ZM9.97498 0.859V5.188C9.00115 5.16126 8.03283 5.03222 7.08598 4.803C7.78798 2.582 8.88898 1.135 9.97598 0.856L9.97498 0.859ZM9.97498 5.989V9.604H6.35098C6.36927 8.24587 6.54171 6.89422 6.86498 5.575C7.88477 5.82066 8.92743 5.95907 9.97598 5.988L9.97498 5.989ZM5.54298 9.601H1.18798C1.27144 7.61169 2.00213 5.70403 3.26898 4.168C4.16787 4.66454 5.11683 5.06444 6.09998 5.361C5.75418 6.74865 5.56731 8.17112 5.54298 9.601ZM5.54298 10.401C5.56237 11.8307 5.74625 13.2534 6.09098 14.641C5.11032 14.9405 4.16301 15.3399 3.26398 15.833C1.99868 14.296 1.26789 12.389 1.18198 10.4L5.54298 10.401ZM6.35098 10.401H9.97598V14.012C8.92706 14.0402 7.88415 14.1803 6.86498 14.43C6.54171 13.1108 6.36927 11.7591 6.35098 10.401ZM9.97598 14.814V19.151C8.88898 18.867 7.78898 17.425 7.08698 15.204C8.03317 14.9704 9.00175 14.8403 9.97598 14.814ZM10.776 19.136V14.808C11.7431 14.8361 12.7048 14.9634 13.646 15.188C12.947 17.399 11.856 18.837 10.774 19.135L10.776 19.136ZM10.776 14.011V10.399H14.376C14.3574 11.7555 14.1849 13.1054 13.862 14.423C12.8503 14.1773 11.8156 14.0389 10.775 14.01L10.776 14.011ZM15.176 10.4H19.561C19.4764 12.3892 18.7454 14.2967 17.479 15.833C16.5742 15.3318 15.6193 14.9269 14.63 14.625C14.9748 13.2404 15.1587 11.8207 15.178 10.394L15.176 10.4ZM15.176 9.6C15.1559 8.172 14.9737 6.7509 14.633 5.364C15.6207 5.06367 16.5744 4.66151 17.479 4.164C18.7469 5.70106 19.478 7.61022 19.561 9.601H15.178L15.176 9.6ZM16.931 3.552C16.1289 3.97935 15.2869 4.32702 14.417 4.59C14.0584 3.28254 13.4089 2.07306 12.517 1.052C14.1934 1.45751 15.723 2.3238 16.933 3.553L16.931 3.552ZM8.19998 1.063C7.3117 2.07925 6.6664 3.28435 6.31298 4.587C5.45091 4.32529 4.61685 3.97894 3.82298 3.553C5.0209 2.32908 6.53856 1.46631 8.20298 1.063H8.19998ZM3.81698 16.442C4.61124 16.0169 5.44522 15.6706 6.30698 15.408C6.66416 16.7122 7.31126 17.9189 8.19998 18.938C6.53395 18.5332 5.01522 17.6683 3.81698 16.442ZM12.517 18.942C13.4098 17.9197 14.0594 16.7084 14.417 15.399C15.2869 15.662 16.1289 16.0096 16.931 16.437C15.7209 17.6668 14.1903 18.5329 12.513 18.937L12.517 18.942Z" fill="#121212"/>
</svg>
